<svg width="50" height="43" viewBox="0 0 50 43" fill="none" xmlns="http://www.w3.org/2000/svg">
<path d="M32.8562 16.7762C32.787 15.6377 32.0042 14.5111 30.5041 13.6422C27.3584 11.8203 22.2584 11.8203 19.113 13.6422C17.5404 14.5531 16.7538 15.7474 16.7538 16.9414V19.1407C16.7538 20.3346 17.5404 21.5286 19.113 22.4395C22.2584 24.2618 27.3584 24.2618 30.5041 22.4395C32.0764 21.5286 32.863 20.3346 32.863 19.1407V16.7762H32.8562Z" fill="white"/>
<path d="M30.504 20.2403C27.3583 22.0622 22.2586 22.0622 19.1129 20.2403C15.9676 18.4184 15.9676 15.4642 19.1129 13.6423C22.2586 11.8204 27.3583 11.8204 30.504 13.6423C33.6494 15.4642 33.6494 18.4184 30.504 20.2403Z" fill="#A7B2BA"/>
<path d="M32.8562 13.9083C32.787 12.7696 32.0042 11.643 30.5041 10.774C27.3584 8.95212 22.2584 8.95212 19.113 10.774C17.5404 11.6853 16.7538 12.8792 16.7538 14.0732V16.2725C16.7538 17.4665 17.5404 18.6604 19.113 19.5717C22.2584 21.3936 27.3584 21.3936 30.5041 19.5717C32.0764 18.6604 32.863 17.4665 32.863 16.2725V13.9083H32.8562Z" fill="white"/>
<path d="M30.504 17.372C27.3583 19.1943 22.2586 19.1943 19.1129 17.372C15.9676 15.5501 15.9676 12.5962 19.1129 10.774C22.2586 8.95212 27.3583 8.95212 30.504 10.774C33.6494 12.5962 33.6494 15.5501 30.504 17.372Z" fill="#A7B2BA"/>
<path d="M32.8562 11.0116C32.787 9.87318 32.0042 8.74659 30.5041 7.87728C27.3584 6.05539 22.2584 6.05539 19.113 7.87728C17.5404 8.78857 16.7538 9.98252 16.7538 11.1765V13.3758C16.7538 14.5698 17.5404 15.7637 19.113 16.675C22.2584 18.4969 27.3584 18.4969 30.5041 16.6746C32.0764 15.7637 32.863 14.5698 32.863 13.3758V11.0116H32.8562Z" fill="white"/>
<path d="M30.504 14.4754C27.3583 16.2977 22.2586 16.2977 19.1129 14.4754C15.9676 12.6535 15.9676 9.69964 19.1129 7.87741C22.2586 6.05551 27.3583 6.05551 30.504 7.87741C33.6494 9.6993 33.6494 12.6535 30.504 14.4754Z" fill="#A7B2BA"/>
<path d="M32.8562 8.14308C32.787 7.00465 32.0042 5.87806 30.5041 5.00875C27.3584 3.18686 22.2584 3.18686 19.113 5.00875C17.5404 5.92004 16.7538 7.11399 16.7538 8.30793V10.5073C16.7538 11.7012 17.5404 12.8955 19.113 13.8064C22.2584 15.6283 27.3584 15.6283 30.5041 13.8064C32.0764 12.8955 32.863 11.7012 32.863 10.5073V8.14308H32.8562Z" fill="white"/>
<path d="M30.504 11.6069C27.3583 13.4288 22.2586 13.4288 19.1129 11.6069C15.9676 9.78468 15.9676 6.83078 19.1129 5.00889C22.2586 3.18665 27.3583 3.18665 30.504 5.00889C33.6494 6.83078 33.6494 9.78468 30.504 11.6069Z" fill="#A7B2BA"/>
<path d="M32.8562 5.24626C32.787 4.10783 32.0042 2.98125 30.5041 2.11228C27.3584 0.290047 22.2584 0.290047 19.113 2.11228C17.5404 3.02323 16.7538 4.21717 16.7538 5.41112V7.61046C16.7538 8.80474 17.5404 9.99869 19.113 10.9096C22.2584 12.7315 27.3584 12.7315 30.5041 10.9096C32.0764 9.99869 32.863 8.80474 32.863 7.61046V5.24626H32.8562Z" fill="white"/>
<path d="M30.504 8.7103C27.3583 10.5322 22.2586 10.5322 19.1129 8.7103C15.9676 6.88806 15.9676 3.93417 19.1129 2.11228C22.2586 0.290047 27.3583 0.290047 30.504 2.11228C33.6494 3.93417 33.6494 6.88806 30.504 8.7103Z" fill="#A7B2BA"/>
<path d="M29.9077 8.3646C27.0913 9.99557 22.5258 9.99557 19.7094 8.3646C16.8933 6.73329 16.8933 4.0888 19.7094 2.45749C22.5258 0.826181 27.0913 0.826181 29.9077 2.45749C32.7237 4.0888 32.7237 6.73329 29.9077 8.3646Z" fill="white"/>
<path d="M19.8984 10.3629C19.8984 10.6787 19.6771 10.8067 19.4045 10.6489C19.1318 10.4909 18.9108 10.1066 18.9108 9.7908C18.9108 9.47463 19.1318 9.34668 19.4045 9.50477C19.6771 9.66285 19.8984 10.0467 19.8984 10.3629Z" fill="white"/>
<path d="M18.4429 15.0079C18.4429 15.2679 18.2607 15.3735 18.036 15.2435C17.8113 15.1131 17.6294 14.797 17.6294 14.5367C17.6294 14.2763 17.8113 14.1711 18.036 14.3011C18.2607 14.4314 18.4426 14.7476 18.4429 15.0079Z" fill="#C5BFF0"/>
<path d="M29.8801 10.1325C29.8801 10.4484 30.1011 10.5763 30.3737 10.4186C30.6467 10.2605 30.8677 9.87629 30.8677 9.56046C30.8677 9.24428 30.6467 9.11633 30.3737 9.27442C30.1011 9.43251 29.8801 9.81638 29.8801 10.1325Z" fill="white"/>
<path d="M31.1154 9.28062C31.1154 9.51555 31.2797 9.61101 31.4825 9.49355C31.6856 9.37608 31.85 9.09004 31.85 8.85511C31.85 8.62018 31.6856 8.52472 31.4825 8.64218C31.2797 8.75999 31.1154 9.04569 31.1154 9.28062Z" fill="white"/>
<path d="M29.8801 15.9705C29.8801 16.2867 30.1011 16.4146 30.3737 16.2565C30.6467 16.0988 30.8677 15.7146 30.8677 15.3984C30.8677 15.0826 30.6467 14.9546 30.3737 15.1123C30.1011 15.2704 29.8801 15.6546 29.8801 15.9705Z" fill="white"/>
<path d="M31.1154 15.1188C31.1154 15.3538 31.2797 15.4492 31.4825 15.3314C31.6856 15.2139 31.85 14.9282 31.85 14.6933C31.85 14.458 31.6856 14.3629 31.4825 14.4804C31.2797 14.5978 31.1154 14.8836 31.1154 15.1188Z" fill="white"/>
<path d="M28.5791 10.66C28.5794 10.8682 28.7438 10.9853 28.9459 10.922C29.1483 10.8583 29.312 10.6387 29.312 10.4308C29.3116 10.2226 29.1473 10.1055 28.9449 10.1688C28.7424 10.2321 28.5788 10.4521 28.5791 10.66Z" fill="white"/>
<path d="M24.8084 15.8417C23.5363 15.8417 22.2639 15.6684 21.1066 15.3214C20.785 15.1353 20.4841 14.9498 20.2023 14.7653V14.3357C21.5817 14.8939 23.1948 15.1728 24.8084 15.1728V15.8417Z" fill="#A7B2BA"/>
<path d="M24.8084 15.1733C23.1948 15.1733 21.5817 14.8941 20.2023 14.3358V12.1368C21.5817 12.6947 23.1948 12.9736 24.8084 12.9736V15.1733Z" fill="white"/>
<path d="M24.8084 12.9738C23.1948 12.9738 21.5817 12.6949 20.2023 12.1366V11.439C21.5813 11.9968 23.1952 12.2761 24.8084 12.2761V12.9738Z" fill="#A7B2BA"/>
<path d="M24.8084 12.2762C23.1952 12.2762 21.5813 11.997 20.2023 11.4391V9.23975C20.4223 9.32844 20.6484 9.41036 20.8792 9.48551C22.0962 9.87955 23.4523 10.0769 24.8084 10.0769V12.2762Z" fill="white"/>
<path d="M24.8084 10.0764C23.4523 10.0764 22.0959 9.87936 20.8792 9.48499C22.0963 9.87936 23.452 10.0764 24.8084 10.0764Z" fill="#C3BFE1"/>
<path d="M16.7538 16.9416C16.7538 16.9311 16.7538 16.9206 16.7542 16.9098C16.7542 16.9095 16.7542 16.9088 16.7542 16.9084C16.7538 16.9193 16.7538 16.9301 16.7538 16.9413V16.9416Z" fill="white"/>
<path d="M16.7538 16.9411C16.7538 16.9303 16.7538 16.9194 16.7542 16.9083C16.7555 16.8128 16.7636 16.7177 16.7748 16.6226C16.7626 16.7258 16.7545 16.8287 16.7542 16.9323L16.7538 16.9411Z" fill="white"/>
<path d="M16.7542 16.3034C16.7538 16.2933 16.7538 16.2829 16.7538 16.2724V16.1462V16.1459V16.2724C16.7538 16.2825 16.7538 16.2933 16.7542 16.3034Z" fill="url(#paint0_linear_0_1851)"/>
<path d="M16.7761 16.6019C16.764 16.5028 16.7555 16.4032 16.7542 16.3041C16.7538 16.2936 16.7538 16.2831 16.7538 16.2726C16.7538 16.3826 16.7626 16.4923 16.7761 16.6019ZM16.7538 16.2726V16.146V14.6345V14.5664V14.1243V14.0732C16.7538 14.0722 16.7538 14.0709 16.7538 14.0698C16.7538 14.06 16.7538 14.0502 16.7542 14.04C16.7542 14.0397 16.7542 14.039 16.7542 14.0387C16.7538 14.0502 16.7538 14.0621 16.7538 14.0732V16.2726Z" fill="white"/>
<path d="M16.7538 14.0728C16.7538 14.0617 16.7538 14.0501 16.7542 14.0386C16.7555 13.9408 16.764 13.843 16.7758 13.7455C16.7633 13.8487 16.7552 13.952 16.7545 14.0556L16.7538 14.0728Z" fill="white"/>
<path d="M16.7785 13.7241C16.765 13.6189 16.7555 13.5136 16.7542 13.4083C16.7538 13.3971 16.7538 13.3863 16.7538 13.3755C16.7538 13.4919 16.7636 13.608 16.7785 13.7241ZM16.7538 13.3755V11.1761C16.7538 11.1656 16.7538 11.1551 16.7542 11.1443C16.7542 11.144 16.7542 11.1433 16.7542 11.1429C16.7525 11.2709 16.7599 11.3995 16.7765 11.5272C16.769 11.5153 16.7613 11.5035 16.7538 11.4916V13.3755Z" fill="white"/>
<path d="M20.2024 14.7654C19.1723 14.091 18.4013 13.4326 17.8247 12.8345C18.1705 13.1821 18.5997 13.5091 19.1129 13.8067C19.4547 14.0044 19.8195 14.1811 20.2024 14.3358V14.7654ZM17.6337 12.6307C17.2656 12.2272 16.9872 11.8545 16.7767 11.5274C16.7601 11.3998 16.7524 11.2712 16.7541 11.1432C16.7558 11.0457 16.7639 10.9486 16.7757 10.8514C16.8533 11.4645 17.1394 12.0704 17.6337 12.6307Z" fill="#A7B2BA"/>
<path d="M20.2025 14.3356C19.8196 14.1809 19.4548 14.0042 19.113 13.8065C18.5998 13.5089 18.1703 13.1819 17.8248 12.8343C17.7583 12.7656 17.6946 12.6975 17.6335 12.6305C17.1392 12.0702 16.8534 11.4643 16.7758 10.8512C16.7761 10.8482 16.7765 10.8448 16.7768 10.8418C16.7643 10.7409 16.7555 10.6397 16.7542 10.5388C16.7538 10.5283 16.7538 10.5178 16.7538 10.5073V8.30797C16.7538 8.29714 16.7538 8.28596 16.7542 8.27479C16.7542 8.27479 16.7542 8.27411 16.7542 8.27344C16.7387 9.47889 17.5252 10.6874 19.113 11.6072C19.4548 11.8052 19.8196 11.9815 20.2025 12.1366V14.3356Z" fill="white"/>
<path d="M20.2024 12.1364C19.8195 11.9817 19.4547 11.805 19.1129 11.6073C17.525 10.6875 16.7389 9.47903 16.7541 8.27357C16.7557 8.17168 16.7645 8.06979 16.7773 7.9679C16.9187 9.04031 17.6975 10.0894 19.1129 10.9096C19.4547 11.1073 19.8195 11.2837 20.2024 11.4387V12.1364Z" fill="#A7B2BA"/>
<path d="M20.2025 11.4386C19.8196 11.2839 19.4548 11.1072 19.113 10.9095C17.6973 10.0893 16.9188 9.04019 16.7775 7.96778C16.7778 7.96507 16.7781 7.96202 16.7785 7.95931C16.765 7.85404 16.7555 7.74875 16.7542 7.64313C16.7538 7.6323 16.7538 7.62113 16.7538 7.6103V5.42822C16.7616 6.61641 17.5478 7.80359 19.113 8.71014C19.1191 8.71352 19.1252 8.71691 19.1309 8.72029C19.1316 8.72063 19.1323 8.72131 19.1323 8.72131C19.1346 8.72266 19.137 8.72368 19.1394 8.72504C19.1404 8.72605 19.1417 8.72672 19.1434 8.7274C19.1444 8.72808 19.1454 8.72876 19.1461 8.7291C19.4785 8.91934 19.8321 9.08927 20.2025 9.23924V11.4386ZM19.1842 9.43693C19.0223 9.43693 18.9109 9.56625 18.9109 9.79035C18.9109 10.1065 19.1319 10.4907 19.4046 10.6485C19.4839 10.6945 19.5588 10.7162 19.6252 10.7162C19.7872 10.7162 19.8985 10.5865 19.8985 10.3624C19.8985 10.0466 19.6772 9.66239 19.4046 9.5043C19.3253 9.4586 19.2504 9.43693 19.1842 9.43693Z" fill="white"/>
<path d="M19.6251 10.7162C19.5587 10.7162 19.4838 10.6946 19.4045 10.6485C19.1318 10.4908 18.9108 10.1062 18.9108 9.7904C18.9108 9.5663 19.0222 9.43665 19.1841 9.43665C19.2503 9.43665 19.3252 9.45865 19.4045 9.50435C19.6771 9.66244 19.8984 10.0467 19.8984 10.3625C19.8984 10.5866 19.7871 10.7162 19.6251 10.7162Z" fill="white"/>
<path d="M20.1685 22.9553C19.8007 22.805 19.4501 22.6347 19.1208 22.4445C19.4501 22.6347 19.801 22.805 20.1685 22.9553Z" fill="white"/>
<path d="M19.121 22.4449L19.1206 22.4446C19.1183 22.4432 19.1156 22.4415 19.1129 22.4402C19.1156 22.4419 19.1183 22.4432 19.121 22.4449Z" fill="#736CAC"/>
<path d="M20.2025 15.0047C19.8196 14.8497 19.4548 14.6733 19.113 14.4756C17.6945 13.6537 16.9158 12.6023 16.7764 11.5275C16.987 11.8545 17.2653 12.2272 17.6335 12.6307C17.6942 12.6991 17.758 12.7671 17.8248 12.8345C18.4011 13.4326 19.1724 14.0911 20.2025 14.7657V15.0047Z" fill="#A7B2BA"/>
<path d="M17.8249 12.8335C17.7581 12.7664 17.6944 12.6985 17.634 12.6304C17.695 12.6972 17.7588 12.765 17.8249 12.8335Z" fill="white"/>
<path d="M18.2175 15.2992C18.1628 15.2992 18.1014 15.2812 18.036 15.2437C17.8113 15.1133 17.6294 14.7972 17.6294 14.5369C17.6294 14.3524 17.7208 14.2457 17.8544 14.2457C17.9091 14.2457 17.9709 14.2633 18.036 14.3012C18.2607 14.4312 18.4426 14.7478 18.4429 15.0081C18.4429 15.1926 18.3511 15.2992 18.2175 15.2992Z" fill="white"/>
<path d="M16.1024 24.534C16.0335 23.3955 15.2504 22.269 13.7503 21.4C10.6046 19.5781 5.50456 19.5781 2.35919 21.4C0.786511 22.3109 0 23.5049 0 24.6988V26.8982C0 28.0925 0.786511 29.2864 2.35919 30.1973C5.50456 32.0192 10.6046 32.0192 13.7503 30.1973C15.3229 29.2864 16.1091 28.0925 16.1091 26.8982V24.534H16.1024Z" fill="white"/>
<path d="M13.7504 27.9983C10.6047 29.8202 5.50503 29.8202 2.35933 27.9983C-0.786036 26.176 -0.786036 23.2221 2.35933 21.4002C5.50503 19.578 10.605 19.578 13.7504 21.4002C16.8958 23.2221 16.8958 26.176 13.7504 27.9983Z" fill="#A7B2BA"/>
<path d="M16.1024 21.6658C16.0335 20.5274 15.2504 19.4008 13.7503 18.5318C10.6046 16.7099 5.50456 16.7099 2.35919 18.5318C0.786511 19.4428 0 20.6367 0 21.831V24.03C0 25.2243 0.786511 26.4182 2.35919 27.3292C5.50456 29.1511 10.6046 29.1511 13.7503 27.3292C15.3229 26.4182 16.1091 25.2243 16.1091 24.03V21.6658H16.1024Z" fill="white"/>
<path d="M13.7504 25.1301C10.6047 26.952 5.50503 26.952 2.35933 25.1301C-0.786036 23.3082 -0.786036 20.354 2.35933 18.5321C5.50503 16.7098 10.605 16.7098 13.7504 18.5321C16.8958 20.354 16.8958 23.3079 13.7504 25.1301Z" fill="#A7B2BA"/>
<path d="M16.1024 18.7688C16.0335 17.6304 15.2504 16.5038 13.7503 15.6349C10.6046 13.813 5.50456 13.813 2.35919 15.6349C0.786511 16.5458 0 17.7397 0 18.9337V21.133C0 22.3273 0.786511 23.5213 2.35919 24.4322C5.50456 26.2541 10.6046 26.2541 13.7503 24.4322C15.3229 23.5213 16.1091 22.3273 16.1091 21.133V18.7688H16.1024Z" fill="white"/>
<path d="M13.7504 22.2329C10.6047 24.0551 5.50503 24.0551 2.35933 22.2329C-0.786036 20.411 -0.786036 17.4567 2.35933 15.6349C5.50503 13.813 10.605 13.813 13.7504 15.6349C16.8958 17.4567 16.8958 20.411 13.7504 22.2329Z" fill="#A7B2BA"/>
<path d="M16.1024 15.9005C16.0335 14.7621 15.2504 13.6355 13.7503 12.7666C10.6046 10.9447 5.50456 10.9447 2.35919 12.7666C0.786511 13.6779 0 14.8715 0 16.0654V18.2651C0 19.459 0.786511 20.653 2.35919 21.5639C5.50456 23.3862 10.6046 23.3862 13.7503 21.5639C15.3229 20.653 16.1091 19.459 16.1091 18.2651V15.9005H16.1024Z" fill="white"/>
<path d="M13.7504 19.3646C10.6047 21.1868 5.50503 21.1868 2.35933 19.3646C-0.786036 17.5427 -0.786036 14.5888 2.35933 12.7666C5.50503 10.9447 10.605 10.9447 13.7504 12.7666C16.8958 14.5888 16.8958 17.5427 13.7504 19.3646Z" fill="#A7B2BA"/>
<path d="M16.1024 13.0039C16.0335 11.8655 15.2504 10.7386 13.7503 9.86959C10.6046 8.0477 5.50456 8.0477 2.35919 9.86959C0.786511 10.7805 0 11.9748 0 13.1688V15.3681C0 16.5621 0.786511 17.756 2.35919 18.667C5.50456 20.4892 10.6046 20.4892 13.7503 18.667C15.3229 17.756 16.1091 16.5621 16.1091 15.3681V13.0036L16.1024 13.0039Z" fill="white"/>
<path d="M13.7504 16.4676C10.6047 18.2895 5.50503 18.2895 2.35933 16.4676C-0.786036 14.6457 -0.786036 11.6915 2.35933 9.86959C5.50503 8.0477 10.605 8.0477 13.7504 9.86959C16.8958 11.6915 16.8958 14.6457 13.7504 16.4676Z" fill="#A7B2BA"/>
<path d="M13.1538 16.1224C10.3378 17.7534 5.7719 17.7534 2.95585 16.1224C0.139799 14.4911 0.139799 11.8463 2.95585 10.2153C5.7719 8.58399 10.3378 8.58399 13.1538 10.2153C15.9702 11.8463 15.9702 14.4911 13.1538 16.1224Z" fill="white"/>
<path d="M3.14483 18.1205C3.14483 18.4364 2.92383 18.5647 2.65086 18.4066C2.37823 18.2488 2.15723 17.8643 2.15723 17.5484C2.15723 17.2326 2.37823 17.1043 2.65086 17.2624C2.92383 17.4205 3.14483 17.8047 3.14483 18.1205Z" fill="white"/>
<path d="M1.68966 22.7652C1.68966 23.0256 1.50745 23.1312 1.28274 23.0009C1.05836 22.8709 0.87616 22.5544 0.87616 22.2944C0.87616 22.0341 1.05836 21.9284 1.28274 22.0588C1.50745 22.1888 1.68966 22.5053 1.68966 22.7652Z" fill="#C5BFF0"/>
<path d="M13.1265 17.8897C13.1265 18.2059 13.3475 18.3338 13.6205 18.1757C13.8931 18.018 14.1141 17.6334 14.1141 17.3176C14.1141 17.0018 13.8931 16.8735 13.6205 17.0316C13.3475 17.1896 13.1265 17.5739 13.1265 17.8897Z" fill="white"/>
<path d="M14.3613 17.0387C14.3613 17.2736 14.5256 17.3691 14.7284 17.2512C14.9316 17.1338 15.0959 16.8481 15.0959 16.6128C15.0959 16.3779 14.9316 16.2824 14.7284 16.4002C14.5256 16.5177 14.3613 16.8034 14.3613 17.0387Z" fill="white"/>
<path d="M13.1265 23.7279C13.1265 24.0437 13.3475 24.172 13.6205 24.0139C13.8931 23.8559 14.1141 23.4716 14.1141 23.1558C14.1141 22.8396 13.8931 22.7117 13.6205 22.8698C13.3475 23.0275 13.1265 23.4117 13.1265 23.7279Z" fill="white"/>
<path d="M14.3613 22.877C14.3613 23.1116 14.5256 23.2071 14.7284 23.0896C14.9316 22.9722 15.0959 22.6861 15.0959 22.4512C15.0959 22.2162 14.9316 22.1208 14.7284 22.2383C14.5256 22.3561 14.3613 22.6418 14.3613 22.877Z" fill="white"/>
<path d="M11.8259 18.4179C11.8262 18.6258 11.9905 18.7429 12.1926 18.6796C12.3951 18.6163 12.5591 18.3962 12.5587 18.1884C12.5584 17.9805 12.3941 17.8631 12.1916 17.9267C11.9895 17.99 11.8255 18.2097 11.8259 18.4179Z" fill="white"/>
<path d="M8.05499 31.564C6.43237 31.564 4.80975 31.2817 3.42568 30.7174C4.80941 31.2817 6.43237 31.5637 8.05465 31.564H8.05499Z" fill="url(#paint1_linear_0_1851)"/>
<path d="M8.05481 23.5996C6.78276 23.5996 5.51038 23.4262 4.35306 23.0789C4.0315 22.8931 3.73053 22.7076 3.44879 22.5231V22.0935C4.82814 22.6517 6.44164 22.9307 8.05481 22.9307V23.5996Z" fill="#A7B2BA"/>
<path d="M8.05481 22.9305C6.44164 22.9305 4.82814 22.6516 3.44879 22.0934V19.894C4.82814 20.4523 6.44164 20.7312 8.05481 20.7312V22.9305Z" fill="white"/>
<path d="M8.05481 20.7314C6.44164 20.7314 4.82814 20.4524 3.44879 19.8942V19.1965C4.8278 19.7547 6.44164 20.0337 8.05481 20.0337V20.7314Z" fill="#A7B2BA"/>
<path d="M8.05481 20.0334C6.44164 20.0334 4.8278 19.7542 3.44879 19.1963V16.9969C3.66878 17.086 3.89485 17.1679 4.12564 17.2427C5.34269 17.6371 6.69875 17.8341 8.05481 17.8341V20.0334Z" fill="white"/>
<path d="M2.37741 16.4781C2.37134 16.4747 2.36527 16.4713 2.35919 16.4676C2.36527 16.4713 2.371 16.4747 2.37741 16.4781Z" fill="white"/>
<path d="M8.05484 17.8342C6.69878 17.8342 5.34238 17.6368 4.12567 17.2428C5.34272 17.6372 6.69878 17.8342 8.05484 17.8342Z" fill="#C3BFE1"/>
<path d="M0 24.6992C0 24.6887 2.38889e-06 24.6782 0.000339802 24.6677C0.000339802 24.667 0.000339802 24.6667 0.000339802 24.666C2.38889e-06 24.6772 0 24.688 0 24.6992Z" fill="white"/>
<path d="M0 24.6989C0 24.6877 2.38889e-06 24.6769 0.000339802 24.6657C0.00168945 24.5706 0.00978378 24.4755 0.0209184 24.38C0.00877154 24.4833 0.000677215 24.5865 0.000339802 24.6897L0 24.6989Z" fill="white"/>
<path d="M0 21.8276C0 21.8175 2.38889e-06 21.8077 0.000339802 21.7979C2.38889e-06 21.8077 0 21.8178 0 21.8276Z" fill="url(#paint2_linear_0_1851)"/>
<path d="M0.0222673 24.3595C0.0101205 24.2603 0.00168945 24.1611 0.000339802 24.0616C2.38889e-06 24.0511 0 24.0406 0 24.0301C0 24.1402 0.00910821 24.2498 0.0222673 24.3595ZM0 24.0301V23.9035V22.3924V22.324V21.8819V21.8311C0 21.8298 0 21.8288 0 21.8277C0 21.8179 2.38889e-06 21.8078 0.000339802 21.7979C0.000339802 21.7973 0.000339802 21.7969 0.000339802 21.7963C2.38889e-06 21.8078 0 21.8193 0 21.8308V21.8311V24.0301Z" fill="white"/>
<path d="M0 21.8304C0 21.8189 2.38889e-06 21.8073 0.000339802 21.7958C0.00168945 21.698 0.0101232 21.6005 0.0219327 21.5027C0.00944839 21.6059 0.00134928 21.7095 0.000674455 21.8128L0 21.8304Z" fill="white"/>
<path d="M3.44891 16.9973C3.07843 16.8474 2.72482 16.6774 2.39281 16.4872C2.39281 16.4872 2.39314 16.4872 2.39314 16.4875C2.72516 16.6774 3.07843 16.8474 3.44891 16.9973ZM2.38977 16.4855C2.38808 16.4848 2.38707 16.4838 2.38572 16.4831C2.38674 16.4838 2.38808 16.4845 2.3891 16.4852C2.38943 16.4852 2.38943 16.4852 2.38977 16.4855ZM2.37863 16.4791C2.3783 16.4791 2.37796 16.4787 2.37762 16.4784C2.37796 16.4784 2.37863 16.4787 2.37863 16.4791Z" fill="white"/>
<path d="M3.44891 16.9973C3.07843 16.8474 2.72516 16.6774 2.39314 16.4875C2.72482 16.6771 3.07911 16.8457 3.44891 16.9957V16.9973ZM2.3783 16.4791C2.3783 16.4787 2.37796 16.4784 2.37762 16.4784C2.37796 16.4787 2.3783 16.4787 2.3783 16.4791Z" fill="#B8B5D5"/>
<path d="M0.0246305 21.482C0.011134 21.3768 0.00168945 21.2715 0.000339802 21.1659C2.38889e-06 21.155 0 21.1442 0 21.133C0 21.2495 0.00978432 21.3659 0.0246305 21.482ZM0 21.133V18.9337C0 18.9232 2.38889e-06 18.9127 0.000339802 18.9022C0.000339802 18.9015 0.000339802 18.9012 0.000339802 18.9005C-0.00134726 19.0288 0.0064113 19.1571 0.0226071 19.2847C0.015184 19.2729 0.00742309 19.261 0 19.2495V21.133Z" fill="white"/>
<path d="M3.44882 22.5229C2.41904 21.8486 1.64771 21.1902 1.07107 20.5917C1.41692 20.9393 1.84611 21.2667 2.35931 21.5639C2.70111 21.7619 3.0662 21.9383 3.44882 22.0933V22.5229ZM0.880095 20.3879C0.511977 19.9844 0.233614 19.612 0.0230679 19.2847C0.00653463 19.157 -0.000888908 19.0287 0.000460744 18.9004C0.00214781 18.8033 0.0102442 18.7058 0.0220536 18.6086C0.0996586 19.2217 0.385785 19.8276 0.880095 20.3879Z" fill="#A7B2BA"/>
<path d="M3.4487 22.0935C3.06574 21.9384 2.70099 21.7621 2.35919 21.5641C1.84599 21.2668 1.4168 20.9395 1.07095 20.5918C1.00481 20.5231 0.941043 20.4551 0.879634 20.388C0.385661 19.8278 0.0995377 19.2219 0.0219327 18.6088C0.0222701 18.6058 0.0226095 18.6027 0.0229469 18.5997C0.0104626 18.4984 0.00168945 18.3976 0.000339802 18.2964C2.38889e-06 18.2859 0 18.2754 0 18.2652V16.0655C0 16.0547 2.38889e-06 16.0435 0.000339802 16.0327C0.000339802 16.0327 0.000339802 16.0317 0.000339802 16.031C-0.0151812 17.2368 0.771328 18.445 2.35919 19.3647C2.70099 19.5627 3.06574 19.7391 3.4487 19.8941V22.0935Z" fill="white"/>
<path d="M3.44888 19.8942C3.06626 19.7392 2.70117 19.5628 2.35937 19.3648C0.771509 18.445 -0.0146626 17.2368 0.000520942 16.0314C0.00220801 15.9295 0.0109808 15.8276 0.0238025 15.7257C0.165179 16.7981 0.943927 17.8472 2.35937 18.6671C2.70117 18.8651 3.06626 19.0415 3.44888 19.1965V19.8942Z" fill="#A7B2BA"/>
<path d="M3.4487 19.1965C3.06574 19.0414 2.70099 18.8651 2.35919 18.667C0.943408 17.8472 0.164997 16.7978 0.0236214 15.7257C0.0239588 15.7226 0.0242931 15.7199 0.0246305 15.7169C0.011134 15.6116 0.00168945 15.5063 0.000339802 15.401C2.38889e-06 15.3899 0 15.379 0 15.3682V13.1858C0.0077605 14.3743 0.793934 15.5612 2.35919 16.4677C2.36527 16.4714 2.37134 16.4748 2.37741 16.4782L2.37842 16.4789C2.38078 16.4802 2.38315 16.4816 2.38551 16.4829C2.38686 16.4836 2.38787 16.4843 2.38956 16.4853C2.39057 16.4856 2.39158 16.4863 2.3926 16.487C2.72461 16.6772 3.07822 16.8472 3.4487 16.9971V19.1965ZM2.43039 17.1945C2.26843 17.1945 2.15708 17.3241 2.15708 17.5482C2.15708 17.8641 2.37809 18.2483 2.65072 18.4064C2.73001 18.4521 2.80491 18.4741 2.87138 18.4741C3.03334 18.4741 3.14469 18.3444 3.14469 18.1203C3.14469 17.8045 2.92368 17.4203 2.65072 17.2622C2.57143 17.2162 2.49652 17.1945 2.43039 17.1945Z" fill="white"/>
<path d="M2.87153 18.4743C2.80506 18.4743 2.73015 18.4523 2.65086 18.4066C2.37823 18.2485 2.15723 17.8643 2.15723 17.5485C2.15723 17.3244 2.26857 17.1947 2.43053 17.1947C2.49666 17.1947 2.57157 17.2164 2.65086 17.2624C2.92383 17.4205 3.14483 17.8047 3.14483 18.1205C3.14483 18.3446 3.03348 18.4743 2.87153 18.4743Z" fill="white"/>
<path d="M3.41491 30.7131C3.04713 30.5628 2.69656 30.3925 2.36725 30.2023C2.69656 30.3925 3.04747 30.5628 3.41491 30.7131Z" fill="white"/>
<path d="M0.0234985 21.491C0.0241734 21.4879 0.0241702 21.4852 0.0245076 21.4822V21.4825C0.0241702 21.4852 0.0241734 21.4879 0.0234985 21.491Z" fill="white"/>
<path d="M3.44898 22.7625C3.06602 22.6075 2.70127 22.4311 2.35947 22.2331C0.94099 21.4115 0.16224 20.3597 0.0228882 19.2853C0.233434 19.6123 0.512137 19.9847 0.880255 20.3882C0.940652 20.4569 1.00442 20.5249 1.07123 20.5919C1.64787 21.1904 2.41886 21.8489 3.44898 22.5232V22.7625Z" fill="#A7B2BA"/>
<path d="M1.07086 20.5913C1.00405 20.5245 0.94028 20.4567 0.879883 20.3882C0.940955 20.455 1.00472 20.5228 1.07086 20.5913Z" fill="white"/>
<path d="M1.4646 23.0567C1.40994 23.0567 1.3482 23.0388 1.28274 23.0009C1.05836 22.8709 0.87616 22.5544 0.87616 22.2944C0.87616 22.1096 0.967596 22.0029 1.10121 22.0029C1.15587 22.0029 1.21762 22.0209 1.28274 22.0588C1.50745 22.1888 1.68966 22.5053 1.68966 22.7653C1.68966 22.9498 1.59788 23.0567 1.4646 23.0567Z" fill="white"/>
<path d="M49.993 24.9009C49.9242 23.7625 49.141 22.6359 47.6409 21.7669C44.4952 19.945 39.3952 19.945 36.2498 21.7669C34.6771 22.6779 33.8906 23.8718 33.8906 25.0658V27.2651C33.8906 28.4594 34.6771 29.6533 36.2498 30.5643C39.3952 32.3862 44.4952 32.3862 47.6409 30.5643C49.2136 29.6533 49.9997 28.4594 49.9997 27.2651V24.9009H49.993Z" fill="white"/>
<path d="M47.6408 28.3648C44.4951 30.1867 39.3954 30.1867 36.2497 28.3648C33.1043 26.5426 33.1043 23.5887 36.2497 21.7668C39.3954 19.9446 44.4954 19.9446 47.6408 21.7668C50.7861 23.5887 50.7861 26.5426 47.6408 28.3648Z" fill="#A7B2BA"/>
<path d="M49.993 22.0326C49.9242 20.8942 49.141 19.7676 47.6409 18.8986C44.4952 17.0768 39.3952 17.0768 36.2498 18.8986C34.6771 19.8096 33.8906 21.0035 33.8906 22.1978V24.3968C33.8906 25.5911 34.6771 26.7851 36.2498 27.696C39.3952 29.5179 44.4952 29.5179 47.6409 27.696C49.2136 26.7851 49.9997 25.5911 49.9997 24.3968V22.0326H49.993Z" fill="white"/>
<path d="M47.6408 25.4969C44.4951 27.3188 39.3954 27.3188 36.2497 25.4969C33.1043 23.675 33.1043 20.7208 36.2497 18.8989C39.3954 17.0767 44.4954 17.0767 47.6408 18.8989C50.7861 20.7208 50.7861 23.6747 47.6408 25.4969Z" fill="#A7B2BA"/>
<path d="M49.993 19.1355C49.9242 17.9971 49.141 16.8705 47.6409 16.0016C44.4952 14.1797 39.3952 14.1797 36.2498 16.0016C34.6771 16.9125 33.8906 18.1064 33.8906 19.3004V21.4997C33.8906 22.694 34.6771 23.888 36.2498 24.7989C39.3952 26.6208 44.4952 26.6208 47.6409 24.7989C49.2136 23.888 49.9997 22.694 49.9997 21.4997V19.1355H49.993Z" fill="white"/>
<path d="M47.6408 22.5996C44.4951 24.4218 39.3954 24.4218 36.2497 22.5996C33.1043 20.7777 33.1043 17.8234 36.2497 16.0016C39.3954 14.1797 44.4954 14.1797 47.6408 16.0016C50.7861 17.8234 50.7861 20.7777 47.6408 22.5996Z" fill="#A7B2BA"/>
<path d="M49.993 16.2672C49.9242 15.1288 49.141 14.0022 47.6409 13.1333C44.4952 11.3114 39.3952 11.3114 36.2498 13.1333C34.6771 14.0446 33.8906 15.2382 33.8906 16.4321V18.6318C33.8906 19.8257 34.6771 21.0197 36.2498 21.9306C39.3952 23.7529 44.4952 23.7529 47.6409 21.9306C49.2136 21.0197 49.9997 19.8257 49.9997 18.6318V16.2672H49.993Z" fill="white"/>
<path d="M47.6408 19.7314C44.4951 21.5536 39.3954 21.5536 36.2497 19.7314C33.1043 17.9095 33.1043 14.9556 36.2497 13.1334C39.3954 11.3115 44.4954 11.3115 47.6408 13.1334C50.7861 14.9556 50.7861 17.9095 47.6408 19.7314Z" fill="#A7B2BA"/>
<path d="M49.993 13.3705C49.9242 12.2321 49.141 11.1051 47.6409 10.2362C44.4952 8.41428 39.3952 8.41428 36.2498 10.2362C34.6771 11.1471 33.8906 12.3414 33.8906 13.5353V15.7347C33.8906 16.9286 34.6771 18.1226 36.2498 19.0335C39.3952 20.8558 44.4952 20.8558 47.6409 19.0335C49.2136 18.1226 49.9997 16.9286 49.9997 15.7347V13.3702L49.993 13.3705Z" fill="white"/>
<path d="M47.6408 16.8343C44.4951 18.6562 39.3954 18.6562 36.2497 16.8343C33.1043 15.0124 33.1043 12.0582 36.2497 10.2363C39.3954 8.4144 44.4954 8.4144 47.6408 10.2363C50.7861 12.0582 50.7861 15.0124 47.6408 16.8343Z" fill="#A7B2BA"/>
<path d="M47.0442 16.4891C44.2282 18.1201 39.6623 18.1201 36.8462 16.4891C34.0302 14.8578 34.0302 12.213 36.8462 10.582C39.6623 8.95069 44.2282 8.95069 47.0442 10.582C49.8606 12.213 49.8606 14.8578 47.0442 16.4891Z" fill="white"/>
<path d="M37.0353 18.4871C37.0353 18.8029 36.8143 18.9312 36.5413 18.7732C36.2687 18.6154 36.0477 18.2309 36.0477 17.915C36.0477 17.5992 36.2687 17.4709 36.5413 17.629C36.8143 17.7871 37.0353 18.1713 37.0353 18.4871Z" fill="white"/>
<path d="M35.5801 23.1321C35.5801 23.3924 35.3979 23.498 35.1732 23.3677C34.9488 23.2377 34.7666 22.9212 34.7666 22.6612C34.7666 22.4009 34.9488 22.2953 35.1732 22.4256C35.3979 22.5556 35.5801 22.8721 35.5801 23.1321Z" fill="#C5BFF0"/>
<path d="M47.0169 18.2565C47.0169 18.5727 47.2379 18.7007 47.5109 18.5426C47.7835 18.3848 48.0045 18.0003 48.0045 17.6844C48.0045 17.3686 47.7835 17.2403 47.5109 17.3984C47.2379 17.5565 47.0169 17.9407 47.0169 18.2565Z" fill="white"/>
<path d="M47.0169 24.0947C47.0169 24.4106 47.2379 24.5388 47.5109 24.3808C47.7835 24.2227 48.0045 23.8385 48.0045 23.5226C48.0045 23.2064 47.7835 23.0785 47.5109 23.2366C47.2379 23.3943 47.0169 23.7785 47.0169 24.0947Z" fill="white"/>
<path d="M45.7168 18.7849C45.7171 18.9927 45.8815 19.1098 46.0836 19.0465C46.286 18.9832 46.45 18.7632 46.4497 18.5553C46.4493 18.3475 46.285 18.23 46.0826 18.2937C45.8804 18.357 45.7165 18.5767 45.7168 18.7849Z" fill="white"/>
<path d="M41.9454 31.9309C40.3228 31.9309 38.7002 31.6485 37.3161 31.0842C38.6999 31.6485 40.3228 31.9305 41.9451 31.9309H41.9454Z" fill="url(#paint3_linear_0_1851)"/>
<path d="M41.9458 23.9664C40.6738 23.9664 39.4014 23.7931 38.244 23.4458C37.9225 23.2599 37.6215 23.0744 37.3398 22.8899V22.4603C38.7191 23.0185 40.3326 23.2975 41.9458 23.2975V23.9664Z" fill="#A7B2BA"/>
<path d="M41.9458 23.2972C40.3326 23.2972 38.7191 23.0183 37.3398 22.4601V20.2607C38.7191 20.819 40.3326 21.0979 41.9458 21.0979V23.2972Z" fill="white"/>
<path d="M41.9458 21.0982C40.3326 21.0982 38.7191 20.8193 37.3398 20.261V19.5634C38.7188 20.1216 40.3326 20.4005 41.9458 20.4005V21.0982Z" fill="#A7B2BA"/>
<path d="M41.9458 20.4003C40.3326 20.4003 38.7188 20.121 37.3398 19.5631V17.3638C37.5598 17.4528 37.7858 17.5347 38.0166 17.6095C39.2337 18.0039 40.5897 18.2009 41.9458 18.2009V20.4003Z" fill="white"/>
<path d="M36.268 16.845C36.262 16.8417 36.2559 16.8383 36.2498 16.8346C36.2559 16.8383 36.2616 16.8417 36.268 16.845Z" fill="white"/>
<path d="M41.9458 18.201C40.5897 18.201 39.2333 18.0037 38.0166 17.6096C39.2337 18.004 40.5897 18.201 41.9458 18.201Z" fill="#C3BFE1"/>
<path d="M33.8906 25.0659C33.8906 25.0554 33.8906 25.0449 33.891 25.0344C33.891 25.0337 33.891 25.0334 33.891 25.0327C33.8906 25.0439 33.8906 25.0547 33.8906 25.0659Z" fill="white"/>
<path d="M33.8906 25.0656C33.8906 25.0544 33.8906 25.0436 33.891 25.0324C33.8923 24.9373 33.9004 24.8422 33.9115 24.7467C33.8994 24.85 33.8913 24.9532 33.891 25.0564L33.8906 25.0656Z" fill="white"/>
<path d="M33.8906 22.1943C33.8906 22.1842 33.8906 22.1744 33.891 22.1646C33.8906 22.1744 33.8906 22.1845 33.8906 22.1943Z" fill="url(#paint4_linear_0_1851)"/>
<path d="M33.9129 24.7263C33.9007 24.6271 33.8923 24.528 33.891 24.4284C33.8906 24.4179 33.8906 24.4074 33.8906 24.397C33.8906 24.507 33.8997 24.6166 33.9129 24.7263ZM33.8906 24.397V24.2703V22.7592V22.6908V22.2487V22.198C33.8906 22.1966 33.8906 22.1956 33.8906 22.1946C33.8906 22.1847 33.8906 22.1746 33.891 22.1648C33.891 22.1641 33.891 22.1638 33.891 22.1631C33.8906 22.1746 33.8906 22.1861 33.8906 22.1976V22.198V24.397Z" fill="white"/>
<path d="M33.8906 22.1973C33.8906 22.1858 33.8906 22.1743 33.891 22.1628C33.8923 22.065 33.9007 21.9675 33.9126 21.8696C33.9001 21.9729 33.892 22.0765 33.8913 22.1797L33.8906 22.1973Z" fill="white"/>
<path d="M37.3393 17.364C36.9688 17.2141 36.6152 17.0441 36.2832 16.8539C36.2832 16.8539 36.2835 16.8539 36.2835 16.8542C36.6155 17.0441 36.9688 17.2141 37.3393 17.364ZM36.2802 16.8522C36.2785 16.8515 36.2775 16.8505 36.2761 16.8498C36.2771 16.8505 36.2785 16.8512 36.2795 16.8519C36.2798 16.8519 36.2798 16.8519 36.2802 16.8522ZM36.269 16.8458C36.2687 16.8458 36.2683 16.8454 36.268 16.8451C36.2683 16.8451 36.269 16.8454 36.269 16.8458Z" fill="white"/>
<path d="M37.3393 17.364C36.9688 17.2141 36.6155 17.0441 36.2835 16.8542C36.6152 17.0438 36.9695 17.2124 37.3393 17.3624V17.364ZM36.2687 16.8458C36.2687 16.8454 36.2683 16.8451 36.268 16.8451C36.2683 16.8454 36.2687 16.8454 36.2687 16.8458Z" fill="#B8B5D5"/>
<path d="M33.9153 21.8489C33.9018 21.7436 33.8923 21.6383 33.891 21.5327C33.8906 21.5219 33.8906 21.511 33.8906 21.4998C33.8906 21.6163 33.9004 21.7327 33.9153 21.8489ZM33.8906 21.4998V19.3005C33.8906 19.29 33.8906 19.2795 33.891 19.269C33.891 19.2684 33.891 19.268 33.891 19.2673C33.8893 19.3956 33.897 19.5239 33.9132 19.6516C33.9058 19.6397 33.898 19.6279 33.8906 19.6163V21.4998Z" fill="white"/>
<path d="M37.3392 22.8897C36.3094 22.2154 35.5381 21.557 34.9614 20.9585C35.3073 21.3061 35.7365 21.6335 36.2497 21.9307C36.5915 22.1287 36.9566 22.3051 37.3392 22.4602V22.8897ZM34.7705 20.7547C34.4024 20.3512 34.124 19.9788 33.9134 19.6515C33.8969 19.5239 33.8895 19.3956 33.8908 19.2673C33.8925 19.1701 33.9006 19.0726 33.9124 18.9755C33.99 19.5885 34.2762 20.1945 34.7705 20.7547Z" fill="#A7B2BA"/>
<path d="M37.3393 22.4602C36.9564 22.3051 36.5916 22.1288 36.2498 21.9308C35.7366 21.6335 35.3074 21.3062 34.9616 20.9585C34.8954 20.8898 34.8317 20.8218 34.7703 20.7547C34.2763 20.1945 33.9902 19.5886 33.9126 18.9755C33.9129 18.9725 33.9132 18.9694 33.9136 18.9664C33.9011 18.8651 33.8923 18.7643 33.891 18.6631C33.8906 18.6526 33.8906 18.6421 33.8906 18.6319V16.4322C33.8906 16.4214 33.8906 16.4102 33.891 16.3994C33.891 16.3994 33.891 16.3984 33.891 16.3977C33.8754 17.6035 34.662 18.8117 36.2498 19.7314C36.5916 19.9294 36.9564 20.1058 37.3393 20.2608V22.4602Z" fill="white"/>
<path d="M37.3393 20.261C36.9566 20.106 36.5916 19.9296 36.2498 19.7316C34.6619 18.8118 33.8757 17.6037 33.8909 16.3982C33.8926 16.2963 33.9014 16.1944 33.9142 16.0925C34.0556 17.1649 34.8343 18.214 36.2498 19.0339C36.5916 19.2319 36.9566 19.4083 37.3393 19.5633V20.261Z" fill="#A7B2BA"/>
<path d="M37.3393 19.5632C36.9564 19.4081 36.5916 19.2318 36.2498 19.0337C34.834 18.2139 34.0556 17.1645 33.9142 16.0924C33.9146 16.0893 33.9149 16.0866 33.9153 16.0836C33.9018 15.9783 33.8923 15.873 33.891 15.7677C33.8906 15.7566 33.8906 15.7457 33.8906 15.7349V13.5525C33.8984 14.741 34.6846 15.9279 36.2498 16.8344C36.2559 16.8381 36.262 16.8415 36.268 16.8449L36.269 16.8456C36.2714 16.8469 36.2738 16.8483 36.2761 16.8496C36.2775 16.8503 36.2785 16.851 36.2802 16.852C36.2812 16.8523 36.2822 16.853 36.2832 16.8537C36.6152 17.0439 36.9688 17.2139 37.3393 17.3638V19.5632ZM36.321 17.5612C36.1591 17.5612 36.0477 17.6908 36.0477 17.9149C36.0477 18.2308 36.2687 18.615 36.5413 18.7731C36.6206 18.8188 36.6955 18.8408 36.762 18.8408C36.924 18.8408 37.0353 18.7111 37.0353 18.487C37.0353 18.1712 36.8143 17.787 36.5413 17.6289C36.4621 17.5829 36.3871 17.5612 36.321 17.5612Z" fill="white"/>
<path d="M36.762 18.8405C36.6955 18.8405 36.6206 18.8185 36.5413 18.7728C36.2687 18.6147 36.0477 18.2305 36.0477 17.9147C36.0477 17.6906 36.159 17.5609 36.321 17.5609C36.3871 17.5609 36.462 17.5826 36.5413 17.6286C36.8143 17.7867 37.0353 18.1709 37.0353 18.4868C37.0353 18.7109 36.9239 18.8405 36.762 18.8405Z" fill="white"/>
<path d="M37.3059 31.0799C36.9381 30.9296 36.5876 30.7593 36.2582 30.5691C36.5876 30.7593 36.9385 30.9296 37.3059 31.0799Z" fill="white"/>
<path d="M33.9145 21.8574C33.9152 21.8544 33.9152 21.8517 33.9155 21.8486V21.849C33.9152 21.8517 33.9152 21.8544 33.9145 21.8574Z" fill="white"/>
<path d="M37.3394 23.1293C36.9564 22.9743 36.5917 22.7979 36.2499 22.5999C34.8314 21.7783 34.0526 20.7265 33.9133 19.6521C34.1238 19.9791 34.4025 20.3515 34.7706 20.755C34.831 20.8237 34.8948 20.8917 34.9616 20.9588C35.5382 21.5573 36.3092 22.2157 37.3394 22.89V23.1293Z" fill="#A7B2BA"/>
<path d="M34.9615 20.9578C34.8947 20.891 34.8309 20.8231 34.7705 20.7546C34.8316 20.8214 34.8953 20.8893 34.9615 20.9578Z" fill="white"/>
<path d="M35.355 23.4236C35.3004 23.4236 35.2386 23.4056 35.1732 23.3677C34.9488 23.2377 34.7666 22.9212 34.7666 22.6612C34.7666 22.4764 34.858 22.3698 34.9917 22.3698C35.0463 22.3698 35.1081 22.3877 35.1732 22.4256C35.3979 22.5556 35.5801 22.8721 35.5801 23.1321C35.5801 23.3166 35.4883 23.4236 35.355 23.4236Z" fill="white"/>
<path d="M34.3662 28.1468C34.3662 28.1363 34.3665 28.1258 34.3665 28.1153C34.3665 28.1147 34.3665 28.1143 34.3665 28.1136C34.3665 28.1248 34.3662 28.1356 34.3662 28.1468Z" fill="#7972B6"/>
<path d="M34.3662 28.1469C34.3662 28.1357 34.3665 28.1249 34.3665 28.1137C34.3682 28.0186 34.376 27.9235 34.3871 27.828C34.375 27.9313 34.3669 28.0345 34.3665 28.1377L34.3662 28.1469Z" fill="#524B87"/>
<path d="M34.3662 27.3518V25.8403V27.3514V27.3518ZM34.3662 25.2756C34.3662 25.2655 34.3665 25.2557 34.3665 25.2458C34.3665 25.2557 34.3665 25.2658 34.3662 25.2756Z" fill="url(#paint5_linear_0_1851)"/>
<path d="M34.3665 27.5089C34.3665 27.4984 34.3662 27.4883 34.3662 27.4778V27.3517V27.3513V27.4778C34.3662 27.488 34.3665 27.4984 34.3665 27.5089Z" fill="url(#paint6_linear_0_1851)"/>
<path d="M34.3885 27.8076C34.3763 27.7081 34.3679 27.6089 34.3665 27.5094C34.3665 27.4992 34.3662 27.4884 34.3662 27.4783C34.3662 27.5879 34.3753 27.698 34.3885 27.8076ZM34.3662 27.4783V27.3513V25.8402V25.7721V25.33V25.2789C34.3662 25.2776 34.3662 25.2765 34.3662 25.2755C34.3665 25.2657 34.3665 25.2556 34.3665 25.2457C34.3665 25.2454 34.3665 25.2447 34.3665 25.2444C34.3665 25.2556 34.3665 25.2674 34.3662 25.2786V25.2789V27.4783Z" fill="#7972B6"/>
<path d="M34.3662 25.2783C34.3665 25.2671 34.3665 25.2553 34.3665 25.2441C34.3682 25.1463 34.3763 25.0484 34.3885 24.9509C34.3757 25.0542 34.3676 25.1574 34.3669 25.261L34.3662 25.2783Z" fill="#524B87"/>
<path d="M34.3908 24.9298C34.3773 24.8245 34.3682 24.7192 34.3665 24.6136C34.3665 24.6028 34.3662 24.592 34.3662 24.5808C34.3662 24.6972 34.376 24.8137 34.3908 24.9298ZM34.3662 24.5808V22.3814C34.3662 22.3709 34.3665 22.3605 34.3665 22.35C34.3665 22.3493 34.3665 22.3489 34.3665 22.3483C34.3649 22.4766 34.3726 22.6049 34.3888 22.7325C34.3814 22.7206 34.3736 22.7088 34.3662 22.6973V24.5808Z" fill="#7972B6"/>
<path d="M34.39 24.9387C34.3903 24.9357 34.3906 24.933 34.391 24.9299V24.9303C34.3906 24.933 34.3903 24.9357 34.39 24.9387Z" fill="#8078C0"/>
<path d="M35.4373 24.0388C35.3704 23.972 35.3067 23.9042 35.2463 23.8357C35.3073 23.9028 35.3711 23.9703 35.4373 24.0388Z" fill="#6D66A3"/>
<path d="M33.7153 35.7397C33.6461 34.6009 32.863 33.4747 31.3629 32.6057C28.2175 30.7835 23.1175 30.7835 19.9718 32.6057C18.3991 33.5163 17.6126 34.7106 17.6126 35.9045V38.1039C17.6126 39.2978 18.3991 40.4918 19.9718 41.4027C23.1175 43.2249 28.2172 43.2249 31.3629 41.4027C32.9355 40.4918 33.7221 39.2978 33.7221 38.1039V35.7393L33.7153 35.7397Z" fill="white"/>
<path d="M31.3632 39.2035C28.2175 41.0257 23.1179 41.0257 19.9725 39.2035C16.8268 37.3816 16.8268 34.4273 19.9725 32.6054C23.1179 30.7835 28.2179 30.7835 31.3632 32.6054C34.5086 34.4273 34.5086 37.3816 31.3632 39.2035Z" fill="#A7B2BA"/>
<path d="M33.7153 32.8714C33.6461 31.7326 32.863 30.6064 31.3629 29.7374C28.2175 27.9152 23.1175 27.9152 19.9718 29.7374C18.3991 30.6483 17.6126 31.8423 17.6126 33.0362V35.2356C17.6126 36.4295 18.3991 37.6235 19.9718 38.5348C23.1175 40.3567 28.2172 40.3567 31.3629 38.5348C32.9355 37.6235 33.7221 36.4295 33.7221 35.2356V32.8714H33.7153Z" fill="white"/>
<path d="M31.3632 36.3354C28.2175 38.1573 23.1179 38.1573 19.9725 36.3354C16.8268 34.5135 16.8268 31.5593 19.9725 29.7374C23.1179 27.9152 28.2179 27.9152 31.3632 29.7374C34.5086 31.5593 34.5086 34.5132 31.3632 36.3354Z" fill="#A7B2BA"/>
<path d="M33.7153 29.9748C33.6461 28.8363 32.863 27.7098 31.3629 26.8408C28.2175 25.0189 23.1175 25.0189 19.9718 26.8408C18.3991 27.7517 17.6126 28.9457 17.6126 30.1396V32.339C17.6126 33.5332 18.3991 34.7272 19.9718 35.6381C23.1175 37.46 28.2172 37.46 31.3629 35.6381C32.9355 34.7272 33.7221 33.5332 33.7221 32.339V29.9748H33.7153Z" fill="white"/>
<path d="M31.3632 33.4388C28.2175 35.2607 23.1179 35.2607 19.9725 33.4388C16.8268 31.6169 16.8268 28.6627 19.9725 26.8408C23.1179 25.0189 28.2179 25.0189 31.3632 26.8408C34.5086 28.6627 34.5086 31.6166 31.3632 33.4388Z" fill="#A7B2BA"/>
<path d="M33.7153 27.1062C33.6461 25.9678 32.863 24.8412 31.3629 23.9723C28.2175 22.1504 23.1175 22.1504 19.9718 23.9723C18.3991 24.8832 17.6126 26.0771 17.6126 27.2711V29.4708C17.6126 30.6647 18.3991 31.8587 19.9718 32.7696C23.1175 34.5918 28.2172 34.5918 31.3629 32.7696C32.9355 31.8587 33.7221 30.6647 33.7221 29.4708V27.1062H33.7153Z" fill="white"/>
<path d="M31.3632 30.5703C28.2175 32.3922 23.1179 32.3922 19.9725 30.5703C16.8268 28.7484 16.8268 25.7941 19.9725 23.9723C23.1179 22.1504 28.2179 22.1504 31.3632 23.9723C34.5086 25.7941 34.5086 28.7484 31.3632 30.5703Z" fill="#A7B2BA"/>
<path d="M33.7153 24.2091C33.6461 23.0707 32.863 21.9441 31.3629 21.0752C28.2175 19.2533 23.1175 19.2533 19.9718 21.0752C18.3991 21.9861 17.6126 23.1801 17.6126 24.3743V26.5733C17.6126 27.7676 18.3991 28.9616 19.9718 29.8725C23.1175 31.6944 28.2172 31.6944 31.3629 29.8725C32.9355 28.9616 33.7221 27.7676 33.7221 26.5733V24.2091H33.7153Z" fill="white"/>
<path d="M31.3632 27.6732C28.2175 29.4951 23.1179 29.4951 19.9725 27.6732C16.8268 25.8513 16.8268 22.8971 19.9725 21.0752C23.1179 19.2533 28.2179 19.2533 31.3632 21.0752C34.5086 22.8971 34.5086 25.8513 31.3632 27.6732Z" fill="#A7B2BA"/>
<path d="M30.7667 27.3277C27.9507 28.959 23.3848 28.959 20.5688 27.3277C17.7527 25.6968 17.7527 23.0519 20.5688 21.4206C23.3848 19.7893 27.9507 19.7893 30.7667 21.4206C33.5831 23.0519 33.5831 25.6968 30.7667 27.3277Z" fill="white"/>
<path d="M20.7578 29.326C20.7578 29.6419 20.5368 29.7702 20.2642 29.6121C19.9912 29.454 19.7702 29.0698 19.7702 28.7539C19.7702 28.4378 19.9912 28.3098 20.2642 28.4679C20.5368 28.626 20.7578 29.0102 20.7578 29.326Z" fill="white"/>
<path d="M19.3018 33.9713C19.3018 34.2316 19.1196 34.3368 18.8952 34.2069C18.6705 34.0769 18.4883 33.7604 18.4883 33.5C18.4883 33.2397 18.6705 33.1344 18.8952 33.2648C19.1196 33.3948 19.3018 33.7113 19.3018 33.9713Z" fill="#C5BFF0"/>
<path d="M30.7394 29.0954C30.7394 29.4112 30.9608 29.5392 31.2334 29.3814C31.506 29.2233 31.7274 28.8391 31.7274 28.5233C31.7274 28.2075 31.506 28.0792 31.2334 28.2372C30.9608 28.3953 30.7394 28.7792 30.7394 29.0954Z" fill="white"/>
<path d="M31.9742 28.2438C31.9742 28.4787 32.1388 28.5742 32.3416 28.4567C32.5444 28.3392 32.7091 28.0532 32.7091 27.8183C32.7091 27.5833 32.5444 27.4879 32.3416 27.6053C32.1388 27.7231 31.9742 28.0088 31.9742 28.2438Z" fill="white"/>
<path d="M30.7394 34.9336C30.7394 35.2498 30.9608 35.3777 31.2334 35.2197C31.506 35.0619 31.7274 34.6777 31.7274 34.3619C31.7274 34.0457 31.506 33.9177 31.2334 34.0755C30.9608 34.2336 30.7394 34.6178 30.7394 34.9336Z" fill="white"/>
<path d="M31.9742 34.082C31.9742 34.3169 32.1388 34.4124 32.3416 34.2949C32.5444 34.1774 32.7091 33.8914 32.7091 33.6564C32.7091 33.4212 32.5444 33.326 32.3416 33.4435C32.1388 33.5613 31.9742 33.847 31.9742 34.082Z" fill="white"/>
<path d="M29.4385 29.6233C29.4388 29.8311 29.6031 29.9482 29.8056 29.8849C30.0077 29.8216 30.1717 29.6016 30.1713 29.3938C30.171 29.1856 30.0067 29.0684 29.8046 29.1321C29.6021 29.195 29.4381 29.4151 29.4385 29.6233Z" fill="white"/>
<path d="M25.6676 42.7695C24.045 42.7695 22.4224 42.4875 21.0383 41.9229C22.4224 42.4872 24.0453 42.7695 25.6673 42.7695H25.6676Z" fill="#F5F5F5"/>
<path d="M25.6677 34.8045C24.3953 34.8045 23.123 34.6312 21.966 34.2843C21.6441 34.0984 21.3431 33.9126 21.0617 33.7284V33.2988C22.4407 33.8567 24.0542 34.136 25.6677 34.136V34.8045Z" fill="#A7B2BA"/>
<path d="M25.6677 34.1361C24.0542 34.1361 22.4407 33.8572 21.0617 33.2989V31.0996C22.4407 31.6578 24.0542 31.9368 25.6674 31.9368H25.6677V34.1361Z" fill="white"/>
<path d="M25.6674 31.9367C24.0542 31.9367 22.4407 31.6578 21.0617 31.0995V30.4019C22.4404 30.9597 24.0542 31.239 25.6674 31.239H25.6677V31.9367H25.6674Z" fill="#A7B2BA"/>
<path d="M25.6674 31.2391C24.0542 31.2391 22.4404 30.9599 21.0617 30.402V28.2026C21.2817 28.2917 21.5074 28.3733 21.7382 28.4484C22.9553 28.8424 24.3117 29.0398 25.6677 29.0398V31.2391H25.6674Z" fill="white"/>
<path d="M17.6126 35.9045C17.6126 35.894 17.6129 35.8835 17.6129 35.8727C17.6129 35.8724 17.6129 35.8717 17.6129 35.8713C17.6129 35.8825 17.6126 35.893 17.6126 35.9042V35.9045Z" fill="white"/>
<path d="M17.6126 35.9042C17.6126 35.8934 17.6129 35.8826 17.6129 35.8714C17.6146 35.7759 17.6224 35.6808 17.6339 35.5857C17.6214 35.6889 17.6136 35.7919 17.6129 35.8954L17.6126 35.9042Z" fill="white"/>
<path d="M17.6126 33.0333C17.6126 33.0231 17.6129 33.0133 17.6129 33.0032C17.6129 33.0133 17.6129 33.0231 17.6126 33.0333Z" fill="url(#paint7_linear_0_1851)"/>
<path d="M17.6349 35.5652C17.6227 35.466 17.6143 35.3665 17.6129 35.2673C17.6129 35.2568 17.6126 35.2463 17.6126 35.2358C17.6126 35.3458 17.6217 35.4555 17.6349 35.5652ZM17.6126 35.2358V35.1092V33.5977V33.5297V33.0876V33.0365C17.6126 33.0355 17.6126 33.0345 17.6126 33.0331C17.6129 33.0233 17.6129 33.0135 17.6129 33.0033C17.6129 33.003 17.6129 33.0023 17.6129 33.002C17.6129 33.0135 17.6129 33.0253 17.6126 33.0365V35.2358Z" fill="white"/>
<path d="M17.6126 33.0363C17.6129 33.0248 17.6129 33.0133 17.6129 33.0018C17.6146 32.9039 17.6227 32.8064 17.6349 32.7086C17.6221 32.8119 17.6143 32.9154 17.6136 33.0187L17.6126 33.0363Z" fill="white"/>
<path d="M21.0615 28.2027C20.691 28.0524 20.3374 27.8824 20.0054 27.6922L20.0058 27.6925C20.3378 27.8828 20.691 28.0527 21.0615 28.2027ZM20.0024 27.6905C20.001 27.6898 19.9997 27.6891 19.9983 27.6881L19.9987 27.6884C19.9997 27.6891 20.0007 27.6895 20.0017 27.6901L20.0024 27.6905ZM19.9916 27.6844C19.9909 27.684 19.9902 27.6837 19.9902 27.6837L19.9909 27.684L19.9916 27.6844Z" fill="white"/>
<path d="M21.0615 28.2027C20.6914 28.0527 20.3378 27.8828 20.0058 27.6925C20.3378 27.8824 20.6917 28.051 21.0615 28.201V28.2027Z" fill="#B8B5D5"/>
<path d="M17.6372 32.6873C17.6237 32.5823 17.6146 32.4767 17.6129 32.3714C17.6129 32.3603 17.6126 32.3494 17.6126 32.3386C17.6126 32.455 17.6224 32.5712 17.6372 32.6873ZM17.6126 32.3386V30.1393C17.6126 30.1288 17.6129 30.1183 17.6129 30.1074C17.6129 30.1071 17.6129 30.1064 17.6129 30.1061C17.6113 30.234 17.619 30.3627 17.6356 30.4903C17.6278 30.4785 17.6204 30.4666 17.6126 30.4548V32.3386Z" fill="white"/>
<path d="M21.0617 33.7286C20.032 33.0543 19.2606 32.3959 18.684 31.7974C19.0298 32.145 19.4594 32.4724 19.9726 32.7696C20.314 32.9676 20.6791 33.144 21.0617 33.299V33.7286ZM18.493 31.5936C18.1249 31.1901 17.8465 30.8177 17.636 30.4904C17.6194 30.3627 17.612 30.2344 17.6134 30.1061C17.6151 30.009 17.6232 29.9115 17.635 29.8143C17.7129 30.4274 17.9987 31.0333 18.493 31.5936Z" fill="#A7B2BA"/>
<path d="M21.0613 33.2992C20.6783 33.1441 20.3136 32.9678 19.9718 32.7697C19.4586 32.4725 19.0294 32.1452 18.6836 31.7975C18.6174 31.7288 18.5537 31.6608 18.4926 31.5937C17.9983 31.0335 17.7121 30.4275 17.6345 29.8145C17.6349 29.8114 17.6352 29.8084 17.6356 29.805C17.6231 29.7041 17.6146 29.6033 17.6129 29.502C17.6129 29.4916 17.6126 29.4811 17.6126 29.4709V27.2712C17.6126 27.2604 17.6129 27.2492 17.6129 27.2384C17.6129 27.2377 17.6129 27.2374 17.6129 27.2367C17.5978 28.4425 18.3839 29.6507 19.9718 30.5704C20.3136 30.7684 20.6783 30.9448 21.0613 31.0998V33.2992Z" fill="white"/>
<path d="M21.0618 31.0996C20.6792 30.9446 20.3144 30.7682 19.9726 30.5702C18.3844 29.6505 17.5983 28.442 17.6134 27.2365C17.6151 27.1346 17.6242 27.0327 17.6371 26.9312C17.7784 28.0032 18.5568 29.0523 19.9726 29.8725C20.3144 30.0706 20.6792 30.2469 21.0618 30.402V31.0996Z" fill="#A7B2BA"/>
<path d="M21.0613 30.4021C20.6783 30.247 20.3136 30.0706 19.9718 29.8726C18.5564 29.0527 17.7776 28.0033 17.6362 26.9312C17.6366 26.9282 17.6369 26.9255 17.6372 26.9224C17.6237 26.8172 17.6146 26.7119 17.6129 26.6063C17.6129 26.5954 17.6126 26.5846 17.6126 26.5734V24.3914C17.6204 25.5799 18.4065 26.7667 19.9718 27.6733C19.9779 27.6767 19.9839 27.68 19.99 27.6838C19.99 27.6838 19.9907 27.6841 19.9914 27.6844C19.9937 27.6858 19.9958 27.6871 19.9981 27.6885C19.9995 27.6892 20.0008 27.6899 20.0022 27.6909C20.0032 27.6912 20.0042 27.6919 20.0052 27.6926C20.3372 27.8828 20.6908 28.0527 21.0613 28.2027V30.4021ZM20.043 28.4001C19.881 28.4001 19.7697 28.5297 19.7697 28.7538C19.7697 29.0696 19.9907 29.4539 20.2637 29.612C20.343 29.6577 20.4179 29.6793 20.484 29.6793C20.646 29.6793 20.7573 29.55 20.7573 29.3259C20.7573 29.0097 20.5363 28.6259 20.2637 28.4678C20.1844 28.4217 20.1095 28.4001 20.043 28.4001Z" fill="white"/>
<path d="M20.4845 29.6794C20.4184 29.6794 20.3435 29.6577 20.2642 29.6117C19.9912 29.4539 19.7702 29.0697 19.7702 28.7536C19.7702 28.5295 19.8816 28.4001 20.0435 28.4001C20.11 28.4001 20.1849 28.4218 20.2642 28.4675C20.5368 28.6256 20.7578 29.0098 20.7578 29.3256C20.7578 29.5497 20.6465 29.6794 20.4845 29.6794Z" fill="white"/>
<path d="M21.0278 41.9188C20.6604 41.7681 20.3095 41.5978 19.9802 41.4076V41.4079C20.3098 41.5982 20.6604 41.7685 21.0278 41.9188Z" fill="white"/>
<path d="M19.98 41.4077V41.4073C19.9773 41.406 19.9746 41.4043 19.9722 41.403C19.9746 41.4046 19.9773 41.406 19.98 41.4077Z" fill="#736CAC"/>
<path d="M21.0616 33.9679C20.6789 33.8129 20.3138 33.6365 19.972 33.4385C18.5536 32.6169 17.7748 31.5651 17.6358 30.4904C17.8463 30.8177 18.1247 31.1901 18.4928 31.5936C18.5532 31.6623 18.617 31.7303 18.6838 31.7974C19.2604 32.3959 20.0318 33.0543 21.0616 33.7286V33.9679Z" fill="#A7B2BA"/>
<path d="M18.6837 31.7966C18.6169 31.7295 18.5531 31.6617 18.4927 31.5935C18.5538 31.6603 18.6176 31.7281 18.6837 31.7966Z" fill="white"/>
<path d="M19.0767 34.2627C19.0221 34.2627 18.9603 34.2447 18.8952 34.2068C18.6705 34.0768 18.4883 33.7603 18.4883 33.5C18.4883 33.3155 18.5801 33.2089 18.7133 33.2089C18.768 33.2089 18.8297 33.2268 18.8952 33.2644C19.1196 33.3947 19.3018 33.7112 19.3018 33.9712C19.3018 34.1557 19.21 34.2627 19.0767 34.2627Z" fill="white"/>
<defs>
<linearGradient id="paint0_linear_0_1851" x1="38.9256" y1="53.6468" x2="23.0736" y2="-9.68692" gradientUnits="userSpaceOnUse">
<stop stop-color="#221A3C"/>
<stop offset="1" stop-color="#190F23"/>
</linearGradient>
<linearGradient id="paint1_linear_0_1851" x1="21.9949" y1="61.5262" x2="5.93254" y2="-1.92802" gradientUnits="userSpaceOnUse">
<stop stop-color="#261D43"/>
<stop offset="1" stop-color="#1C1127"/>
</linearGradient>
<linearGradient id="paint2_linear_0_1851" x1="22.1721" y1="61.5265" x2="6.22275" y2="-1.98923" gradientUnits="userSpaceOnUse">
<stop stop-color="#2A214B"/>
<stop offset="1" stop-color="#1F132B"/>
</linearGradient>
<linearGradient id="paint3_linear_0_1851" x1="55.8853" y1="61.893" x2="39.823" y2="-1.5612" gradientUnits="userSpaceOnUse">
<stop stop-color="#261D43"/>
<stop offset="1" stop-color="#1C1127"/>
</linearGradient>
<linearGradient id="paint4_linear_0_1851" x1="56.0627" y1="61.8931" x2="40.1134" y2="-1.62253" gradientUnits="userSpaceOnUse">
<stop stop-color="#2A214B"/>
<stop offset="1" stop-color="#1F132B"/>
</linearGradient>
<linearGradient id="paint5_linear_0_1851" x1="56.2024" y1="64.9743" x2="40.0376" y2="1.57541" gradientUnits="userSpaceOnUse">
<stop stop-color="#2A214B"/>
<stop offset="1" stop-color="#1F132B"/>
</linearGradient>
<linearGradient id="paint6_linear_0_1851" x1="56.2023" y1="64.8522" x2="40.1358" y2="1.63409" gradientUnits="userSpaceOnUse">
<stop stop-color="#221A3C"/>
<stop offset="1" stop-color="#190F23"/>
</linearGradient>
<linearGradient id="paint7_linear_0_1851" x1="39.4488" y1="72.7322" x2="23.2838" y2="9.333" gradientUnits="userSpaceOnUse">
<stop stop-color="#2A214B"/>
<stop offset="1" stop-color="#1F132B"/>
</linearGradient>
</defs>
</svg>
