<svg width="25" height="25" viewBox="0 0 25 25" fill="none" xmlns="http://www.w3.org/2000/svg">
<circle cx="12.5" cy="12.5" r="12.5" fill="white"/>
<g clip-path="url(#clip0_0_2117)">
<path d="M8.57274 12.4095C8.5681 12.5893 8.59029 12.7689 8.63858 12.9423C8.69178 13.0905 8.75583 13.2346 8.83021 13.3735C8.85685 13.4145 8.87138 13.4622 8.87213 13.5112C8.87213 13.571 8.8362 13.6309 8.75839 13.6907L8.38124 13.9422C8.33574 13.975 8.28163 13.9937 8.22561 13.9961C8.15742 13.9914 8.09341 13.9615 8.04602 13.9123C7.96532 13.8256 7.89313 13.7314 7.83043 13.6309C7.77057 13.5291 7.71065 13.4153 7.64485 13.2777C7.1779 13.8283 6.5912 14.1037 5.88475 14.1037C5.3817 14.1037 4.98077 13.96 4.68744 13.6725C4.3941 13.3851 4.24442 13.0021 4.24442 12.5232C4.24442 12.0143 4.424 11.6013 4.78921 11.29C5.15441 10.9787 5.63928 10.823 6.2559 10.823C6.46827 10.8247 6.68027 10.8407 6.89049 10.8709C7.112 10.9008 7.3395 10.9487 7.57894 11.0026V10.5656C7.57894 10.1105 7.48312 9.79333 7.29758 9.60772C7.10594 9.42214 6.78273 9.33234 6.32174 9.33234C6.10388 9.33233 5.88681 9.35846 5.67518 9.41016C5.4551 9.46259 5.23904 9.53061 5.02861 9.61371C4.96053 9.64417 4.89054 9.67016 4.81908 9.69152C4.78808 9.70174 4.75586 9.70779 4.72326 9.70949C4.63946 9.70949 4.59754 9.64964 4.59754 9.52391V9.23057C4.59754 9.13475 4.60951 9.06289 4.63946 9.02104C4.68463 8.96647 4.7421 8.92338 4.80714 8.89531C5.04726 8.77651 5.30041 8.6861 5.56146 8.62593C5.86651 8.54765 6.18046 8.50942 6.49538 8.51218C7.20792 8.51218 7.72862 8.6738 8.06388 8.99708C8.39315 9.32037 8.56076 9.81126 8.56076 10.4698V12.4095H8.57274ZM6.14219 13.3194C6.3522 13.3171 6.56045 13.2807 6.75881 13.2117C6.97854 13.1356 7.17459 13.0035 7.32752 12.8284C7.42402 12.718 7.49369 12.5869 7.53106 12.4451C7.5722 12.2746 7.5923 12.0997 7.59092 11.9243V11.6731C7.4094 11.6289 7.22555 11.5949 7.04024 11.5713C6.85356 11.5477 6.66558 11.5357 6.47741 11.5356C6.07631 11.5356 5.78297 11.6134 5.58542 11.7751C5.38786 11.9368 5.29208 12.1642 5.29208 12.4636C5.29208 12.7449 5.36394 12.9545 5.51359 13.0981C5.65732 13.2478 5.86681 13.3197 6.14219 13.3197V13.3194ZM10.9494 13.966C10.8417 13.966 10.7698 13.948 10.7219 13.9061C10.674 13.8702 10.6321 13.7864 10.5962 13.6726L9.18929 9.04499C9.16202 8.96753 9.14394 8.88713 9.13543 8.80545C9.13543 8.70963 9.18334 8.65577 9.27915 8.65577H9.86583C9.97958 8.65577 10.0575 8.67373 10.0993 8.71562C10.1472 8.75155 10.1831 8.83539 10.2191 8.94911L11.2248 12.9122L12.1587 8.94921C12.1887 8.82944 12.2246 8.75165 12.2725 8.71572C12.3204 8.67979 12.4042 8.65587 12.512 8.65587H12.9911C13.1048 8.65587 13.1827 8.67384 13.2306 8.71572C13.2786 8.75165 13.3204 8.83549 13.3444 8.94921L14.2903 12.9602L15.3256 8.94921C15.3616 8.82944 15.4034 8.75165 15.4454 8.71572C15.4933 8.67979 15.5711 8.65587 15.6789 8.65587H16.2357C16.3315 8.65587 16.3853 8.70378 16.3853 8.80555C16.3839 8.83776 16.3799 8.86981 16.3734 8.90137C16.364 8.95244 16.3499 9.00254 16.3314 9.05105L14.8887 13.6787C14.8528 13.7984 14.8108 13.8763 14.7629 13.9122C14.6953 13.9555 14.6157 13.9764 14.5354 13.972H14.0206C13.9068 13.972 13.8289 13.9541 13.781 13.9122C13.7331 13.8703 13.6912 13.7924 13.6673 13.6726L12.7394 9.81126L11.8174 13.6667C11.7875 13.7864 11.7516 13.8642 11.7037 13.9062C11.6558 13.9482 11.572 13.9661 11.4641 13.9661L10.9494 13.966ZM18.6422 14.1276C18.3317 14.1279 18.0223 14.0918 17.7203 14.0198C17.421 13.948 17.1875 13.8702 17.0318 13.7803C16.936 13.7264 16.8702 13.6666 16.8463 13.6126C16.8229 13.5598 16.8107 13.5027 16.8103 13.4449V13.1398C16.8103 13.0141 16.8582 12.9543 16.948 12.9543C16.9847 12.9544 17.0211 12.9604 17.0558 12.9722C17.0917 12.9842 17.1456 13.0081 17.2055 13.0321C17.4169 13.1251 17.6377 13.1953 17.864 13.2416C18.0985 13.2892 18.3371 13.3133 18.5764 13.3135C18.9536 13.3135 19.2469 13.2476 19.4505 13.1159C19.548 13.0571 19.6282 12.9734 19.6829 12.8736C19.7376 12.7737 19.7648 12.6611 19.7619 12.5472C19.764 12.4701 19.7508 12.3934 19.723 12.3215C19.6953 12.2495 19.6536 12.1838 19.6003 12.1281C19.4925 12.0144 19.2888 11.9125 18.9956 11.8167L18.1274 11.5474C17.6903 11.4097 17.3671 11.2062 17.1695 10.9367C16.9768 10.6883 16.8716 10.3831 16.8702 10.0686C16.8653 9.83683 16.9211 9.60778 17.0318 9.4041C17.1388 9.2115 17.2858 9.0441 17.463 8.91321C17.6496 8.77195 17.8607 8.66638 18.0856 8.6018C18.3307 8.53126 18.5848 8.49703 18.8398 8.5002C18.9739 8.49923 19.1079 8.50723 19.2409 8.52416C19.3786 8.54212 19.5044 8.56608 19.63 8.59C19.7498 8.61994 19.8635 8.64985 19.9712 8.68581C20.0586 8.71284 20.1429 8.74895 20.2227 8.79357C20.2932 8.82912 20.3546 8.88032 20.4023 8.94326C20.4412 9.00151 20.4601 9.07086 20.4561 9.14081V9.42217C20.4561 9.5479 20.4082 9.61381 20.3184 9.61381C20.2705 9.61381 20.1927 9.58985 20.0909 9.54194C19.7497 9.38629 19.3666 9.30846 18.9415 9.30846C18.6003 9.30846 18.3309 9.36232 18.1453 9.47614C17.9597 9.58996 17.8639 9.76359 17.8639 10.009C17.8623 10.0884 17.8774 10.1674 17.9084 10.2406C17.9393 10.3139 17.9854 10.3798 18.0435 10.434C18.1633 10.5478 18.3848 10.6615 18.7021 10.7633L19.5522 11.0325C19.9834 11.1702 20.2945 11.3618 20.4801 11.6072C20.6628 11.8481 20.7598 12.1431 20.7555 12.4454C20.7586 12.6858 20.7053 12.9237 20.5998 13.1398C20.4936 13.3447 20.3446 13.5244 20.1628 13.6666C19.9652 13.8205 19.7395 13.9344 19.4983 14.002C19.221 14.0873 18.9323 14.1297 18.6422 14.1277L18.6422 14.1276Z" fill="#252F3E"/>
<path d="M19.7737 17.037C17.8041 18.4917 14.9425 19.264 12.482 19.264C9.03369 19.2641 5.92663 17.9889 3.57995 15.8697C3.39438 15.702 3.56199 15.4746 3.7835 15.6062C6.32181 17.0789 9.45282 17.9708 12.6916 17.9708C14.8767 17.9708 17.2773 17.5157 19.4864 16.5819C19.8156 16.4322 20.097 16.7975 19.7738 17.0371L19.7737 17.037Z" fill="#FF9900"/>
<path d="M20.5939 16.1031C20.3424 15.7799 18.9296 15.9475 18.289 16.0253C18.0974 16.0493 18.0675 15.8816 18.2411 15.7559C19.3666 14.9657 21.2164 15.1932 21.4319 15.4566C21.6475 15.726 21.3721 17.5759 20.3184 18.4619C20.1568 18.5996 20.0012 18.5277 20.073 18.3482C20.3125 17.7555 20.8453 16.4204 20.5939 16.1031Z" fill="#FF9900"/>
</g>
<defs>
<clipPath id="clip0_0_2117">
<rect width="18" height="10.7639" fill="white" transform="translate(3.50015 8.50024)"/>
</clipPath>
</defs>
</svg>
