<svg width="50" height="43" viewBox="0 0 50 43" fill="none" xmlns="http://www.w3.org/2000/svg">
<path d="M32.8562 16.9949C32.787 15.8565 32.0042 14.7299 30.5041 13.8609C27.3584 12.039 22.2584 12.039 19.113 13.8609C17.5404 14.7719 16.7538 15.9662 16.7538 17.1601V19.3594C16.7538 20.5534 17.5404 21.7473 19.113 22.6583C22.2584 24.4805 27.3584 24.4805 30.5041 22.6583C32.0764 21.7473 32.863 20.5534 32.863 19.3594V16.9949H32.8562Z" fill="white"/>
<path d="M30.504 20.4591C27.3583 22.281 22.2586 22.281 19.1129 20.4591C15.9676 18.6372 15.9676 15.6829 19.1129 13.861C22.2586 12.0392 27.3583 12.0392 30.504 13.861C33.6494 15.6829 33.6494 18.6372 30.504 20.4591Z" fill="#A7B2BA"/>
<path d="M32.8562 14.1271C32.787 12.9883 32.0042 11.8617 30.5041 10.9928C27.3584 9.17087 22.2584 9.17087 19.113 10.9928C17.5404 11.904 16.7538 13.098 16.7538 14.2919V16.4913C16.7538 17.6852 17.5404 18.8792 19.113 19.7905C22.2584 21.6123 27.3584 21.6123 30.5041 19.7905C32.0764 18.8792 32.863 17.6852 32.863 16.4913V14.1271H32.8562Z" fill="white"/>
<path d="M30.504 17.5908C27.3583 19.413 22.2586 19.413 19.1129 17.5908C15.9676 15.7689 15.9676 12.815 19.1129 10.9928C22.2586 9.17087 27.3583 9.17087 30.504 10.9928C33.6494 12.815 33.6494 15.7689 30.504 17.5908Z" fill="#A7B2BA"/>
<path d="M32.8562 11.2304C32.787 10.0919 32.0042 8.96534 30.5041 8.09603C27.3584 6.27414 22.2584 6.27414 19.113 8.09603C17.5404 9.00732 16.7538 10.2013 16.7538 11.3952V13.5946C16.7538 14.7885 17.5404 15.9824 19.113 16.8937C22.2584 18.7156 27.3584 18.7156 30.5041 16.8934C32.0764 15.9824 32.863 14.7885 32.863 13.5946V11.2304H32.8562Z" fill="white"/>
<path d="M30.504 14.6942C27.3583 16.5164 22.2586 16.5164 19.1129 14.6942C15.9676 12.8723 15.9676 9.91839 19.1129 8.09616C22.2586 6.27426 27.3583 6.27426 30.504 8.09616C33.6494 9.91805 33.6494 12.8723 30.504 14.6942Z" fill="#A7B2BA"/>
<path d="M32.8562 8.36183C32.787 7.2234 32.0042 6.09681 30.5041 5.2275C27.3584 3.40561 22.2584 3.40561 19.113 5.2275C17.5404 6.13879 16.7538 7.33274 16.7538 8.52668V10.726C16.7538 11.92 17.5404 13.1142 19.113 14.0252C22.2584 15.8471 27.3584 15.8471 30.5041 14.0252C32.0764 13.1142 32.863 11.92 32.863 10.726V8.36183H32.8562Z" fill="white"/>
<path d="M30.504 11.8257C27.3583 13.6476 22.2586 13.6476 19.1129 11.8257C15.9676 10.0034 15.9676 7.04953 19.1129 5.22764C22.2586 3.4054 27.3583 3.4054 30.504 5.22764C33.6494 7.04953 33.6494 10.0034 30.504 11.8257Z" fill="#A7B2BA"/>
<path d="M32.8562 5.46501C32.787 4.32658 32.0042 3.2 30.5041 2.33103C27.3584 0.508797 22.2584 0.508797 19.113 2.33103C17.5404 3.24198 16.7538 4.43592 16.7538 5.62987V7.82921C16.7538 9.02349 17.5404 10.2174 19.113 11.1284C22.2584 12.9503 27.3584 12.9503 30.5041 11.1284C32.0764 10.2174 32.863 9.02349 32.863 7.82921V5.46501H32.8562Z" fill="white"/>
<path d="M30.504 8.92905C27.3583 10.7509 22.2586 10.7509 19.1129 8.92905C15.9676 7.10681 15.9676 4.15292 19.1129 2.33103C22.2586 0.508797 27.3583 0.508797 30.504 2.33103C33.6494 4.15292 33.6494 7.10681 30.504 8.92905Z" fill="#A7B2BA"/>
<path d="M29.9077 8.58335C27.0913 10.2143 22.5258 10.2143 19.7094 8.58335C16.8933 6.95204 16.8933 4.30755 19.7094 2.67624C22.5258 1.04493 27.0913 1.04493 29.9077 2.67624C32.7237 4.30755 32.7237 6.95204 29.9077 8.58335Z" fill="white"/>
<path d="M19.8984 10.5816C19.8984 10.8975 19.6771 11.0254 19.4045 10.8677C19.1318 10.7096 18.9108 10.3254 18.9108 10.0096C18.9108 9.69338 19.1318 9.56543 19.4045 9.72352C19.6771 9.8816 19.8984 10.2655 19.8984 10.5816Z" fill="white"/>
<path d="M18.4429 15.2266C18.4429 15.4866 18.2607 15.5922 18.036 15.4622C17.8113 15.3319 17.6294 15.0157 17.6294 14.7554C17.6294 14.4951 17.8113 14.3898 18.036 14.5198C18.2607 14.6501 18.4426 14.9663 18.4429 15.2266Z" fill="#C5BFF0"/>
<path d="M29.8801 10.3513C29.8801 10.6671 30.1011 10.7951 30.3737 10.6373C30.6467 10.4793 30.8677 10.095 30.8677 9.77921C30.8677 9.46303 30.6467 9.33508 30.3737 9.49317C30.1011 9.65126 29.8801 10.0351 29.8801 10.3513Z" fill="white"/>
<path d="M31.1154 9.49937C31.1154 9.7343 31.2797 9.82976 31.4825 9.7123C31.6856 9.59483 31.85 9.30879 31.85 9.07386C31.85 8.83893 31.6856 8.74347 31.4825 8.86093C31.2797 8.97874 31.1154 9.26444 31.1154 9.49937Z" fill="white"/>
<path d="M29.8801 16.1892C29.8801 16.5054 30.1011 16.6334 30.3737 16.4753C30.6467 16.3175 30.8677 15.9333 30.8677 15.6171C30.8677 15.3013 30.6467 15.1733 30.3737 15.3311C30.1011 15.4892 29.8801 15.8734 29.8801 16.1892Z" fill="white"/>
<path d="M31.1154 15.3376C31.1154 15.5725 31.2797 15.668 31.4825 15.5502C31.6856 15.4327 31.85 15.147 31.85 14.9121C31.85 14.6768 31.6856 14.5817 31.4825 14.6991C31.2797 14.8166 31.1154 15.1023 31.1154 15.3376Z" fill="white"/>
<path d="M28.5791 10.8787C28.5794 11.0869 28.7438 11.204 28.9459 11.1407C29.1483 11.0771 29.312 10.8574 29.312 10.6496C29.3116 10.4414 29.1473 10.3242 28.9449 10.3875C28.7424 10.4508 28.5788 10.6709 28.5791 10.8787Z" fill="white"/>
<path d="M24.8084 16.0605C23.5363 16.0605 22.2639 15.8872 21.1066 15.5402C20.785 15.354 20.4841 15.1685 20.2023 14.984V14.5544C21.5817 15.1127 23.1948 15.3916 24.8084 15.3916V16.0605Z" fill="#A7B2BA"/>
<path d="M24.8084 15.3921C23.1948 15.3921 21.5817 15.1128 20.2023 14.5546V12.3556C21.5817 12.9135 23.1948 13.1924 24.8084 13.1924V15.3921Z" fill="white"/>
<path d="M24.8084 13.1925C23.1948 13.1925 21.5817 12.9136 20.2023 12.3554V11.6577C21.5813 12.2156 23.1952 12.4949 24.8084 12.4949V13.1925Z" fill="#A7B2BA"/>
<path d="M24.8084 12.495C23.1952 12.495 21.5813 12.2157 20.2023 11.6578V9.4585C20.4223 9.54719 20.6484 9.62911 20.8792 9.70426C22.0962 10.0983 23.4523 10.2956 24.8084 10.2956V12.495Z" fill="white"/>
<path d="M24.8084 10.2951C23.4523 10.2951 22.0959 10.0981 20.8792 9.70374C22.0963 10.0981 23.452 10.2951 24.8084 10.2951Z" fill="#C3BFE1"/>
<path d="M16.7538 17.1604C16.7538 17.1499 16.7538 17.1394 16.7542 17.1286C16.7542 17.1282 16.7542 17.1275 16.7542 17.1272C16.7538 17.138 16.7538 17.1489 16.7538 17.16V17.1604Z" fill="white"/>
<path d="M16.7538 17.1599C16.7538 17.149 16.7538 17.1382 16.7542 17.127C16.7555 17.0316 16.7636 16.9364 16.7748 16.8413C16.7626 16.9446 16.7545 17.0475 16.7542 17.1511L16.7538 17.1599Z" fill="white"/>
<path d="M16.7542 16.5222C16.7538 16.5121 16.7538 16.5016 16.7538 16.4912V16.365V16.3646V16.4912C16.7538 16.5013 16.7538 16.5121 16.7542 16.5222Z" fill="url(#paint0_linear_0_1630)"/>
<path d="M16.7761 16.8207C16.764 16.7215 16.7555 16.622 16.7542 16.5228C16.7538 16.5123 16.7538 16.5018 16.7538 16.4913C16.7538 16.6013 16.7626 16.711 16.7761 16.8207ZM16.7538 16.4913V16.3647V14.8532V14.7852V14.3431V14.292C16.7538 14.291 16.7538 14.2896 16.7538 14.2886C16.7538 14.2788 16.7538 14.269 16.7542 14.2588C16.7542 14.2585 16.7542 14.2578 16.7542 14.2574C16.7538 14.269 16.7538 14.2808 16.7538 14.292V16.4913Z" fill="white"/>
<path d="M16.7538 14.2916C16.7538 14.2804 16.7538 14.2689 16.7542 14.2574C16.7555 14.1596 16.764 14.0617 16.7758 13.9642C16.7633 14.0675 16.7552 14.1707 16.7545 14.2743L16.7538 14.2916Z" fill="white"/>
<path d="M16.7785 13.9429C16.765 13.8376 16.7555 13.7323 16.7542 13.627C16.7538 13.6159 16.7538 13.605 16.7538 13.5942C16.7538 13.7107 16.7636 13.8268 16.7785 13.9429ZM16.7538 13.5942V11.3949C16.7538 11.3844 16.7538 11.3739 16.7542 11.363C16.7542 11.3627 16.7542 11.362 16.7542 11.3617C16.7525 11.4897 16.7599 11.6183 16.7765 11.7459C16.769 11.7341 16.7613 11.7222 16.7538 11.7104V13.5942Z" fill="white"/>
<path d="M20.2024 14.9841C19.1723 14.3098 18.4013 13.6514 17.8247 13.0532C18.1705 13.4009 18.5997 13.7279 19.1129 14.0254C19.4547 14.2231 19.8195 14.3998 20.2024 14.5545V14.9841ZM17.6337 12.8494C17.2656 12.4459 16.9872 12.0732 16.7767 11.7462C16.7601 11.6186 16.7524 11.49 16.7541 11.362C16.7558 11.2645 16.7639 11.1673 16.7757 11.0702C16.8533 11.6832 17.1394 12.2892 17.6337 12.8494Z" fill="#A7B2BA"/>
<path d="M20.2025 14.5543C19.8196 14.3996 19.4548 14.2229 19.113 14.0252C18.5998 13.7277 18.1703 13.4007 17.8248 13.053C17.7583 12.9843 17.6946 12.9163 17.6335 12.8492C17.1392 12.289 16.8534 11.683 16.7758 11.07C16.7761 11.0669 16.7765 11.0636 16.7768 11.0605C16.7643 10.9596 16.7555 10.8584 16.7542 10.7575C16.7538 10.747 16.7538 10.7365 16.7538 10.7261V8.52672C16.7538 8.51589 16.7538 8.50471 16.7542 8.49354C16.7542 8.49354 16.7542 8.49286 16.7542 8.49219C16.7387 9.69764 17.5252 10.9062 19.113 11.8259C19.4548 12.0239 19.8196 12.2003 20.2025 12.3553V14.5543Z" fill="white"/>
<path d="M20.2024 12.3551C19.8195 12.2004 19.4547 12.0237 19.1129 11.826C17.525 10.9063 16.7389 9.69778 16.7541 8.49232C16.7557 8.39043 16.7645 8.28854 16.7773 8.18665C16.9187 9.25906 17.6975 10.3081 19.1129 11.1284C19.4547 11.326 19.8195 11.5024 20.2024 11.6574V12.3551Z" fill="#A7B2BA"/>
<path d="M20.2025 11.6573C19.8196 11.5026 19.4548 11.3259 19.113 11.1282C17.6973 10.308 16.9188 9.25894 16.7775 8.18653C16.7778 8.18382 16.7781 8.18077 16.7785 8.17806C16.765 8.07279 16.7555 7.9675 16.7542 7.86188C16.7538 7.85105 16.7538 7.83988 16.7538 7.82905V5.64697C16.7616 6.83516 17.5478 8.02234 19.113 8.92889C19.1191 8.93227 19.1252 8.93566 19.1309 8.93904C19.1316 8.93938 19.1323 8.94006 19.1323 8.94006C19.1346 8.94141 19.137 8.94243 19.1394 8.94379C19.1404 8.9448 19.1417 8.94547 19.1434 8.94615C19.1444 8.94683 19.1454 8.94751 19.1461 8.94785C19.4785 9.13809 19.8321 9.30802 20.2025 9.45799V11.6573ZM19.1842 9.65568C19.0223 9.65568 18.9109 9.785 18.9109 10.0091C18.9109 10.3253 19.1319 10.7095 19.4046 10.8672C19.4839 10.9133 19.5588 10.9349 19.6252 10.9349C19.7872 10.9349 19.8985 10.8053 19.8985 10.5812C19.8985 10.2654 19.6772 9.88114 19.4046 9.72305C19.3253 9.67735 19.2504 9.65568 19.1842 9.65568Z" fill="white"/>
<path d="M19.6251 10.935C19.5587 10.935 19.4838 10.9133 19.4045 10.8673C19.1318 10.7095 18.9108 10.325 18.9108 10.0091C18.9108 9.78505 19.0222 9.6554 19.1841 9.6554C19.2503 9.6554 19.3252 9.6774 19.4045 9.7231C19.6771 9.88119 19.8984 10.2654 19.8984 10.5812C19.8984 10.8053 19.7871 10.935 19.6251 10.935Z" fill="white"/>
<path d="M20.1685 23.174C19.8007 23.0237 19.4501 22.8535 19.1208 22.6632C19.4501 22.8535 19.801 23.0237 20.1685 23.174Z" fill="white"/>
<path d="M19.121 22.6637L19.1206 22.6633C19.1183 22.662 19.1156 22.6603 19.1129 22.6589C19.1156 22.6606 19.1183 22.662 19.121 22.6637Z" fill="#736CAC"/>
<path d="M20.2025 15.2235C19.8196 15.0684 19.4548 14.8921 19.113 14.6944C17.6945 13.8724 16.9158 12.821 16.7764 11.7462C16.987 12.0732 17.2653 12.4459 17.6335 12.8494C17.6942 12.9178 17.758 12.9859 17.8248 13.0532C18.4011 13.6514 19.1724 14.3098 20.2025 14.9845V15.2235Z" fill="#A7B2BA"/>
<path d="M17.8249 13.0523C17.7581 12.9851 17.6944 12.9173 17.634 12.8491C17.695 12.9159 17.7588 12.9838 17.8249 13.0523Z" fill="white"/>
<path d="M18.2175 15.5179C18.1628 15.5179 18.1014 15.5 18.036 15.4624C17.8113 15.3321 17.6294 15.0159 17.6294 14.7556C17.6294 14.5711 17.7208 14.4645 17.8544 14.4645C17.9091 14.4645 17.9709 14.4821 18.036 14.52C18.2607 14.65 18.4426 14.9665 18.4429 15.2268C18.4429 15.4113 18.3511 15.5179 18.2175 15.5179Z" fill="white"/>
<path d="M16.1024 24.7527C16.0335 23.6143 15.2504 22.4877 13.7503 21.6187C10.6046 19.7968 5.50456 19.7968 2.35919 21.6187C0.786511 22.5297 0 23.7236 0 24.9176V27.1169C0 28.3112 0.786511 29.5052 2.35919 30.4161C5.50456 32.238 10.6046 32.238 13.7503 30.4161C15.3229 29.5052 16.1091 28.3112 16.1091 27.1169V24.7527H16.1024Z" fill="white"/>
<path d="M13.7504 28.217C10.6047 30.0389 5.50503 30.0389 2.35933 28.217C-0.786036 26.3948 -0.786036 23.4409 2.35933 21.619C5.50503 19.7968 10.605 19.7968 13.7504 21.619C16.8958 23.4409 16.8958 26.3948 13.7504 28.217Z" fill="#A7B2BA"/>
<path d="M16.1024 21.8846C16.0335 20.7461 15.2504 19.6195 13.7503 18.7506C10.6046 16.9287 5.50456 16.9287 2.35919 18.7506C0.786511 19.6615 0 20.8555 0 22.0498V24.2488C0 25.443 0.786511 26.637 2.35919 27.5479C5.50456 29.3698 10.6046 29.3698 13.7503 27.5479C15.3229 26.637 16.1091 25.443 16.1091 24.2488V21.8846H16.1024Z" fill="white"/>
<path d="M13.7504 25.3488C10.6047 27.1707 5.50503 27.1707 2.35933 25.3488C-0.786036 23.527 -0.786036 20.5727 2.35933 18.7508C5.50503 16.9286 10.605 16.9286 13.7504 18.7508C16.8958 20.5727 16.8958 23.5266 13.7504 25.3488Z" fill="#A7B2BA"/>
<path d="M16.1024 18.9875C16.0335 17.849 15.2504 16.7225 13.7503 15.8535C10.6046 14.0316 5.50456 14.0316 2.35919 15.8535C0.786511 16.7644 0 17.9584 0 19.1523V21.3517C0 22.5459 0.786511 23.7399 2.35919 24.6508C5.50456 26.4727 10.6046 26.4727 13.7503 24.6508C15.3229 23.7399 16.1091 22.5459 16.1091 21.3517V18.9875H16.1024Z" fill="white"/>
<path d="M13.7504 22.4515C10.6047 24.2737 5.50503 24.2737 2.35933 22.4515C-0.786036 20.6296 -0.786036 17.6754 2.35933 15.8535C5.50503 14.0316 10.605 14.0316 13.7504 15.8535C16.8958 17.6754 16.8958 20.6296 13.7504 22.4515Z" fill="#A7B2BA"/>
<path d="M16.1024 16.1193C16.0335 14.9809 15.2504 13.8543 13.7503 12.9853C10.6046 11.1634 5.50456 11.1634 2.35919 12.9853C0.786511 13.8966 0 15.0902 0 16.2842V18.4838C0 19.6778 0.786511 20.8717 2.35919 21.7827C5.50456 23.6049 10.6046 23.6049 13.7503 21.7827C15.3229 20.8717 16.1091 19.6778 16.1091 18.4838V16.1193H16.1024Z" fill="white"/>
<path d="M13.7504 19.5833C10.6047 21.4056 5.50503 21.4056 2.35933 19.5833C-0.786036 17.7614 -0.786036 14.8075 2.35933 12.9853C5.50503 11.1634 10.605 11.1634 13.7504 12.9853C16.8958 14.8075 16.8958 17.7614 13.7504 19.5833Z" fill="#A7B2BA"/>
<path d="M16.1024 13.2227C16.0335 12.0842 15.2504 10.9573 13.7503 10.0883C10.6046 8.26645 5.50456 8.26645 2.35919 10.0883C0.786511 10.9993 0 12.1936 0 13.3875V15.5869C0 16.7808 0.786511 17.9748 2.35919 18.8857C5.50456 20.7079 10.6046 20.7079 13.7503 18.8857C15.3229 17.9748 16.1091 16.7808 16.1091 15.5869V13.2223L16.1024 13.2227Z" fill="white"/>
<path d="M13.7504 16.6864C10.6047 18.5083 5.50503 18.5083 2.35933 16.6864C-0.786036 14.8645 -0.786036 11.9102 2.35933 10.0883C5.50503 8.26645 10.605 8.26645 13.7504 10.0883C16.8958 11.9102 16.8958 14.8645 13.7504 16.6864Z" fill="#A7B2BA"/>
<path d="M13.1538 16.3412C10.3378 17.9721 5.7719 17.9721 2.95585 16.3412C0.139799 14.7098 0.139799 12.065 2.95585 10.4341C5.7719 8.80274 10.3378 8.80274 13.1538 10.4341C15.9702 12.065 15.9702 14.7098 13.1538 16.3412Z" fill="white"/>
<path d="M3.14483 18.3393C3.14483 18.6551 2.92383 18.7834 2.65086 18.6253C2.37823 18.4676 2.15723 18.083 2.15723 17.7672C2.15723 17.4514 2.37823 17.3231 2.65086 17.4811C2.92383 17.6392 3.14483 18.0234 3.14483 18.3393Z" fill="white"/>
<path d="M1.68966 22.984C1.68966 23.2443 1.50745 23.3499 1.28274 23.2196C1.05836 23.0896 0.87616 22.7731 0.87616 22.5131C0.87616 22.2528 1.05836 22.1472 1.28274 22.2775C1.50745 22.4075 1.68966 22.724 1.68966 22.984Z" fill="#C5BFF0"/>
<path d="M13.1265 18.1084C13.1265 18.4246 13.3475 18.5526 13.6205 18.3945C13.8931 18.2367 14.1141 17.8522 14.1141 17.5364C14.1141 17.2205 13.8931 17.0922 13.6205 17.2503C13.3475 17.4084 13.1265 17.7926 13.1265 18.1084Z" fill="white"/>
<path d="M14.3613 17.2574C14.3613 17.4923 14.5256 17.5878 14.7284 17.47C14.9316 17.3525 15.0959 17.0668 15.0959 16.8315C15.0959 16.5966 14.9316 16.5012 14.7284 16.619C14.5256 16.7364 14.3613 17.0221 14.3613 17.2574Z" fill="white"/>
<path d="M13.1265 23.9466C13.1265 24.2625 13.3475 24.3908 13.6205 24.2327C13.8931 24.0746 14.1141 23.6904 14.1141 23.3746C14.1141 23.0584 13.8931 22.9304 13.6205 23.0885C13.3475 23.2463 13.1265 23.6305 13.1265 23.9466Z" fill="white"/>
<path d="M14.3613 23.0958C14.3613 23.3304 14.5256 23.4258 14.7284 23.3084C14.9316 23.1909 15.0959 22.9049 15.0959 22.6699C15.0959 22.435 14.9316 22.3395 14.7284 22.457C14.5256 22.5748 14.3613 22.8605 14.3613 23.0958Z" fill="white"/>
<path d="M11.8259 18.6367C11.8262 18.8445 11.9905 18.9616 12.1926 18.8983C12.3951 18.835 12.5591 18.615 12.5587 18.4071C12.5584 18.1993 12.3941 18.0818 12.1916 18.1455C11.9895 18.2088 11.8255 18.4285 11.8259 18.6367Z" fill="white"/>
<path d="M8.05499 31.7827C6.43237 31.7827 4.80975 31.5003 3.42568 30.936C4.80941 31.5003 6.43237 31.7823 8.05465 31.7827H8.05499Z" fill="url(#paint1_linear_0_1630)"/>
<path d="M8.05481 23.8183C6.78276 23.8183 5.51038 23.645 4.35306 23.2977C4.0315 23.1118 3.73053 22.9263 3.44879 22.7418V22.3123C4.82814 22.8705 6.44164 23.1494 8.05481 23.1494V23.8183Z" fill="#A7B2BA"/>
<path d="M8.05481 23.1493C6.44164 23.1493 4.82814 22.8703 3.44879 22.3121V20.1128C4.82814 20.671 6.44164 20.9499 8.05481 20.9499V23.1493Z" fill="white"/>
<path d="M8.05481 20.9501C6.44164 20.9501 4.82814 20.6712 3.44879 20.113V19.4153C4.8278 19.9735 6.44164 20.2524 8.05481 20.2524V20.9501Z" fill="#A7B2BA"/>
<path d="M8.05481 20.2522C6.44164 20.2522 4.8278 19.9729 3.44879 19.415V17.2157C3.66878 17.3047 3.89485 17.3866 4.12564 17.4615C5.34269 17.8558 6.69875 18.0528 8.05481 18.0528V20.2522Z" fill="white"/>
<path d="M2.37741 16.6968C2.37134 16.6935 2.36527 16.6901 2.35919 16.6864C2.36527 16.6901 2.371 16.6935 2.37741 16.6968Z" fill="white"/>
<path d="M8.05484 18.0529C6.69878 18.0529 5.34238 17.8556 4.12567 17.4615C5.34272 17.8559 6.69878 18.0529 8.05484 18.0529Z" fill="#C3BFE1"/>
<path d="M0 24.9179C0 24.9074 2.38889e-06 24.897 0.000339802 24.8865C0.000339802 24.8858 0.000339802 24.8854 0.000339802 24.8848C2.38889e-06 24.8959 0 24.9068 0 24.9179Z" fill="white"/>
<path d="M0 24.9176C0 24.9065 2.38889e-06 24.8956 0.000339802 24.8845C0.00168945 24.7893 0.00978378 24.6942 0.0209184 24.5988C0.00877154 24.702 0.000677215 24.8052 0.000339802 24.9085L0 24.9176Z" fill="white"/>
<path d="M0 22.0464C0 22.0362 2.38889e-06 22.0264 0.000339802 22.0166C2.38889e-06 22.0264 0 22.0366 0 22.0464Z" fill="url(#paint2_linear_0_1630)"/>
<path d="M0.0222673 24.5783C0.0101205 24.4791 0.00168945 24.3799 0.000339802 24.2804C2.38889e-06 24.2699 0 24.2594 0 24.2489C0 24.3589 0.00910821 24.4686 0.0222673 24.5783ZM0 24.2489V24.1223V22.6111V22.5428V22.1007V22.0499C0 22.0485 0 22.0475 0 22.0465C0 22.0367 2.38889e-06 22.0265 0.000339802 22.0167C0.000339802 22.016 0.000339802 22.0157 0.000339802 22.015C2.38889e-06 22.0265 0 22.038 0 22.0495V22.0499V24.2489Z" fill="white"/>
<path d="M0 22.0491C0 22.0376 2.38889e-06 22.0261 0.000339802 22.0146C0.00168945 21.9168 0.0101232 21.8193 0.0219327 21.7214C0.00944839 21.8247 0.00134928 21.9283 0.000674455 22.0315L0 22.0491Z" fill="white"/>
<path d="M3.44891 17.216C3.07843 17.066 2.72482 16.8961 2.39281 16.7058C2.39281 16.7058 2.39314 16.7058 2.39314 16.7062C2.72516 16.8961 3.07843 17.066 3.44891 17.216ZM2.38977 16.7041C2.38808 16.7035 2.38707 16.7024 2.38572 16.7018C2.38674 16.7024 2.38808 16.7031 2.3891 16.7038C2.38943 16.7038 2.38943 16.7038 2.38977 16.7041ZM2.37863 16.6977C2.3783 16.6977 2.37796 16.6974 2.37762 16.697C2.37796 16.697 2.37863 16.6974 2.37863 16.6977Z" fill="white"/>
<path d="M3.44891 17.216C3.07843 17.066 2.72516 16.8961 2.39314 16.7062C2.72482 16.8957 3.07911 17.0643 3.44891 17.2143V17.216ZM2.3783 16.6977C2.3783 16.6974 2.37796 16.697 2.37762 16.697C2.37796 16.6974 2.3783 16.6974 2.3783 16.6977Z" fill="#B8B5D5"/>
<path d="M0.0246305 21.7008C0.011134 21.5955 0.00168945 21.4902 0.000339802 21.3846C2.38889e-06 21.3738 0 21.3629 0 21.3518C0 21.4682 0.00978432 21.5847 0.0246305 21.7008ZM0 21.3518V19.1524C0 19.1419 2.38889e-06 19.1315 0.000339802 19.121C0.000339802 19.1203 0.000339802 19.1199 0.000339802 19.1193C-0.00134726 19.2476 0.0064113 19.3759 0.0226071 19.5035C0.015184 19.4916 0.00742309 19.4798 0 19.4683V21.3518Z" fill="white"/>
<path d="M3.44882 22.7417C2.41904 22.0673 1.64771 21.4089 1.07107 20.8104C1.41692 21.1581 1.84611 21.4854 2.35931 21.7826C2.70111 21.9807 3.0662 22.157 3.44882 22.3121V22.7417ZM0.880095 20.6066C0.511977 20.2031 0.233614 19.8308 0.0230679 19.5034C0.00653463 19.3758 -0.000888908 19.2475 0.000460744 19.1192C0.00214781 19.022 0.0102442 18.9245 0.0220536 18.8274C0.0996586 19.4404 0.385785 20.0464 0.880095 20.6066Z" fill="#A7B2BA"/>
<path d="M3.4487 22.3122C3.06574 22.1572 2.70099 21.9808 2.35919 21.7828C1.84599 21.4856 1.4168 21.1582 1.07095 20.8106C1.00481 20.7419 0.941043 20.6738 0.879634 20.6068C0.385661 20.0466 0.0995377 19.4406 0.0219327 18.8276C0.0222701 18.8245 0.0226095 18.8215 0.0229469 18.8184C0.0104626 18.7172 0.00168945 18.6163 0.000339802 18.5151C2.38889e-06 18.5046 0 18.4941 0 18.484V16.2843C0 16.2734 2.38889e-06 16.2623 0.000339802 16.2515C0.000339802 16.2515 0.000339802 16.2504 0.000339802 16.2498C-0.0151812 17.4556 0.771328 18.6637 2.35919 19.5835C2.70099 19.7815 3.06574 19.9579 3.4487 20.1129V22.3122Z" fill="white"/>
<path d="M3.44888 20.1129C3.06626 19.9579 2.70117 19.7815 2.35937 19.5835C0.771509 18.6638 -0.0146626 17.4556 0.000520942 16.2501C0.00220801 16.1482 0.0109808 16.0464 0.0238025 15.9445C0.165179 17.0169 0.943927 18.0659 2.35937 18.8858C2.70117 19.0839 3.06626 19.2602 3.44888 19.4153V20.1129Z" fill="#A7B2BA"/>
<path d="M3.4487 19.4152C3.06574 19.2602 2.70099 19.0838 2.35919 18.8858C0.943408 18.0659 0.164997 17.0165 0.0236214 15.9444C0.0239588 15.9414 0.0242931 15.9387 0.0246305 15.9356C0.011134 15.8303 0.00168945 15.7251 0.000339802 15.6198C2.38889e-06 15.6086 0 15.5978 0 15.587V13.4045C0.0077605 14.5931 0.793934 15.7799 2.35919 16.6865C2.36527 16.6902 2.37134 16.6936 2.37741 16.6969L2.37842 16.6976C2.38078 16.699 2.38315 16.7003 2.38551 16.7017C2.38686 16.7024 2.38787 16.703 2.38956 16.7041C2.39057 16.7044 2.39158 16.7051 2.3926 16.7057C2.72461 16.896 3.07822 17.0659 3.4487 17.2159V19.4152ZM2.43039 17.4132C2.26843 17.4132 2.15708 17.5429 2.15708 17.767C2.15708 18.0828 2.37809 18.467 2.65072 18.6251C2.73001 18.6708 2.80491 18.6928 2.87138 18.6928C3.03334 18.6928 3.14469 18.5632 3.14469 18.3391C3.14469 18.0233 2.92368 17.639 2.65072 17.4809C2.57143 17.4349 2.49652 17.4132 2.43039 17.4132Z" fill="white"/>
<path d="M2.87153 18.693C2.80506 18.693 2.73015 18.671 2.65086 18.6253C2.37823 18.4673 2.15723 18.083 2.15723 17.7672C2.15723 17.5431 2.26857 17.4135 2.43053 17.4135C2.49666 17.4135 2.57157 17.4351 2.65086 17.4812C2.92383 17.6392 3.14483 18.0235 3.14483 18.3393C3.14483 18.5634 3.03348 18.693 2.87153 18.693Z" fill="white"/>
<path d="M3.41491 30.9318C3.04713 30.7815 2.69656 30.6113 2.36725 30.421C2.69656 30.6113 3.04747 30.7815 3.41491 30.9318Z" fill="white"/>
<path d="M0.0234985 21.7097C0.0241734 21.7067 0.0241702 21.704 0.0245076 21.7009V21.7013C0.0241702 21.704 0.0241734 21.7067 0.0234985 21.7097Z" fill="white"/>
<path d="M3.44898 22.9813C3.06602 22.8262 2.70127 22.6499 2.35947 22.4518C0.94099 21.6302 0.16224 20.5785 0.0228882 19.504C0.233434 19.831 0.512137 20.2034 0.880255 20.6069C0.940652 20.6756 1.00442 20.7437 1.07123 20.8107C1.64787 21.4092 2.41886 22.0676 3.44898 22.7419V22.9813Z" fill="#A7B2BA"/>
<path d="M1.07086 20.8101C1.00405 20.7432 0.94028 20.6754 0.879883 20.6069C0.940955 20.6737 1.00472 20.7416 1.07086 20.8101Z" fill="white"/>
<path d="M1.4646 23.2755C1.40994 23.2755 1.3482 23.2575 1.28274 23.2196C1.05836 23.0896 0.87616 22.7731 0.87616 22.5131C0.87616 22.3283 0.967596 22.2217 1.10121 22.2217C1.15587 22.2217 1.21762 22.2396 1.28274 22.2775C1.50745 22.4075 1.68966 22.724 1.68966 22.984C1.68966 23.1685 1.59788 23.2755 1.4646 23.2755Z" fill="white"/>
<path d="M49.993 25.1197C49.9242 23.9812 49.141 22.8547 47.6409 21.9857C44.4952 20.1638 39.3952 20.1638 36.2498 21.9857C34.6771 22.8966 33.8906 24.0906 33.8906 25.2845V27.4839C33.8906 28.6781 34.6771 29.8721 36.2498 30.783C39.3952 32.6049 44.4952 32.6049 47.6409 30.783C49.2136 29.8721 49.9997 28.6781 49.9997 27.4839V25.1197H49.993Z" fill="white"/>
<path d="M47.6408 28.5836C44.4951 30.4055 39.3954 30.4055 36.2497 28.5836C33.1043 26.7614 33.1043 23.8075 36.2497 21.9856C39.3954 20.1633 44.4954 20.1633 47.6408 21.9856C50.7861 23.8075 50.7861 26.7614 47.6408 28.5836Z" fill="#A7B2BA"/>
<path d="M49.993 22.2514C49.9242 21.1129 49.141 19.9864 47.6409 19.1174C44.4952 17.2955 39.3952 17.2955 36.2498 19.1174C34.6771 20.0283 33.8906 21.2223 33.8906 22.4166V24.6156C33.8906 25.8099 34.6771 27.0038 36.2498 27.9148C39.3952 29.7367 44.4952 29.7367 47.6409 27.9148C49.2136 27.0038 49.9997 25.8099 49.9997 24.6156V22.2514H49.993Z" fill="white"/>
<path d="M47.6408 25.7157C44.4951 27.5376 39.3954 27.5376 36.2497 25.7157C33.1043 23.8938 33.1043 20.9395 36.2497 19.1177C39.3954 17.2954 44.4954 17.2954 47.6408 19.1177C50.7861 20.9395 50.7861 23.8934 47.6408 25.7157Z" fill="#A7B2BA"/>
<path d="M49.993 19.3543C49.9242 18.2159 49.141 17.0893 47.6409 16.2203C44.4952 14.3984 39.3952 14.3984 36.2498 16.2203C34.6771 17.1312 33.8906 18.3252 33.8906 19.5191V21.7185C33.8906 22.9128 34.6771 24.1067 36.2498 25.0177C39.3952 26.8396 44.4952 26.8396 47.6409 25.0177C49.2136 24.1067 49.9997 22.9128 49.9997 21.7185V19.3543H49.993Z" fill="white"/>
<path d="M47.6408 22.8183C44.4951 24.6406 39.3954 24.6406 36.2497 22.8183C33.1043 20.9964 33.1043 18.0422 36.2497 16.2203C39.3954 14.3984 44.4954 14.3984 47.6408 16.2203C50.7861 18.0422 50.7861 20.9964 47.6408 22.8183Z" fill="#A7B2BA"/>
<path d="M49.993 16.486C49.9242 15.3476 49.141 14.221 47.6409 13.352C44.4952 11.5301 39.3952 11.5301 36.2498 13.352C34.6771 14.2633 33.8906 15.4569 33.8906 16.6509V18.8505C33.8906 20.0445 34.6771 21.2384 36.2498 22.1494C39.3952 23.9716 44.4952 23.9716 47.6409 22.1494C49.2136 21.2384 49.9997 20.0445 49.9997 18.8505V16.486H49.993Z" fill="white"/>
<path d="M47.6408 19.9502C44.4951 21.7724 39.3954 21.7724 36.2497 19.9502C33.1043 18.1283 33.1043 15.1744 36.2497 13.3521C39.3954 11.5302 44.4954 11.5302 47.6408 13.3521C50.7861 15.1744 50.7861 18.1283 47.6408 19.9502Z" fill="#A7B2BA"/>
<path d="M49.993 13.5892C49.9242 12.4508 49.141 11.3239 47.6409 10.4549C44.4952 8.63303 39.3952 8.63303 36.2498 10.4549C34.6771 11.3659 33.8906 12.5602 33.8906 13.7541V15.9534C33.8906 17.1474 34.6771 18.3413 36.2498 19.2523C39.3952 21.0745 44.4952 21.0745 47.6409 19.2523C49.2136 18.3413 49.9997 17.1474 49.9997 15.9534V13.5889L49.993 13.5892Z" fill="white"/>
<path d="M47.6408 17.0531C44.4951 18.875 39.3954 18.875 36.2497 17.0531C33.1043 15.2312 33.1043 12.2769 36.2497 10.455C39.3954 8.63315 44.4954 8.63315 47.6408 10.455C50.7861 12.2769 50.7861 15.2312 47.6408 17.0531Z" fill="#A7B2BA"/>
<path d="M47.0442 16.7079C44.2282 18.3388 39.6623 18.3388 36.8462 16.7079C34.0302 15.0765 34.0302 12.4317 36.8462 10.8008C39.6623 9.16944 44.2282 9.16944 47.0442 10.8008C49.8606 12.4317 49.8606 15.0765 47.0442 16.7079Z" fill="white"/>
<path d="M37.0353 18.7059C37.0353 19.0217 36.8143 19.15 36.5413 18.9919C36.2687 18.8342 36.0477 18.4496 36.0477 18.1338C36.0477 17.8179 36.2687 17.6896 36.5413 17.8477C36.8143 18.0058 37.0353 18.39 37.0353 18.7059Z" fill="white"/>
<path d="M35.5801 23.3508C35.5801 23.6111 35.3979 23.7168 35.1732 23.5864C34.9488 23.4564 34.7666 23.1399 34.7666 22.8799C34.7666 22.6196 34.9488 22.514 35.1732 22.6443C35.3979 22.7743 35.5801 23.0908 35.5801 23.3508Z" fill="#C5BFF0"/>
<path d="M47.0169 18.4753C47.0169 18.7914 47.2379 18.9194 47.5109 18.7613C47.7835 18.6036 48.0045 18.219 48.0045 17.9032C48.0045 17.5873 47.7835 17.459 47.5109 17.6171C47.2379 17.7752 47.0169 18.1594 47.0169 18.4753Z" fill="white"/>
<path d="M47.0169 24.3135C47.0169 24.6293 47.2379 24.7576 47.5109 24.5995C47.7835 24.4414 48.0045 24.0572 48.0045 23.7414C48.0045 23.4252 47.7835 23.2972 47.5109 23.4553C47.2379 23.6131 47.0169 23.9973 47.0169 24.3135Z" fill="white"/>
<path d="M45.7168 19.0036C45.7171 19.2115 45.8815 19.3286 46.0836 19.2653C46.286 19.202 46.45 18.9819 46.4497 18.7741C46.4493 18.5662 46.285 18.4488 46.0826 18.5124C45.8804 18.5757 45.7165 18.7954 45.7168 19.0036Z" fill="white"/>
<path d="M41.9454 32.1496C40.3228 32.1496 38.7002 31.8673 37.3161 31.303C38.6999 31.8673 40.3228 32.1493 41.9451 32.1496H41.9454Z" fill="url(#paint3_linear_0_1630)"/>
<path d="M41.9458 24.1851C40.6738 24.1851 39.4014 24.0118 38.244 23.6645C37.9225 23.4787 37.6215 23.2931 37.3398 23.1087V22.6791C38.7191 23.2373 40.3326 23.5162 41.9458 23.5162V24.1851Z" fill="#A7B2BA"/>
<path d="M41.9458 23.516C40.3326 23.516 38.7191 23.237 37.3398 22.6788V20.4795C38.7191 21.0377 40.3326 21.3166 41.9458 21.3166V23.516Z" fill="white"/>
<path d="M41.9458 21.3169C40.3326 21.3169 38.7191 21.038 37.3398 20.4798V19.7821C38.7188 20.3403 40.3326 20.6193 41.9458 20.6193V21.3169Z" fill="#A7B2BA"/>
<path d="M41.9458 20.619C40.3326 20.619 38.7188 20.3397 37.3398 19.7819V17.5825C37.5598 17.6715 37.7858 17.7535 38.0166 17.8283C39.2337 18.2226 40.5897 18.4197 41.9458 18.4197V20.619Z" fill="white"/>
<path d="M36.268 17.0638C36.262 17.0604 36.2559 17.057 36.2498 17.0533C36.2559 17.057 36.2616 17.0604 36.268 17.0638Z" fill="white"/>
<path d="M41.9458 18.4198C40.5897 18.4198 39.2333 18.2224 38.0166 17.8284C39.2337 18.2227 40.5897 18.4198 41.9458 18.4198Z" fill="#C3BFE1"/>
<path d="M33.8906 25.2846C33.8906 25.2741 33.8906 25.2637 33.891 25.2532C33.891 25.2525 33.891 25.2521 33.891 25.2515C33.8906 25.2626 33.8906 25.2735 33.8906 25.2846Z" fill="white"/>
<path d="M33.8906 25.2843C33.8906 25.2732 33.8906 25.2623 33.891 25.2512C33.8923 25.156 33.9004 25.0609 33.9115 24.9655C33.8994 25.0687 33.8913 25.1719 33.891 25.2752L33.8906 25.2843Z" fill="white"/>
<path d="M33.8906 22.4131C33.8906 22.4029 33.8906 22.3931 33.891 22.3833C33.8906 22.3931 33.8906 22.4033 33.8906 22.4131Z" fill="url(#paint4_linear_0_1630)"/>
<path d="M33.9129 24.9451C33.9007 24.8459 33.8923 24.7467 33.891 24.6472C33.8906 24.6367 33.8906 24.6262 33.8906 24.6157C33.8906 24.7257 33.8997 24.8354 33.9129 24.9451ZM33.8906 24.6157V24.4891V22.978V22.9096V22.4675V22.4167C33.8906 22.4153 33.8906 22.4143 33.8906 22.4133C33.8906 22.4035 33.8906 22.3933 33.891 22.3835C33.891 22.3828 33.891 22.3825 33.891 22.3818C33.8906 22.3933 33.8906 22.4049 33.8906 22.4164V22.4167V24.6157Z" fill="white"/>
<path d="M33.8906 22.4161C33.8906 22.4045 33.8906 22.393 33.891 22.3815C33.8923 22.2837 33.9007 22.1862 33.9126 22.0884C33.9001 22.1916 33.892 22.2952 33.8913 22.3985L33.8906 22.4161Z" fill="white"/>
<path d="M37.3393 17.5828C36.9688 17.4328 36.6152 17.2629 36.2832 17.0726C36.2832 17.0726 36.2835 17.0726 36.2835 17.073C36.6155 17.2629 36.9688 17.4328 37.3393 17.5828ZM36.2802 17.071C36.2785 17.0703 36.2775 17.0693 36.2761 17.0686C36.2771 17.0693 36.2785 17.0699 36.2795 17.0706C36.2798 17.0706 36.2798 17.0706 36.2802 17.071ZM36.269 17.0645C36.2687 17.0645 36.2683 17.0642 36.268 17.0638C36.2683 17.0638 36.269 17.0642 36.269 17.0645Z" fill="white"/>
<path d="M37.3393 17.5828C36.9688 17.4328 36.6155 17.2629 36.2835 17.073C36.6152 17.2626 36.9695 17.4311 37.3393 17.5811V17.5828ZM36.2687 17.0645C36.2687 17.0642 36.2683 17.0638 36.268 17.0638C36.2683 17.0642 36.2687 17.0642 36.2687 17.0645Z" fill="#B8B5D5"/>
<path d="M33.9153 22.0676C33.9018 21.9623 33.8923 21.8571 33.891 21.7514C33.8906 21.7406 33.8906 21.7298 33.8906 21.7186C33.8906 21.835 33.9004 21.9515 33.9153 22.0676ZM33.8906 21.7186V19.5193C33.8906 19.5088 33.8906 19.4983 33.891 19.4878C33.891 19.4871 33.891 19.4868 33.891 19.4861C33.8893 19.6144 33.897 19.7427 33.9132 19.8703C33.9058 19.8585 33.898 19.8466 33.8906 19.8351V21.7186Z" fill="white"/>
<path d="M37.3392 23.1085C36.3094 22.4342 35.5381 21.7757 34.9614 21.1772C35.3073 21.5249 35.7365 21.8522 36.2497 22.1495C36.5915 22.3475 36.9566 22.5239 37.3392 22.6789V23.1085ZM34.7705 20.9735C34.4024 20.5699 34.124 20.1976 33.9134 19.8702C33.8969 19.7426 33.8895 19.6143 33.8908 19.486C33.8925 19.3889 33.9006 19.2914 33.9124 19.1942C33.99 19.8073 34.2762 20.4132 34.7705 20.9735Z" fill="#A7B2BA"/>
<path d="M37.3393 22.6789C36.9564 22.5239 36.5916 22.3475 36.2498 22.1495C35.7366 21.8523 35.3074 21.5249 34.9616 21.1773C34.8954 21.1086 34.8317 21.0405 34.7703 20.9735C34.2763 20.4133 33.9902 19.8073 33.9126 19.1943C33.9129 19.1912 33.9132 19.1882 33.9136 19.1851C33.9011 19.0839 33.8923 18.983 33.891 18.8818C33.8906 18.8713 33.8906 18.8608 33.8906 18.8507V16.651C33.8906 16.6401 33.8906 16.629 33.891 16.6181C33.891 16.6181 33.891 16.6171 33.891 16.6165C33.8754 17.8222 34.662 19.0304 36.2498 19.9502C36.5916 20.1482 36.9564 20.3246 37.3393 20.4796V22.6789Z" fill="white"/>
<path d="M37.3393 20.4798C36.9566 20.3247 36.5916 20.1484 36.2498 19.9503C34.6619 19.0306 33.8757 17.8224 33.8909 16.617C33.8926 16.5151 33.9014 16.4132 33.9142 16.3113C34.0556 17.3837 34.8343 18.4328 36.2498 19.2526C36.5916 19.4507 36.9566 19.627 37.3393 19.7821V20.4798Z" fill="#A7B2BA"/>
<path d="M37.3393 19.7819C36.9564 19.6269 36.5916 19.4505 36.2498 19.2525C34.834 18.4326 34.0556 17.3832 33.9142 16.3111C33.9146 16.3081 33.9149 16.3054 33.9153 16.3023C33.9018 16.197 33.8923 16.0918 33.891 15.9865C33.8906 15.9753 33.8906 15.9645 33.8906 15.9537V13.7712C33.8984 14.9598 34.6846 16.1466 36.2498 17.0532C36.2559 17.0569 36.262 17.0603 36.268 17.0636L36.269 17.0643C36.2714 17.0657 36.2738 17.067 36.2761 17.0684C36.2775 17.0691 36.2785 17.0697 36.2802 17.0707C36.2812 17.0711 36.2822 17.0718 36.2832 17.0724C36.6152 17.2627 36.9688 17.4326 37.3393 17.5826V19.7819ZM36.321 17.7799C36.1591 17.7799 36.0477 17.9096 36.0477 18.1337C36.0477 18.4495 36.2687 18.8337 36.5413 18.9918C36.6206 19.0375 36.6955 19.0595 36.762 19.0595C36.924 19.0595 37.0353 18.9299 37.0353 18.7058C37.0353 18.39 36.8143 18.0057 36.5413 17.8476C36.4621 17.8016 36.3871 17.7799 36.321 17.7799Z" fill="white"/>
<path d="M36.762 19.0593C36.6955 19.0593 36.6206 19.0373 36.5413 18.9916C36.2687 18.8335 36.0477 18.4493 36.0477 18.1334C36.0477 17.9093 36.159 17.7797 36.321 17.7797C36.3871 17.7797 36.462 17.8013 36.5413 17.8474C36.8143 18.0055 37.0353 18.3897 37.0353 18.7055C37.0353 18.9296 36.9239 19.0593 36.762 19.0593Z" fill="white"/>
<path d="M37.3059 31.2987C36.9381 31.1484 36.5876 30.9781 36.2582 30.7878C36.5876 30.9781 36.9385 31.1484 37.3059 31.2987Z" fill="white"/>
<path d="M33.9145 22.0762C33.9152 22.0731 33.9152 22.0704 33.9155 22.0674V22.0677C33.9152 22.0704 33.9152 22.0731 33.9145 22.0762Z" fill="white"/>
<path d="M37.3394 23.3481C36.9564 23.193 36.5917 23.0167 36.2499 22.8186C34.8314 21.9971 34.0526 20.9453 33.9133 19.8708C34.1238 20.1979 34.4025 20.5702 34.7706 20.9737C34.831 21.0425 34.8948 21.1105 34.9616 21.1775C35.5382 21.776 36.3092 22.4344 37.3394 23.1088V23.3481Z" fill="#A7B2BA"/>
<path d="M34.9615 21.1765C34.8947 21.1097 34.8309 21.0419 34.7705 20.9734C34.8316 21.0402 34.8953 21.108 34.9615 21.1765Z" fill="white"/>
<path d="M35.355 23.6423C35.3004 23.6423 35.2386 23.6244 35.1732 23.5864C34.9488 23.4565 34.7666 23.1399 34.7666 22.88C34.7666 22.6951 34.858 22.5885 34.9917 22.5885C35.0463 22.5885 35.1081 22.6064 35.1732 22.6444C35.3979 22.7743 35.5801 23.0909 35.5801 23.3508C35.5801 23.5353 35.4883 23.6423 35.355 23.6423Z" fill="white"/>
<path d="M34.3662 28.3656C34.3662 28.3551 34.3665 28.3446 34.3665 28.3341C34.3665 28.3334 34.3665 28.3331 34.3665 28.3324C34.3665 28.3436 34.3662 28.3544 34.3662 28.3656Z" fill="#7972B6"/>
<path d="M34.3662 28.3656C34.3662 28.3545 34.3665 28.3436 34.3665 28.3325C34.3682 28.2373 34.376 28.1422 34.3871 28.0468C34.375 28.15 34.3669 28.2533 34.3665 28.3565L34.3662 28.3656Z" fill="#524B87"/>
<path d="M34.3662 27.5705V26.059V27.5702V27.5705ZM34.3662 25.4944C34.3662 25.4842 34.3665 25.4744 34.3665 25.4646C34.3665 25.4744 34.3665 25.4846 34.3662 25.4944Z" fill="url(#paint5_linear_0_1630)"/>
<path d="M34.3665 27.7276C34.3665 27.7172 34.3662 27.7071 34.3662 27.6966V27.5704V27.5701V27.6966C34.3662 27.7067 34.3665 27.7172 34.3665 27.7276Z" fill="url(#paint6_linear_0_1630)"/>
<path d="M34.3885 28.0261C34.3763 27.9266 34.3679 27.8274 34.3665 27.7279C34.3665 27.7178 34.3662 27.7069 34.3662 27.6968C34.3662 27.8064 34.3753 27.9165 34.3885 28.0261ZM34.3662 27.6968V27.5698V26.0587V25.9906V25.5485V25.4974C34.3662 25.4961 34.3662 25.4951 34.3662 25.494C34.3665 25.4842 34.3665 25.4741 34.3665 25.4643C34.3665 25.4639 34.3665 25.4632 34.3665 25.4629C34.3665 25.4741 34.3665 25.4859 34.3662 25.4971V25.4974V27.6968Z" fill="#7972B6"/>
<path d="M34.3662 25.497C34.3665 25.4859 34.3665 25.474 34.3665 25.4628C34.3682 25.365 34.3763 25.2672 34.3885 25.1697C34.3757 25.2729 34.3676 25.3762 34.3669 25.4798L34.3662 25.497Z" fill="#524B87"/>
<path d="M34.3908 25.1485C34.3773 25.0433 34.3682 24.938 34.3665 24.8324C34.3665 24.8215 34.3662 24.8107 34.3662 24.7995C34.3662 24.916 34.376 25.0324 34.3908 25.1485ZM34.3662 24.7995V22.6002C34.3662 22.5897 34.3665 22.5792 34.3665 22.5687C34.3665 22.568 34.3665 22.5677 34.3665 22.567C34.3649 22.6953 34.3726 22.8236 34.3888 22.9512C34.3814 22.9394 34.3736 22.9275 34.3662 22.916V24.7995Z" fill="#7972B6"/>
<path d="M34.39 25.1575C34.3903 25.1544 34.3906 25.1517 34.391 25.1487V25.149C34.3906 25.1517 34.3903 25.1544 34.39 25.1575Z" fill="#8078C0"/>
<path d="M35.4373 24.2576C35.3704 24.1908 35.3067 24.1229 35.2463 24.0544C35.3073 24.1216 35.3711 24.1891 35.4373 24.2576Z" fill="#6D66A3"/>
<path d="M33.7153 35.9584C33.6461 34.8197 32.863 33.6934 31.3629 32.8244C28.2175 31.0022 23.1175 31.0022 19.9718 32.8244C18.3991 33.735 17.6126 34.9293 17.6126 36.1233V38.3226C17.6126 39.5166 18.3991 40.7105 19.9718 41.6215C23.1175 43.4437 28.2172 43.4437 31.3629 41.6215C32.9355 40.7105 33.7221 39.5166 33.7221 38.3226V35.9581L33.7153 35.9584Z" fill="white"/>
<path d="M31.3632 39.4222C28.2175 41.2444 23.1179 41.2444 19.9725 39.4222C16.8268 37.6003 16.8268 34.6461 19.9725 32.8242C23.1179 31.0023 28.2179 31.0023 31.3632 32.8242C34.5086 34.6461 34.5086 37.6003 31.3632 39.4222Z" fill="#A7B2BA"/>
<path d="M33.7153 33.0901C33.6461 31.9514 32.863 30.8251 31.3629 29.9562C28.2175 28.1339 23.1175 28.1339 19.9718 29.9562C18.3991 30.8671 17.6126 32.061 17.6126 33.255V35.4543C17.6126 36.6483 18.3991 37.8422 19.9718 38.7535C23.1175 40.5754 28.2172 40.5754 31.3629 38.7535C32.9355 37.8422 33.7221 36.6483 33.7221 35.4543V33.0901H33.7153Z" fill="white"/>
<path d="M31.3632 36.5542C28.2175 38.3761 23.1179 38.3761 19.9725 36.5542C16.8268 34.7323 16.8268 31.778 19.9725 29.9562C23.1179 28.1339 28.2179 28.1339 31.3632 29.9562C34.5086 31.778 34.5086 34.7319 31.3632 36.5542Z" fill="#A7B2BA"/>
<path d="M33.7153 30.1935C33.6461 29.0551 32.863 27.9285 31.3629 27.0595C28.2175 25.2376 23.1175 25.2376 19.9718 27.0595C18.3991 27.9705 17.6126 29.1644 17.6126 30.3584V32.5577C17.6126 33.752 18.3991 34.9459 19.9718 35.8569C23.1175 37.6788 28.2172 37.6788 31.3629 35.8569C32.9355 34.9459 33.7221 33.752 33.7221 32.5577V30.1935H33.7153Z" fill="white"/>
<path d="M31.3632 33.6576C28.2175 35.4794 23.1179 35.4794 19.9725 33.6576C16.8268 31.8357 16.8268 28.8814 19.9725 27.0595C23.1179 25.2376 28.2179 25.2376 31.3632 27.0595C34.5086 28.8814 34.5086 31.8353 31.3632 33.6576Z" fill="#A7B2BA"/>
<path d="M33.7153 27.325C33.6461 26.1866 32.863 25.06 31.3629 24.191C28.2175 22.3691 23.1175 22.3691 19.9718 24.191C18.3991 25.102 17.6126 26.2959 17.6126 27.4898V29.6895C17.6126 30.8835 18.3991 32.0774 19.9718 32.9884C23.1175 34.8106 28.2172 34.8106 31.3629 32.9884C32.9355 32.0774 33.7221 30.8835 33.7221 29.6895V27.325H33.7153Z" fill="white"/>
<path d="M31.3632 30.789C28.2175 32.6109 23.1179 32.6109 19.9725 30.789C16.8268 28.9671 16.8268 26.0129 19.9725 24.191C23.1179 22.3691 28.2179 22.3691 31.3632 24.191C34.5086 26.0129 34.5086 28.9671 31.3632 30.789Z" fill="#A7B2BA"/>
<path d="M33.7153 24.4279C33.6461 23.2895 32.863 22.1629 31.3629 21.2939C28.2175 19.472 23.1175 19.472 19.9718 21.2939C18.3991 22.2049 17.6126 23.3988 17.6126 24.5931V26.7921C17.6126 27.9864 18.3991 29.1803 19.9718 30.0913C23.1175 31.9132 28.2172 31.9132 31.3629 30.0913C32.9355 29.1803 33.7221 27.9864 33.7221 26.7921V24.4279H33.7153Z" fill="white"/>
<path d="M31.3632 27.8919C28.2175 29.7138 23.1179 29.7138 19.9725 27.8919C16.8268 26.07 16.8268 23.1158 19.9725 21.2939C23.1179 19.472 28.2179 19.472 31.3632 21.2939C34.5086 23.1158 34.5086 26.07 31.3632 27.8919Z" fill="#A7B2BA"/>
<path d="M30.7667 27.5465C27.9507 29.1778 23.3848 29.1778 20.5688 27.5465C17.7527 25.9155 17.7527 23.2707 20.5688 21.6394C23.3848 20.0081 27.9507 20.0081 30.7667 21.6394C33.5831 23.2707 33.5831 25.9155 30.7667 27.5465Z" fill="white"/>
<path d="M20.7578 29.5448C20.7578 29.8606 20.5368 29.9889 20.2642 29.8308C19.9912 29.6727 19.7702 29.2885 19.7702 28.9727C19.7702 28.6565 19.9912 28.5286 20.2642 28.6866C20.5368 28.8447 20.7578 29.229 20.7578 29.5448Z" fill="white"/>
<path d="M19.3018 34.19C19.3018 34.4503 19.1196 34.5556 18.8952 34.4256C18.6705 34.2956 18.4883 33.9791 18.4883 33.7188C18.4883 33.4585 18.6705 33.3532 18.8952 33.4835C19.1196 33.6135 19.3018 33.93 19.3018 34.19Z" fill="#C5BFF0"/>
<path d="M30.7394 29.3141C30.7394 29.63 30.9608 29.7579 31.2334 29.6002C31.506 29.4421 31.7274 29.0579 31.7274 28.742C31.7274 28.4262 31.506 28.2979 31.2334 28.456C30.9608 28.6141 30.7394 28.998 30.7394 29.3141Z" fill="white"/>
<path d="M31.9742 28.4625C31.9742 28.6974 32.1388 28.7929 32.3416 28.6754C32.5444 28.558 32.7091 28.2719 32.7091 28.037C32.7091 27.8021 32.5444 27.7066 32.3416 27.8241C32.1388 27.9419 31.9742 28.2276 31.9742 28.4625Z" fill="white"/>
<path d="M30.7394 35.1524C30.7394 35.4685 30.9608 35.5965 31.2334 35.4384C31.506 35.2807 31.7274 34.8964 31.7274 34.5806C31.7274 34.2644 31.506 34.1365 31.2334 34.2942C30.9608 34.4523 30.7394 34.8365 30.7394 35.1524Z" fill="white"/>
<path d="M31.9742 34.3007C31.9742 34.5356 32.1388 34.6311 32.3416 34.5136C32.5444 34.3962 32.7091 34.1101 32.7091 33.8752C32.7091 33.6399 32.5444 33.5448 32.3416 33.6623C32.1388 33.7801 31.9742 34.0658 31.9742 34.3007Z" fill="white"/>
<path d="M29.4385 29.842C29.4388 30.0499 29.6031 30.167 29.8056 30.1037C30.0077 30.0404 30.1717 29.8203 30.1713 29.6125C30.171 29.4043 30.0067 29.2872 29.8046 29.3508C29.6021 29.4138 29.4381 29.6338 29.4385 29.842Z" fill="white"/>
<path d="M25.6676 42.9883C24.045 42.9883 22.4224 42.7063 21.0383 42.1416C22.4224 42.7059 24.0453 42.9883 25.6673 42.9883H25.6676Z" fill="#F5F5F5"/>
<path d="M25.6677 35.0234C24.3953 35.0234 23.123 34.8501 21.966 34.5031C21.6441 34.3173 21.3431 34.1314 21.0617 33.9473V33.5177C22.4407 34.0756 24.0542 34.3549 25.6677 34.3549V35.0234Z" fill="#A7B2BA"/>
<path d="M25.6677 34.3548C24.0542 34.3548 22.4407 34.0759 21.0617 33.5177V31.3184C22.4407 31.8766 24.0542 32.1555 25.6674 32.1555H25.6677V34.3548Z" fill="white"/>
<path d="M25.6674 32.1554C24.0542 32.1554 22.4407 31.8765 21.0617 31.3183V30.6206C22.4404 31.1785 24.0542 31.4578 25.6674 31.4578H25.6677V32.1554H25.6674Z" fill="#A7B2BA"/>
<path d="M25.6674 31.4579C24.0542 31.4579 22.4404 31.1786 21.0617 30.6207V28.4214C21.2817 28.5104 21.5074 28.592 21.7382 28.6672C22.9553 29.0612 24.3117 29.2585 25.6677 29.2585V31.4579H25.6674Z" fill="white"/>
<path d="M17.6126 36.1233C17.6126 36.1128 17.6129 36.1023 17.6129 36.0914C17.6129 36.0911 17.6129 36.0904 17.6129 36.0901C17.6129 36.1013 17.6126 36.1118 17.6126 36.1229V36.1233Z" fill="white"/>
<path d="M17.6126 36.123C17.6126 36.1122 17.6129 36.1013 17.6129 36.0901C17.6146 35.9947 17.6224 35.8996 17.6339 35.8044C17.6214 35.9077 17.6136 36.0106 17.6129 36.1142L17.6126 36.123Z" fill="white"/>
<path d="M17.6126 33.252C17.6126 33.2419 17.6129 33.2321 17.6129 33.2219C17.6129 33.2321 17.6129 33.2419 17.6126 33.252Z" fill="url(#paint7_linear_0_1630)"/>
<path d="M17.6349 35.7839C17.6227 35.6848 17.6143 35.5852 17.6129 35.486C17.6129 35.4756 17.6126 35.4651 17.6126 35.4546C17.6126 35.5646 17.6217 35.6743 17.6349 35.7839ZM17.6126 35.4546V35.328V33.8165V33.7484V33.3063V33.2552C17.6126 33.2542 17.6126 33.2532 17.6126 33.2519C17.6129 33.242 17.6129 33.2322 17.6129 33.2221C17.6129 33.2217 17.6129 33.221 17.6129 33.2207C17.6129 33.2322 17.6129 33.2441 17.6126 33.2552V35.4546Z" fill="white"/>
<path d="M17.6126 33.255C17.6129 33.2435 17.6129 33.232 17.6129 33.2205C17.6146 33.1227 17.6227 33.0252 17.6349 32.9274C17.6221 33.0306 17.6143 33.1342 17.6136 33.2374L17.6126 33.255Z" fill="white"/>
<path d="M21.0615 28.4214C20.691 28.2711 20.3374 28.1012 20.0054 27.9109L20.0058 27.9113C20.3378 28.1015 20.691 28.2714 21.0615 28.4214ZM20.0024 27.9092C20.001 27.9086 19.9997 27.9079 19.9983 27.9069L19.9987 27.9072C19.9997 27.9079 20.0007 27.9082 20.0017 27.9089L20.0024 27.9092ZM19.9916 27.9031C19.9909 27.9028 19.9902 27.9025 19.9902 27.9025L19.9909 27.9028L19.9916 27.9031Z" fill="white"/>
<path d="M21.0615 28.4214C20.6914 28.2714 20.3378 28.1015 20.0058 27.9113C20.3378 28.1012 20.6917 28.2698 21.0615 28.4197V28.4214Z" fill="#B8B5D5"/>
<path d="M17.6372 32.906C17.6237 32.8011 17.6146 32.6955 17.6129 32.5902C17.6129 32.579 17.6126 32.5682 17.6126 32.5573C17.6126 32.6738 17.6224 32.7899 17.6372 32.906ZM17.6126 32.5573V30.358C17.6126 30.3475 17.6129 30.337 17.6129 30.3262C17.6129 30.3259 17.6129 30.3252 17.6129 30.3248C17.6113 30.4528 17.619 30.5814 17.6356 30.709C17.6278 30.6972 17.6204 30.6854 17.6126 30.6735V32.5573Z" fill="white"/>
<path d="M21.0617 33.9473C20.032 33.273 19.2606 32.6146 18.684 32.0161C19.0298 32.3638 19.4594 32.6911 19.9726 32.9883C20.314 33.1864 20.6791 33.3627 21.0617 33.5178V33.9473ZM18.493 31.8123C18.1249 31.4088 17.8465 31.0364 17.636 30.7091C17.6194 30.5815 17.612 30.4532 17.6134 30.3249C17.6151 30.2277 17.6232 30.1302 17.635 30.0331C17.7129 30.6461 17.9987 31.2521 18.493 31.8123Z" fill="#A7B2BA"/>
<path d="M21.0613 33.5179C20.6783 33.3629 20.3136 33.1865 19.9718 32.9885C19.4586 32.6913 19.0294 32.3639 18.6836 32.0163C18.6174 31.9476 18.5537 31.8795 18.4926 31.8125C17.9983 31.2522 17.7121 30.6463 17.6345 30.0332C17.6349 30.0302 17.6352 30.0272 17.6356 30.0238C17.6231 29.9229 17.6146 29.822 17.6129 29.7208C17.6129 29.7103 17.6126 29.6998 17.6126 29.6897V27.49C17.6126 27.4791 17.6129 27.468 17.6129 27.4571C17.6129 27.4565 17.6129 27.4561 17.6129 27.4554C17.5978 28.6612 18.3839 29.8694 19.9718 30.7891C20.3136 30.9872 20.6783 31.1636 21.0613 31.3186V33.5179Z" fill="white"/>
<path d="M21.0618 31.3184C20.6792 31.1634 20.3144 30.987 19.9726 30.789C18.3844 29.8692 17.5983 28.6607 17.6134 27.4552C17.6151 27.3534 17.6242 27.2515 17.6371 27.1499C17.7784 28.222 18.5568 29.2711 19.9726 30.0913C20.3144 30.2893 20.6792 30.4657 21.0618 30.6207V31.3184Z" fill="#A7B2BA"/>
<path d="M21.0613 30.6208C20.6783 30.4658 20.3136 30.2894 19.9718 30.0914C18.5564 29.2715 17.7776 28.2221 17.6362 27.15C17.6366 27.1469 17.6369 27.1442 17.6372 27.1412C17.6237 27.0359 17.6146 26.9306 17.6129 26.825C17.6129 26.8142 17.6126 26.8034 17.6126 26.7922V24.6101C17.6204 25.7986 18.4065 26.9855 19.9718 27.892C19.9779 27.8954 19.9839 27.8988 19.99 27.9025C19.99 27.9025 19.9907 27.9029 19.9914 27.9032C19.9937 27.9045 19.9958 27.9059 19.9981 27.9073C19.9995 27.9079 20.0008 27.9086 20.0022 27.9096C20.0032 27.91 20.0042 27.9106 20.0052 27.9113C20.3372 28.1016 20.6908 28.2715 21.0613 28.4215V30.6208ZM20.043 28.6188C19.881 28.6188 19.7697 28.7485 19.7697 28.9726C19.7697 29.2884 19.9907 29.6726 20.2637 29.8307C20.343 29.8764 20.4179 29.8981 20.484 29.8981C20.646 29.8981 20.7573 29.7688 20.7573 29.5447C20.7573 29.2285 20.5363 28.8446 20.2637 28.6865C20.1844 28.6405 20.1095 28.6188 20.043 28.6188Z" fill="white"/>
<path d="M20.4845 29.8981C20.4184 29.8981 20.3435 29.8765 20.2642 29.8304C19.9912 29.6727 19.7702 29.2885 19.7702 28.9723C19.7702 28.7482 19.8816 28.6189 20.0435 28.6189C20.11 28.6189 20.1849 28.6406 20.2642 28.6863C20.5368 28.8443 20.7578 29.2286 20.7578 29.5444C20.7578 29.7685 20.6465 29.8981 20.4845 29.8981Z" fill="white"/>
<path d="M21.0278 42.1375C20.6604 41.9869 20.3095 41.8166 19.9802 41.6263V41.6267C20.3098 41.8169 20.6604 41.9872 21.0278 42.1375Z" fill="white"/>
<path d="M19.98 41.6264V41.6261C19.9773 41.6247 19.9746 41.6231 19.9722 41.6217C19.9746 41.6234 19.9773 41.6247 19.98 41.6264Z" fill="#736CAC"/>
<path d="M21.0616 34.1867C20.6789 34.0316 20.3138 33.8553 19.972 33.6572C18.5536 32.8357 17.7748 31.7839 17.6358 30.7091C17.8463 31.0365 18.1247 31.4088 18.4928 31.8123C18.5532 31.8811 18.617 31.9491 18.6838 32.0161C19.2604 32.6146 20.0318 33.273 21.0616 33.9474V34.1867Z" fill="#A7B2BA"/>
<path d="M18.6836 32.0156C18.6168 31.9485 18.5531 31.8807 18.4927 31.8125C18.5537 31.8793 18.6175 31.9471 18.6836 32.0156Z" fill="white"/>
<path d="M19.0767 34.4814C19.0221 34.4814 18.9603 34.4635 18.8952 34.4256C18.6705 34.2956 18.4883 33.9791 18.4883 33.7187C18.4883 33.5343 18.5801 33.4276 18.7133 33.4276C18.768 33.4276 18.8297 33.4456 18.8952 33.4831C19.1196 33.6135 19.3018 33.93 19.3018 34.19C19.3018 34.3744 19.21 34.4814 19.0767 34.4814Z" fill="white"/>
<defs>
<linearGradient id="paint0_linear_0_1630" x1="38.9256" y1="53.8655" x2="23.0736" y2="-9.46817" gradientUnits="userSpaceOnUse">
<stop stop-color="#221A3C"/>
<stop offset="1" stop-color="#190F23"/>
</linearGradient>
<linearGradient id="paint1_linear_0_1630" x1="21.9949" y1="61.7448" x2="5.93254" y2="-1.70939" gradientUnits="userSpaceOnUse">
<stop stop-color="#261D43"/>
<stop offset="1" stop-color="#1C1127"/>
</linearGradient>
<linearGradient id="paint2_linear_0_1630" x1="22.1721" y1="61.7452" x2="6.22275" y2="-1.77048" gradientUnits="userSpaceOnUse">
<stop stop-color="#2A214B"/>
<stop offset="1" stop-color="#1F132B"/>
</linearGradient>
<linearGradient id="paint3_linear_0_1630" x1="55.8853" y1="62.1117" x2="39.823" y2="-1.34245" gradientUnits="userSpaceOnUse">
<stop stop-color="#261D43"/>
<stop offset="1" stop-color="#1C1127"/>
</linearGradient>
<linearGradient id="paint4_linear_0_1630" x1="56.0627" y1="62.1119" x2="40.1134" y2="-1.40378" gradientUnits="userSpaceOnUse">
<stop stop-color="#2A214B"/>
<stop offset="1" stop-color="#1F132B"/>
</linearGradient>
<linearGradient id="paint5_linear_0_1630" x1="56.2024" y1="65.1931" x2="40.0376" y2="1.79416" gradientUnits="userSpaceOnUse">
<stop stop-color="#2A214B"/>
<stop offset="1" stop-color="#1F132B"/>
</linearGradient>
<linearGradient id="paint6_linear_0_1630" x1="56.2023" y1="65.071" x2="40.1358" y2="1.85284" gradientUnits="userSpaceOnUse">
<stop stop-color="#221A3C"/>
<stop offset="1" stop-color="#190F23"/>
</linearGradient>
<linearGradient id="paint7_linear_0_1630" x1="39.4488" y1="72.9509" x2="23.2838" y2="9.55175" gradientUnits="userSpaceOnUse">
<stop stop-color="#2A214B"/>
<stop offset="1" stop-color="#1F132B"/>
</linearGradient>
</defs>
</svg>
