<svg width="1398" height="356" viewBox="0 0 1398 356" fill="none" xmlns="http://www.w3.org/2000/svg">
<g opacity="0.08">
<mask id="mask0_0_2971" style="mask-type:alpha" maskUnits="userSpaceOnUse" x="0" y="0" width="1398" height="356">
<rect width="1398" height="356" rx="30" fill="white"/>
</mask>
<g mask="url(#mask0_0_2971)">
<path opacity="0.7" d="M-362.566 215.01C-357.868 212.528 -353.213 209.999 -348.558 207.563C-342.825 204.519 -337.05 201.475 -331.36 198.384C-309.119 186.441 -290.585 176.652 -273.042 167.52C-262.051 161.759 -249.896 157.263 -237.008 152.486C-216.706 144.992 -195.758 137.265 -179.81 124.057C-171.319 117.032 -164.552 109.304 -159.078 100.406C-152.268 89.353 -148.906 78.3468 -145.285 66.6851C-140.845 52.3069 -136.276 37.4135 -124.682 22.0518C-105.07 -3.98818 -72.4843 -23.2372 -41.7088 -26.9371C-38.1744 -27.3586 -33.9934 -27.8269 -29.9417 -28.1079C-0.588715 -30.1218 22.9023 -27.1244 45.6606 -24.1739C79.1947 -19.8651 111.22 -15.8373 156.65 -29.2788H146.263C106.306 -19.2562 76.7809 -22.9562 45.9624 -26.9371C39.5831 -27.7333 33.1608 -28.5763 26.523 -29.2788H-44.5967C-75.6307 -24.7359 -106.88 -5.95523 -126.665 20.3189C-138.518 36.0553 -143.173 51.1828 -147.699 65.7952C-151.233 77.2696 -154.595 88.1353 -161.19 98.8604C-166.492 107.525 -173.129 115.018 -181.362 121.856C-196.965 134.782 -217.741 142.416 -237.827 149.863C-250.197 154.453 -262.999 159.183 -274.162 164.991C-291.705 174.123 -310.24 183.959 -332.481 195.901C-338.17 198.946 -343.903 201.99 -349.679 205.081C-353.946 207.376 -358.256 209.624 -362.566 211.966V215.01Z" fill="#91BFFF"/>
<path opacity="0.7" d="M-362.568 241.518C-344.336 231.449 -325.672 222.222 -307.353 213.183L-296.061 207.61C-278.604 198.946 -259.897 189.907 -238.863 179.978C-228.087 174.873 -216.363 170.892 -203.907 166.677C-184.122 159.979 -163.692 153.048 -147.614 141.292C-139.296 135.204 -132.27 128.413 -126.235 120.545C-118.649 110.663 -114.167 100.734 -109.425 90.196C-103.779 77.6443 -97.9599 64.718 -86.3221 51.3702C-65.9344 27.9998 -34.6849 10.39 -4.81461 5.47238C-1.28015 4.91037 2.6853 4.25468 6.47836 3.78634C34.6245 0.320585 57.2535 0.46109 79.1928 0.601593C117.468 0.835766 153.631 1.0231 212.079 -18.2259C223.07 -21.879 233.717 -25.6257 243.975 -29.2788H235.786C227.811 -26.4687 219.751 -23.6587 211.346 -20.8954C153.244 -1.74013 117.296 -1.9743 79.1928 -2.20848C57.2104 -2.34898 34.4521 -2.48948 6.17664 1.0231C2.34048 1.49145 -1.66809 2.14713 -5.20255 2.75598C-35.5901 7.76727 -67.3999 25.658 -88.1755 49.45C-100.072 63.0788 -105.977 76.2393 -111.71 88.9314C-116.365 99.3287 -120.804 109.117 -128.175 118.718C-134.08 126.399 -140.89 133.003 -149.037 138.951C-164.812 150.472 -185.071 157.357 -204.682 164.007C-216.622 168.082 -228.993 172.25 -239.898 177.402C-260.932 187.331 -279.681 196.417 -297.138 205.034L-308.431 210.607C-326.405 219.459 -344.724 228.498 -362.611 238.38V241.518H-362.568Z" fill="#91BFFF"/>
<path opacity="0.7" d="M511.125 -5.81425C543.453 6.92474 575.564 12.0297 609.443 9.7348C653.667 6.7374 682.675 -10.4509 712.416 -29.2783H707.373C679.183 -11.5749 651.08 4.1615 609.314 7.0184C575.823 9.26646 544.013 4.25517 512.031 -8.34331C498.798 -13.5888 485.479 -19.8178 472.592 -25.8126C470.135 -26.9366 467.678 -28.1075 465.178 -29.2315H458.669C462.936 -27.2644 467.247 -25.2974 471.557 -23.2835C484.445 -17.2887 497.807 -11.1065 511.125 -5.81425Z" fill="#91BFFF"/>
<path opacity="0.7" d="M-362.569 270.415C-333.389 249.621 -300.286 234.634 -268.131 220.162L-260.76 216.837C-244.166 209.343 -225.804 201.335 -204.684 192.436C-194.123 187.987 -182.701 184.474 -170.632 180.774C-151.408 174.873 -131.581 168.785 -115.374 158.528C-107.185 153.376 -99.9867 147.522 -93.3488 140.684C-84.8576 131.926 -79.2111 123.027 -73.2198 113.567C-66.4527 102.935 -59.5131 91.9292 -47.9615 80.6421C-26.7981 60.0349 3.11533 44.0175 32.1235 37.8822L33.589 37.5544C36.7786 36.8987 39.882 36.1962 42.9424 35.6342C71.0885 30.4824 93.7606 27.6255 115.7 24.8154C151.562 20.2724 185.44 15.9637 239.75 2.52218L243.457 1.58549C305.439 -13.7762 354.36 -25.9064 417.937 -7.78141C439.661 -1.55242 461.299 9.31318 484.143 20.7876C498.281 27.9065 512.936 35.2595 527.591 41.3948C559.013 54.4616 590.004 59.9413 622.417 58.021C669.83 55.2578 697.028 34.838 725.821 13.2473C743.148 0.227289 761.036 -13.2142 784.139 -23.19C789.44 -25.4848 794.742 -27.3114 799.828 -28.6696C800.906 -28.9506 801.94 -29.1379 802.975 -29.4189H792.932C789.742 -28.3418 786.509 -27.1709 783.234 -25.7659C759.829 -15.6964 741.812 -2.16127 724.398 10.9524C695.907 32.3557 669.011 52.5414 622.331 55.2578C590.305 57.1312 559.659 51.7452 528.539 38.7721C513.97 32.6368 499.358 25.3306 485.264 18.2117C462.29 6.69044 440.609 -4.22199 418.627 -10.5446C354.447 -28.8569 305.266 -16.6331 242.939 -1.17775L239.233 -0.241056C185.052 13.2004 151.217 17.4624 115.441 22.0053C93.4589 24.9091 70.7437 27.766 42.5113 32.9646C39.451 33.5266 36.3045 34.1823 33.0718 34.8848L31.6063 35.2126C2.16705 41.4885 -28.2205 57.6932 -49.6857 78.6282C-61.4528 90.1027 -68.5216 101.249 -75.375 112.021C-81.2801 121.341 -86.8834 130.146 -95.1591 138.717C-101.668 145.414 -108.693 151.128 -116.711 156.186C-132.616 166.256 -152.314 172.297 -171.365 178.152C-182.96 181.711 -194.985 185.411 -205.632 189.907C-226.795 198.806 -245.157 206.814 -261.795 214.308L-269.122 217.633C-300.889 231.964 -333.561 246.717 -362.612 267.09V270.415H-362.569Z" fill="#91BFFF"/>
<path opacity="0.7" d="M-362.566 312.191C-352.567 300.576 -343.256 291.21 -333.558 283.06C-303.128 257.629 -265.844 242.502 -229.81 227.843L-225.499 226.11C-209.465 219.6 -191.491 212.668 -170.543 204.94C-160.155 201.1 -149.035 198.056 -137.311 194.871C-118.734 189.766 -99.4667 184.521 -83.1738 175.809C-75.1998 171.548 -67.7861 166.63 -60.5448 160.822C-50.976 153.142 -43.9071 145.18 -36.4503 136.749C-28.778 128.085 -20.8471 119.093 -9.59723 109.96C12.1697 92.2099 40.8331 77.7849 69.0654 70.2913L72.5568 69.3547C74.8843 68.7458 77.1257 68.137 79.4101 67.5749C99.7116 62.5168 116.867 57.8334 133.461 53.2904C173.288 42.4248 207.684 33.0111 267.339 23.3632C327.769 13.6216 377.725 12.3571 439.836 36.3832C458.026 43.4552 476.215 53.3841 495.439 63.9219C511.214 72.5394 527.507 81.4379 543.929 88.7441C574.489 102.139 604.36 107.946 635.264 106.494C683.496 104.2 708.065 82.2341 734.056 58.9574C749.444 45.2349 765.306 30.9972 786.9 20.319C791.857 17.8836 796.857 15.8697 801.771 14.4178C824.313 7.62681 846.727 6.83062 866.554 6.1281C886.209 5.42559 904.786 4.76991 920.002 -1.59959C932.76 -6.93872 944.57 -12.4652 957.113 -18.2727C964.872 -21.8789 972.717 -25.532 980.949 -29.2319H974.354C968.148 -26.375 962.07 -23.565 956.122 -20.8017C943.622 -14.9942 931.812 -9.46778 919.096 -4.17548C904.269 2.00667 885.907 2.66235 866.468 3.36487C846.511 4.06739 823.926 4.86357 801.081 11.7482C796.038 13.2469 790.909 15.3077 785.823 17.7899C763.926 28.6555 747.935 42.94 732.418 56.803C706.729 79.7519 682.505 101.436 635.135 103.684C604.575 105.136 575.05 99.3756 544.878 86.1214C528.499 78.8621 512.249 70.0103 496.559 61.3928C477.249 50.8082 459.017 40.8793 440.655 33.7136C378.07 9.50019 327.769 10.7179 266.951 20.5531C207.167 30.201 172.685 39.6148 132.815 50.5272C116.22 55.0701 99.1081 59.7536 78.8067 64.8117C76.5653 65.3737 74.2378 65.9826 71.9102 66.6383L68.4189 67.5749C39.8848 75.1621 10.8766 89.7745 -11.149 107.712C-22.5281 116.985 -30.5452 126.024 -38.3037 134.782C-45.6743 143.119 -52.657 151.034 -62.0534 158.574C-69.1654 164.288 -76.4498 169.112 -84.2945 173.28C-100.329 181.851 -119.466 187.05 -137.914 192.108C-149.164 195.199 -160.845 198.384 -171.319 202.224C-192.31 209.952 -210.327 216.883 -226.361 223.393L-230.672 225.126C-266.878 239.832 -304.378 255.053 -335.067 280.719C-344.291 288.446 -353.127 297.251 -362.566 308.023V312.191Z" fill="#91BFFF"/>
<path opacity="0.7" d="M-362.567 373.544C-359.119 370.078 -355.585 366.191 -351.921 361.648C-346.318 354.717 -340.887 346.614 -335.111 337.997C-331.749 333.032 -328.301 327.88 -324.766 322.869C-314.723 308.772 -305.241 297.86 -294.853 288.54C-265.629 262.453 -228.259 248.964 -192.053 235.991L-190.156 235.336C-174.682 229.762 -157.096 223.908 -136.321 217.398C-126.062 214.166 -115.243 211.59 -103.821 208.874C-85.8472 204.565 -67.3129 200.163 -50.9339 193.044C-43.1322 189.672 -35.5031 185.691 -27.6584 180.961C-16.4947 174.217 -7.61551 167.051 1.82401 159.464C9.97043 152.907 18.3755 146.163 28.8064 139.231C50.7888 124.666 78.2022 111.646 106.047 102.653C107.771 102.091 109.452 101.529 111.133 100.967C112.728 100.452 114.322 99.8902 115.874 99.375C137.253 92.4435 155.184 84.7158 172.554 77.2691C207.64 62.1416 240.786 47.9039 295.009 44.1103C353.888 39.9889 402.206 50.5266 461.861 80.4539C475.998 87.5727 490.136 96.0966 505.093 105.136C522.98 115.908 541.515 127.101 560.48 135.953C590.135 149.722 618.841 155.857 648.323 154.827C697.245 153 719.098 129.536 742.201 104.667C755.736 90.1486 769.701 75.1147 789.873 63.6403C794.485 61.0176 799.226 58.91 803.925 57.2708C823.105 50.6671 842.372 49.2621 860.993 47.9039C881.984 46.3584 901.811 44.9065 917.501 35.7269C929.181 28.8891 939.871 21.7234 951.164 14.1362C972.974 -0.522964 995.517 -15.6037 1027.03 -29.3262H1020.34C991.595 -16.2125 970.388 -2.02167 949.828 11.7945C938.578 19.3349 927.932 26.5005 916.294 33.2915C901.078 42.1901 881.51 43.642 860.821 45.1407C842.071 46.5457 822.675 47.9507 803.192 54.6481C798.321 56.3341 793.451 58.5353 788.709 61.2049C768.193 72.8667 754.055 88.0411 740.391 102.7C717.633 127.148 696.125 150.284 648.194 152.064C619.1 153.141 590.738 147.053 561.428 133.424C542.592 124.619 524.144 113.472 506.3 102.7C491.3 93.6612 477.076 85.0905 462.895 77.9248C402.853 47.8102 354.19 37.2256 294.837 41.3471C240.226 45.1875 206.907 59.5188 171.649 74.6932C154.365 82.1399 136.477 89.8676 115.184 96.7523C113.59 97.2674 111.995 97.7826 110.4 98.3446C108.719 98.9067 107.038 99.4687 105.314 100.031C77.254 109.117 49.625 122.183 27.4702 136.889C16.9531 143.868 8.50494 150.659 0.315399 157.262C-9.0379 164.803 -17.874 171.875 -28.9083 178.572C-36.6668 183.256 -44.1667 187.143 -51.8821 190.515C-68.0457 197.54 -86.5368 201.943 -104.381 206.204C-115.847 208.921 -126.666 211.544 -137.01 214.775C-157.829 221.285 -175.458 227.139 -190.932 232.713L-192.785 233.368C-229.25 246.482 -266.879 260.017 -296.448 286.432C-306.965 295.893 -316.62 306.945 -326.749 321.183C-330.326 326.194 -333.775 331.393 -337.137 336.358C-342.869 344.881 -348.257 352.984 -353.818 359.775C-356.792 363.475 -359.723 366.753 -362.567 369.704V373.544Z" fill="#91BFFF"/>
<path opacity="0.7" d="M-362.567 438.597C-360.498 436.63 -358.429 434.616 -356.36 432.649C-345.283 422.065 -335.714 412.885 -326.619 401.411C-319.335 392.231 -312.697 382.396 -305.844 370.406C-302.611 364.786 -299.464 358.885 -296.145 352.609C-292.051 344.835 -287.784 336.826 -283.215 329.145C-274.81 314.954 -265.93 303.48 -256.189 294.113C-228.345 267.37 -191.018 255.802 -154.941 244.609C-139.38 239.785 -122.139 235.008 -102.226 229.903C-91.9242 227.233 -81.2347 225.079 -69.8987 222.784C-52.7868 219.318 -35.0716 215.759 -18.8218 210.326C-11.1064 207.75 -3.52026 204.799 5.05719 201.099C19.2811 194.964 31.393 188.173 44.2377 181.008C51.4359 176.98 58.8926 172.811 67.0391 168.596C87.4698 157.965 112.297 147.006 142.9 135.11C145.4 134.126 147.814 133.143 150.228 132.159L152.253 131.316C172.512 123.073 189.667 112.723 206.261 102.7C239.58 82.5614 271.131 63.4998 322.51 64.9517C381 66.544 427.551 88.9309 483.714 124.572C492.852 130.379 501.99 136.562 511.645 143.118C532.55 157.309 554.187 172.015 576.816 183.256C605.523 197.446 633.195 203.956 661.169 203.207C710.651 201.896 729.745 176.98 749.917 150.565C761.685 135.203 773.797 119.326 792.676 107.103C796.9 104.386 801.382 102.091 805.951 100.265C822.373 93.8485 839.658 91.9283 856.382 90.0549C878.321 87.6195 899.01 85.3246 914.829 73.1008C926.251 64.3428 936.467 55.0227 947.286 45.1875C969.613 24.9082 992.716 3.87948 1026.85 -11.9506C1063.02 -28.7642 1102.5 -31.5742 1151.16 -20.8491C1167.63 -17.196 1181.89 -10.1709 1195.64 -3.37987C1221.12 9.21861 1245.21 21.1146 1280.38 10.9515C1290.64 8.00092 1300.47 3.03646 1312.32 -5.11274C1314.48 -6.61144 1316.63 -8.11015 1318.79 -9.65569C1329.56 -17.2429 1340.12 -24.6427 1351.2 -29.3262H1344.69C1335.43 -24.6427 1326.5 -18.3669 1317.37 -11.9506C1315.21 -10.4519 1313.1 -8.95317 1310.94 -7.45447C1299.31 0.554232 1289.69 5.37818 1279.69 8.28192C1245.38 18.2108 1221.72 6.50221 1196.64 -5.90893C1182.76 -12.7936 1168.36 -19.8656 1151.59 -23.5655C1138.27 -26.5161 1125.69 -28.3895 1113.58 -29.3262H1082.11C1062.11 -27.687 1043.53 -22.7693 1025.78 -14.5265C991.293 1.49092 968.061 22.6133 945.561 43.0331C934.786 52.8215 924.57 62.0948 913.234 70.806C897.976 82.6083 877.588 84.8563 855.994 87.2917C839.097 89.1651 821.684 91.0853 804.96 97.6421C800.219 99.5155 795.606 101.857 791.253 104.667C772.029 117.125 759.745 133.189 747.849 148.739C728.021 174.638 709.315 199.132 660.996 200.397C633.281 201.1 606.126 194.683 577.765 180.68C555.308 169.533 533.757 154.874 512.895 140.73C503.24 134.173 494.102 127.944 484.921 122.137C428.413 86.2613 381.517 63.7339 322.51 62.1416C270.355 60.6897 238.632 79.9387 204.968 100.265C188.46 110.241 171.391 120.544 151.305 128.693L149.279 129.536C146.866 130.52 144.452 131.503 141.995 132.487C111.306 144.43 86.4354 155.389 65.8753 166.067C57.6858 170.329 50.2289 174.498 42.9877 178.525C30.2292 185.644 18.1174 192.388 4.02274 198.524C-4.46854 202.224 -12.0115 205.127 -19.6407 207.656C-35.7612 213.042 -53.3903 216.602 -70.4159 220.067C-81.752 222.362 -92.4846 224.517 -102.872 227.186C-122.829 232.244 -140.113 237.068 -155.716 241.892C-192.052 253.133 -229.638 264.794 -257.956 291.958C-267.913 301.513 -276.879 313.174 -285.413 327.553C-290.068 335.327 -294.292 343.383 -298.43 351.157C-301.749 357.433 -304.852 363.334 -308.085 368.861C-314.895 380.71 -321.447 390.451 -328.645 399.537C-337.654 410.871 -347.136 419.957 -358.17 430.542C-359.679 431.994 -361.188 433.399 -362.696 434.85V438.597H-362.567Z" fill="#91BFFF"/>
<path opacity="0.7" d="M1631.41 70.245C1627.45 69.3551 1623.35 68.6526 1618.96 68.0906C1608.44 66.7324 1597.62 66.2172 1587.15 65.7488C1571.97 65.0463 1556.24 64.3438 1541.24 60.9717C1502.19 52.1668 1469.86 26.4079 1446.03 4.95768C1443.66 2.8033 1441.29 0.648912 1438.96 -1.45864C1427.36 -12.0432 1416.33 -22.0658 1402.54 -29.2783H1396.2C1397.49 -28.7163 1398.74 -28.2011 1400.04 -27.5454C1414.22 -20.4266 1425.43 -10.1699 1437.32 0.648914C1439.65 2.8033 1442.02 4.95769 1444.43 7.06524C1468.48 28.7028 1501.11 54.7427 1540.73 63.6413C1555.94 67.0602 1571.76 67.8096 1587.06 68.4652C1597.49 68.9336 1608.27 69.4019 1618.7 70.7601C1623.18 71.3222 1627.41 72.1183 1631.46 73.0082V70.245H1631.41Z" fill="#91BFFF"/>
<path opacity="0.7" d="M1631.41 90.1494C1625.94 86.7305 1619.99 83.9672 1613.48 82.0938C1606.67 80.1268 1599.43 78.8154 1591.37 78.1129C1580.68 77.1762 1569.69 77.3636 1559.04 77.5041C1544.78 77.6914 1529.99 77.9256 1515.77 75.4902C1481.72 69.589 1452.49 49.8249 1420.56 26.5013L1418.18 24.7684C1403.31 13.9497 1389.26 3.73974 1372.62 -3.00443C1339.61 -16.3054 1318.79 0.320822 1296.72 17.9306C1293.23 20.6938 1289.74 23.5039 1286.16 26.2203C1275.3 34.3695 1266.12 39.1934 1256.42 41.9098C1223.83 51.0426 1201.98 37.3201 1178.88 22.8014C1165.34 14.2775 1151.33 5.51945 1134.31 0.554994C1086.55 -13.3548 1048.15 -11.0131 1013.45 7.90801C982.846 24.6748 961.941 49.5439 941.769 73.6168C931.898 85.3723 921.64 97.5492 910.562 108.368C895.476 123.121 874.571 126.259 852.503 129.537C837.244 131.832 821.512 134.174 807.115 140.59C802.503 142.651 798.15 145.18 794.184 148.13C776.167 161.478 765.693 178.526 755.521 194.965C738.668 222.269 722.806 248.122 674.1 248.778C647.893 249.199 621.859 242.408 594.403 227.983C566.084 213.043 539.835 192.249 514.447 172.11L507.206 166.349C457.982 127.523 411.517 90.8987 350.484 82.9369C300.485 76.38 270.14 100.593 238.029 126.165C222.511 138.529 206.434 151.315 187.771 160.635C184.883 162.087 181.952 163.539 178.935 164.897C155.702 175.575 129.711 185.551 104.582 195.199C81.6083 204.004 60.7034 211.825 37.2986 218.476C28.4625 220.958 20.4884 223.019 12.9023 224.799C-3.04572 228.545 -19.6834 231.262 -35.8039 233.884C-47.183 235.758 -57.9156 237.491 -68.4327 239.598C-89.2083 243.673 -105.63 247.326 -120.156 251.073C-152.225 259.269 -192.095 269.479 -219.163 297.486C-228.517 307.18 -236.577 319.123 -243.818 333.97C-249.249 345.069 -253.818 356.825 -258.215 368.159C-259.508 371.484 -260.758 374.763 -262.051 377.994C-267.654 392.091 -272.611 403.8 -278.732 415.04C-285.8 427.967 -294.033 439.722 -304.636 452.086C-322.438 472.787 -341.532 488.898 -362.523 500.747V503.838C-340.843 491.755 -321.145 475.316 -302.783 453.96C-292.05 441.455 -283.688 429.512 -276.533 416.445C-270.326 405.111 -265.327 393.309 -259.68 379.118C-258.387 375.887 -257.137 372.608 -255.844 369.283C-251.447 357.996 -246.922 346.287 -241.534 335.281C-234.422 320.669 -226.534 308.96 -217.396 299.5C-190.845 272.008 -151.319 261.891 -119.553 253.742C-105.07 249.995 -88.6911 246.342 -67.9586 242.315C-57.4846 240.254 -46.752 238.474 -35.3728 236.601C-19.2093 233.978 -2.52847 231.215 13.5058 227.468C21.0919 225.688 29.109 223.628 37.9882 221.099C61.5224 214.448 82.4703 206.627 105.487 197.775C130.659 188.127 156.693 178.105 179.969 167.426C182.986 166.021 185.96 164.569 188.891 163.117C207.813 153.657 223.977 140.777 239.58 128.366C271.304 103.123 301.26 79.2838 350.225 85.6533C410.612 93.5215 456.862 129.959 505.783 168.55L513.025 174.264C538.498 194.45 564.834 215.338 593.368 230.372C621.213 245.031 647.549 251.869 674.229 251.447C724.229 250.792 740.521 224.377 757.719 196.417C767.719 180.165 778.107 163.352 795.693 150.332C799.529 147.475 803.753 145.039 808.193 143.072C822.287 136.797 837.848 134.455 852.934 132.207C875.433 128.835 896.64 125.697 912.329 110.335C923.536 99.4226 933.795 87.1988 943.708 75.3965C963.751 51.5109 984.484 26.8291 1014.7 10.3434C1048.79 -8.24989 1086.64 -10.5448 1133.75 3.17773C1150.43 8.04851 1164.27 16.7129 1177.67 25.1431C1201.25 39.9428 1223.53 53.9463 1257.11 44.5326C1267.11 41.7225 1276.51 36.7581 1287.63 28.4215C1291.25 25.7051 1294.78 22.895 1298.27 20.085C1319.78 2.94355 1340.04 -13.2612 1371.81 -0.475365C1388.18 6.1283 1402.11 16.2445 1416.85 26.9696L1419.22 28.7025C1451.42 52.2134 1480.9 72.1649 1515.42 78.1129C1529.86 80.5483 1544.73 80.361 1559.09 80.1268C1569.69 79.9863 1580.6 79.799 1591.2 80.7356C1599.13 81.4382 1606.24 82.7027 1612.88 84.6229C1619.65 86.59 1625.77 89.5874 1631.46 93.2873V90.1494H1631.41Z" fill="#91BFFF"/>
<path opacity="0.7" d="M1631.41 128.741C1619.52 110.85 1605.64 96.4721 1585.25 91.1329C1567.58 86.4963 1549.13 87.9482 1531.28 89.3532C1517.79 90.4304 1503.87 91.5076 1490.34 89.9621C1460.47 86.5431 1433.31 70.5258 1407.06 55.0235C1387.02 43.1744 1366.29 30.9506 1344.17 24.0659C1311.55 13.9497 1293.4 30.6696 1274.18 48.4199C1262.11 59.5665 1249.61 71.0409 1233.06 75.537C1202.11 83.9673 1182.02 68.3245 1160.73 51.792C1147.63 41.582 1134.05 31.0443 1116.94 24.7685C1069.91 7.48653 1034.18 9.21941 1001.03 30.4823C974.223 47.6705 955.775 75.9117 937.931 103.216C928.448 117.735 918.621 132.769 907.672 145.976C892.888 163.773 870.82 167.988 849.484 172.016C830.906 175.529 811.639 179.182 796.855 191.687C780.045 205.924 771.338 223.909 762.89 241.331C748.451 271.212 735.951 297.017 686.986 297.205H686.512C626.599 297.205 573.41 253.461 529.273 210.655C525.997 207.47 522.678 204.238 519.359 201.007C477.075 159.745 433.369 117.079 378.197 103.825C330.094 92.257 301.216 121.482 270.656 152.439C256.173 167.098 241.173 182.273 223.975 192.717C166.993 227.281 82.0807 237.725 7.21106 246.904C-25.935 250.979 -57.2277 254.819 -84.8566 260.44C-123.347 268.214 -157.097 276.832 -180.631 303.246C-200.502 325.586 -208.346 356.357 -215.889 386.05C-219.682 400.99 -223.605 416.398 -229.036 430.636C-257.742 506.227 -306.621 527.068 -362.611 533.344V536.107C-305.716 529.832 -255.975 508.85 -226.665 431.666C-221.191 417.288 -217.225 401.739 -213.432 386.752C-205.932 357.34 -198.217 326.945 -178.778 305.12C-155.804 279.267 -122.442 270.79 -84.3825 263.109C-56.8398 257.536 -25.5471 253.695 7.51279 249.621C82.641 240.394 167.769 229.904 225.225 195.105C242.725 184.521 257.811 169.206 272.423 154.453C302.509 124.011 330.913 95.2544 377.723 106.541C432.248 119.655 475.696 162.087 517.721 203.114C521.04 206.346 524.316 209.577 527.635 212.762C572.117 255.943 625.78 300.015 686.555 300.015H687.072C737.546 299.827 750.951 272.055 765.174 242.689C773.493 225.548 782.071 207.798 798.45 193.935C812.76 181.851 831.682 178.245 849.958 174.779C871.725 170.658 894.224 166.396 909.569 147.896C920.646 134.549 930.474 119.468 940 104.855C957.672 77.7851 975.947 49.8249 1002.28 32.9177C1034.74 12.1231 1069.83 10.4371 1116.07 27.438C1132.84 33.6202 1146.25 44.0174 1159.22 54.0868C1180.99 70.9941 1201.59 87.0115 1233.66 78.3003C1250.81 73.6637 1263.49 61.9082 1275.81 50.6211C1294.52 33.386 1312.15 17.1344 1343.49 26.8292C1365.3 33.6202 1385.9 45.7503 1405.86 57.5526C1432.36 73.1953 1459.73 89.3532 1490.08 92.819C1503.83 94.3645 1517.88 93.2873 1531.46 92.2101C1549.09 90.8051 1567.36 89.4 1584.65 93.8962C1605.42 99.329 1619.3 114.644 1631.41 133.565V128.741Z" fill="#91BFFF"/>
<path opacity="0.7" d="M1631.41 169.815C1627.02 164.523 1622.32 159.465 1616.93 154.828C1606.24 145.602 1595.29 139.373 1583.4 135.813C1565.77 130.474 1547.62 129.819 1530.12 129.163C1516.37 128.648 1503.44 128.179 1490.68 125.603C1463.31 120.171 1439.39 104.153 1414.05 87.1991C1393.66 73.5703 1372.58 59.4731 1349.56 51.4176C1316.07 39.709 1296.03 56.4757 1274.78 74.1791C1263.06 83.9676 1250.94 94.0838 1236.2 99.2356C1230.13 101.343 1224.74 102.655 1219.65 103.263C1200.43 105.558 1187.02 97.3622 1171.55 87.8548C1168.14 85.7473 1164.65 83.6397 1160.95 81.5322C1151.51 76.1462 1140 70.1045 1126.25 66.2641C1098.45 58.3491 1076.46 56.2884 1057.07 59.7541C1040.9 62.7047 1026.16 69.4489 1012.03 80.3145C1000.86 88.8852 990.603 100.125 979.698 115.721C973.06 125.276 966.638 135.72 960.474 145.836C948.922 164.663 937.026 184.147 922.414 199.742C905.949 217.446 882.889 219.413 860.605 221.286C843.105 222.785 826.554 224.19 813.192 232.714C797.028 243.064 787.847 257.536 779.011 271.54C763.71 295.706 749.27 318.561 701.038 321.512C696.21 321.793 691.254 321.934 686.254 321.793C629.961 320.622 580.609 284.372 539.747 249.059C534.446 244.469 529.144 239.786 523.842 235.102L515.523 227.749C478.283 194.965 436.085 157.779 383.629 146.211C337.681 136.048 309.449 162.837 279.578 191.219C265.57 204.52 251.088 218.289 234.579 227.89C178.287 260.44 95.9173 270.416 23.289 279.221C-7.05542 282.92 -35.7619 286.386 -61.4081 291.21C-91.4077 296.924 -128.735 304.043 -153.519 329.568C-154.941 331.019 -156.277 332.518 -157.571 334.017C-174.294 353.687 -182.225 379.493 -189.898 404.456C-193.949 417.663 -198.13 431.292 -203.604 443.937C-217.527 476.16 -236.104 499.155 -260.457 514.142C-290.327 532.689 -325.241 537.372 -362.481 539.62V542.384C-325.801 540.135 -289.422 535.265 -259.207 516.531C-234.38 501.216 -215.458 477.846 -201.32 445.061C-195.803 432.276 -191.579 418.553 -187.484 405.299C-179.898 380.617 -172.053 355.092 -155.674 335.843C-154.424 334.345 -153.088 332.893 -151.752 331.488C-127.528 306.572 -90.5887 299.5 -60.934 293.88C-35.3309 289.056 -6.7106 285.59 23.5907 281.89C96.4776 273.038 179.106 263.016 235.786 230.232C252.553 220.49 267.165 206.627 281.259 193.232C310.656 165.319 338.414 138.998 383.112 148.833C434.964 160.261 476.903 197.213 513.929 229.81L522.247 237.163C527.592 241.893 532.894 246.577 538.195 251.167C579.402 286.761 629.186 323.339 686.254 324.509C691.297 324.603 696.34 324.509 701.21 324.228C750.693 321.184 766.167 296.69 781.123 273.038C789.83 259.269 798.795 245.078 814.528 235.009C827.373 226.766 843.622 225.408 860.863 223.956C883.622 222.036 907.156 220.022 924.268 201.616C939.052 185.833 951.035 166.209 962.629 147.288C968.793 137.218 975.172 126.774 981.767 117.314C992.5 101.952 1002.63 90.8991 1013.53 82.5157C1027.37 71.8843 1041.77 65.3274 1057.54 62.4237C1076.59 59.0048 1098.23 61.0655 1125.69 68.8868C1139.18 72.6804 1150.51 78.6284 1159.82 83.9676C1163.49 86.0283 1166.94 88.1827 1170.34 90.2434C1186.2 99.985 1199.95 108.368 1219.95 105.98C1225.21 105.371 1230.77 104.013 1237.02 101.811C1252.19 96.5192 1264.48 86.2624 1276.37 76.2867C1297.06 59.0048 1316.59 42.6595 1348.83 53.9466C1371.59 61.9085 1392.54 75.912 1412.8 89.494C1437.23 105.839 1462.45 122.747 1490.29 128.273C1503.23 130.849 1516.89 131.364 1530.12 131.832C1547.49 132.488 1565.47 133.144 1582.79 138.389C1594.34 141.855 1604.99 147.943 1615.42 156.936C1621.46 162.134 1626.63 167.848 1631.5 173.937V169.815H1631.41Z" fill="#91BFFF"/>
<path opacity="0.7" d="M1631.41 210.421C1626.8 206.205 1621.76 202.131 1615.81 198.103C1603.7 189.907 1592.84 184.334 1581.54 180.446C1564.35 174.592 1546.93 171.829 1530.12 169.112C1516.33 166.911 1503.36 164.851 1490.99 161.244C1465.99 153.891 1444.09 137.359 1420.86 119.796C1400.21 104.2 1378.87 88.0888 1354.82 78.6751C1320.08 65.0931 1297.67 82.2813 1274.01 100.453C1263.1 108.79 1251.85 117.454 1239.22 122.887C1232.93 125.603 1227.89 127.43 1223.45 128.601C1205.95 133.237 1194.78 128.507 1180.69 122.559C1177.33 121.154 1173.83 119.655 1170.04 118.25C1160.43 114.597 1149.01 110.476 1135.47 107.759C1113.88 103.451 1088.71 99.8911 1065.86 105.839C1050.43 109.867 1036.38 117.782 1022.93 130.099C1012.85 139.373 1003.54 151.409 993.535 167.942C989.225 175.107 985.087 182.46 980.734 190.235C968.018 212.95 954.829 236.46 937.027 253.461C918.45 271.165 894.14 270.462 870.649 269.807C855.434 269.385 841.037 268.964 829.4 273.788C813.322 280.485 803.926 291.35 793.969 302.825C778.021 321.231 761.513 340.293 714.918 345.913C710.177 346.475 705.177 346.943 700.134 347.318C641.687 351.439 591.472 319.451 550.05 287.604C543.326 282.452 536.774 277.16 529.792 271.54L520.999 264.467C480.87 232.199 439.405 198.852 388.845 188.689C345.096 179.884 317.596 204.238 288.502 229.997C274.925 241.987 260.873 254.445 245.054 263.156C189.365 293.833 109.323 303.34 38.7209 311.723C11.3075 314.955 -14.5973 318.046 -38.0883 322.121C-66.7517 327.226 -102.398 333.548 -126.535 355.982C-127.915 357.247 -129.251 358.605 -130.501 359.916C-147.139 377.479 -155.759 400.615 -164.121 422.955C-168.431 434.43 -172.828 446.326 -178.345 457.332C-192.526 485.901 -210.888 506.368 -234.465 519.856C-267.826 539.011 -308.947 542.149 -348.731 545.193C-353.299 545.521 -357.911 545.896 -362.523 546.271V549.034C-357.868 548.659 -353.17 548.284 -348.558 547.91C-308.516 544.866 -267.137 541.681 -233.301 522.291C-209.293 508.522 -190.586 487.681 -176.147 458.643C-170.586 447.497 -166.147 435.554 -161.837 423.986C-153.604 401.927 -145.07 379.071 -128.82 361.883C-127.57 360.572 -126.277 359.307 -124.941 358.043C-101.32 336.124 -66.0621 329.848 -37.7004 324.79C-14.2524 320.716 11.6093 317.625 38.9796 314.393C109.798 305.963 190.098 296.455 246.175 265.545C262.252 256.693 276.39 244.141 290.097 232.058C318.76 206.721 345.829 182.788 388.371 191.312C438.327 201.381 479.577 234.493 519.49 266.575L528.283 273.647C535.266 279.267 541.86 284.559 548.585 289.711C590.351 321.84 641.126 354.109 700.307 349.94C705.393 349.566 710.393 349.097 715.177 348.535C762.719 342.822 780.305 322.495 795.779 304.605C805.521 293.364 814.745 282.686 830.262 276.223C841.425 271.586 855.563 272.008 870.52 272.429C893.407 273.085 919.312 273.834 938.622 255.428C956.725 238.193 970.001 214.495 982.803 191.593C987.156 183.819 991.251 176.465 995.561 169.347C1005.43 153.048 1014.61 141.199 1024.48 132.113C1037.63 120.077 1051.34 112.349 1066.38 108.415C1088.79 102.561 1113.62 106.12 1134.96 110.382C1148.32 113.052 1159.61 117.126 1169.14 120.732C1172.89 122.137 1176.38 123.636 1179.7 125.041C1193.66 130.942 1205.69 136.047 1223.96 131.177C1228.53 129.959 1233.66 128.132 1240.08 125.369C1253.01 119.796 1264.39 111.038 1275.38 102.608C1298.53 84.8572 1320.38 68.0437 1353.92 81.1573C1377.62 90.4305 1398.83 106.448 1419.35 121.95C1442.75 139.607 1464.82 156.327 1490.25 163.773C1502.75 167.426 1515.81 169.534 1529.69 171.735C1546.42 174.405 1563.74 177.168 1580.73 182.975C1591.76 186.769 1602.49 192.296 1614.39 200.351C1620.94 204.8 1626.37 209.296 1631.33 213.98V210.421H1631.41Z" fill="#91BFFF"/>
<path opacity="0.7" d="M1631.41 250.511C1626.58 247.607 1621.24 244.657 1614.65 241.378L1610.72 239.411C1601.59 234.774 1591.24 229.576 1579.69 225.127C1564.09 219.179 1548.44 214.729 1533.35 210.374C1518.31 206.065 1504.13 201.99 1491.33 196.885C1468.61 187.846 1448.7 170.845 1427.62 152.908C1406.8 135.157 1385.25 116.845 1360.21 105.98C1323.57 90.1027 1297.06 109.211 1271.42 127.664C1262.06 134.408 1252.41 141.34 1242.37 146.585C1237.24 149.255 1231.98 151.971 1227.37 153.985C1210.77 161.197 1201.68 159.371 1187.88 156.608C1185.17 156.046 1182.32 155.484 1179.22 154.968C1176.81 154.547 1174.26 154.079 1171.59 153.563C1163.75 152.112 1154.82 150.472 1144.78 149.301C1121.29 146.585 1096.51 144.524 1074.7 151.971C1059.74 157.076 1046.42 166.256 1033.88 179.978C1022.37 192.623 1013.66 208.126 1007.41 220.256C1004.91 225.033 1002.46 229.997 999.912 235.055C986.551 261.798 972.758 289.43 951.68 307.274C930.517 325.212 903.491 320.903 879.656 317.109C867.156 315.142 855.346 313.269 845.777 314.861C828.622 317.765 818.45 325.821 806.596 335.141C790.347 347.973 771.899 362.539 728.839 370.313C723.925 371.203 718.968 372.046 714.055 372.843C652.935 382.678 599.832 353.032 560.393 326.102C552.333 320.622 544.359 314.768 535.91 308.632L533.885 307.181C530.178 304.464 526.514 301.748 522.85 299.078C483.584 270.088 443.024 240.114 394.059 231.262C352.508 223.722 325.655 245.64 297.25 268.87C284.147 279.595 270.569 290.648 255.483 298.516C200.484 327.179 122.985 336.171 54.5811 344.133C29.9262 346.99 6.60764 349.706 -14.8145 353.172C-42.0986 357.574 -76.0205 363.054 -99.5978 382.584C-100.934 383.708 -102.227 384.832 -103.52 386.003C-120.072 401.505 -129.468 421.878 -138.52 441.596C-143.002 451.384 -147.657 461.453 -153.132 470.914C-167.614 495.877 -185.717 513.814 -208.476 525.757C-238.604 541.587 -274.94 545.474 -310.069 549.221C-327.526 551.095 -345.37 553.015 -362.611 556.434V559.244C-345.327 555.825 -327.396 553.858 -309.853 551.984C-274.509 548.191 -237.958 544.304 -207.398 528.239C-184.209 516.062 -165.761 497.797 -151.019 472.366C-145.459 462.812 -140.804 452.648 -136.278 442.813C-126.925 422.44 -118.089 403.238 -101.925 388.111C-100.718 386.987 -99.4254 385.862 -98.1323 384.785C-75.0723 365.677 -41.4952 360.244 -14.4697 355.888C6.95242 352.423 30.228 349.753 54.8397 346.849C123.416 338.887 201.174 329.848 256.561 300.998C271.906 292.99 285.569 281.843 298.759 271.071C326.732 248.216 353.154 226.672 393.628 233.978C442.032 242.736 480.609 271.212 521.428 301.373C525.092 304.089 528.798 306.806 532.462 309.522L534.488 310.974C542.936 317.156 550.953 323.011 559.014 328.49C598.841 355.654 652.461 385.581 714.399 375.606C719.313 374.81 724.27 373.967 729.227 373.077C772.847 365.208 792.372 349.8 808.062 337.436C819.613 328.303 829.57 320.435 846.122 317.625C855.302 316.079 866.94 317.906 879.268 319.873C903.621 323.76 931.207 328.116 953.232 309.475C974.697 291.257 988.663 263.39 1002.15 236.414C1004.65 231.402 1007.15 226.438 1009.61 221.661C1015.82 209.718 1024.35 194.403 1035.64 181.992C1047.89 168.597 1060.9 159.652 1075.43 154.687C1096.76 147.381 1121.25 149.442 1144.48 152.112C1154.44 153.282 1163.32 154.922 1171.12 156.374C1173.79 156.889 1176.33 157.357 1178.75 157.779C1181.85 158.294 1184.65 158.903 1187.37 159.418C1201.07 162.134 1210.94 164.148 1228.23 156.655C1232.88 154.641 1238.23 151.877 1243.4 149.161C1253.62 143.822 1263.36 136.797 1272.8 130.053C1299.05 111.131 1323.87 93.2875 1359.26 108.602C1384 119.327 1405.38 137.499 1426.07 155.109C1447.32 173.187 1467.41 190.282 1490.47 199.508C1503.4 204.66 1517.62 208.734 1532.71 213.043C1547.79 217.352 1563.35 221.801 1578.87 227.702C1590.29 232.058 1600.59 237.304 1609.65 241.893L1613.57 243.86C1620.64 247.42 1626.28 250.558 1631.41 253.649V250.511Z" fill="#91BFFF"/>
<path opacity="0.7" d="M1631.41 290.039C1626.41 288.681 1620.77 287.136 1613.48 284.653C1606.33 282.171 1598.53 278.752 1590.25 275.146C1586.24 273.413 1582.15 271.587 1577.84 269.76C1569.47 266.247 1561.07 262.829 1552.84 259.456C1530.29 250.277 1509 241.566 1491.63 232.573C1471.16 221.942 1453.23 204.754 1434.22 186.582C1413.27 166.537 1391.63 145.836 1365.51 133.331C1325.9 114.457 1295.3 135.907 1265.68 156.655C1259.05 161.338 1252.15 166.162 1245.38 170.33C1242.11 172.344 1239.05 174.311 1236.25 176.138C1234.48 177.309 1232.75 178.386 1231.16 179.416C1213.53 190.563 1206.59 190.891 1189.69 191.687L1188.23 191.734C1181.72 192.062 1174.01 191.687 1165.04 191.312C1161.51 191.172 1157.84 190.984 1153.96 190.844L1153.27 190.797C1129.35 189.954 1104.61 189.064 1083.45 198.103C1068.79 204.332 1056.51 214.402 1044.74 229.81C1034.78 242.83 1027.54 258.051 1021.21 272.476L1018.06 279.736C1005.26 309.241 990.689 342.681 966.292 361.04C941.896 379.4 911.724 369.986 887.457 362.399C878.104 359.495 869.311 356.732 862.113 356.029C841.51 353.968 830.174 359.729 813.019 368.44C797.372 376.355 777.89 386.237 742.718 394.714C737.804 395.885 732.891 397.103 727.934 398.321C678.365 410.732 629.875 400.335 570.651 364.6C561.858 359.308 553.324 353.641 543.066 346.85C537.117 342.869 531.169 338.841 525.264 334.813C485.006 307.321 446.946 281.375 399.232 273.694C359.879 267.325 333.672 286.901 305.957 307.602C293.328 317.016 280.268 326.758 265.914 333.783C210.915 360.619 135.14 369.19 68.2447 376.73C47.1243 379.119 27.1677 381.367 8.46109 384.083C-18.8661 388.064 -49.814 392.56 -72.6585 409.046C-73.9947 409.982 -75.2447 410.966 -76.4947 411.996C-93.0461 425.391 -103.175 443.048 -113.003 460.095C-117.615 468.151 -122.442 476.487 -127.83 484.309C-142.614 505.665 -160.459 521.121 -182.441 531.518C-209.165 544.116 -240.63 548.472 -271.061 552.64C-298.905 556.481 -327.741 560.415 -352.827 570.765C-356.189 572.17 -359.465 573.763 -362.611 575.542V578.68C-359.163 576.713 -355.629 574.84 -351.922 573.341C-327.138 563.131 -298.474 559.197 -270.759 555.404C-240.156 551.188 -208.476 546.833 -181.45 534.047C-159.08 523.462 -140.89 507.726 -125.804 485.995C-120.33 478.033 -115.503 469.65 -110.848 461.547C-100.718 443.937 -91.1496 427.264 -74.986 414.198C-73.7791 413.214 -72.5723 412.277 -71.2792 411.341C-48.9088 395.23 -18.2627 390.78 8.80588 386.846C27.4694 384.13 47.4261 381.882 68.5464 379.493C135.614 371.953 211.605 363.382 266.992 336.359C281.561 329.24 294.707 319.405 307.465 309.944C334.793 289.571 360.568 270.322 398.973 276.504C446.127 284.138 483.972 309.897 524.014 337.249C529.919 341.276 535.824 345.304 541.816 349.332C552.117 356.17 560.695 361.837 569.488 367.176C629.271 403.238 678.365 413.729 728.537 401.178C733.451 399.96 738.365 398.742 743.278 397.571C778.709 389.001 798.321 379.072 814.096 371.11C830.906 362.586 841.984 356.966 861.897 358.98C868.837 359.682 877.544 362.399 886.768 365.256C911.509 372.983 942.327 382.584 967.758 363.523C992.758 344.742 1007.41 310.974 1020.39 281.141L1023.53 273.928C1029.83 259.644 1036.94 244.657 1046.72 231.824C1058.19 216.79 1070.17 206.955 1084.39 200.913C1105.08 192.108 1129.57 192.998 1153.23 193.794L1153.92 193.841C1157.76 193.982 1161.46 194.122 1164.95 194.31C1173.96 194.731 1181.72 195.059 1188.32 194.731L1189.78 194.684C1206.59 193.888 1214.22 193.56 1232.41 182.086C1234.05 181.056 1235.73 179.931 1237.54 178.761C1240.34 176.934 1243.36 174.967 1246.63 172.953C1253.49 168.691 1260.38 163.867 1267.06 159.184C1296.12 138.811 1326.12 117.735 1364.48 136.048C1390.25 148.318 1411.76 168.925 1432.54 188.83C1451.67 207.142 1469.78 224.471 1490.55 235.243C1508.01 244.329 1529.34 252.993 1551.97 262.22C1560.21 265.592 1568.61 269.011 1576.97 272.523C1581.24 274.303 1585.34 276.13 1589.34 277.862C1597.66 281.515 1605.51 284.981 1612.79 287.463C1620.42 290.086 1626.33 291.679 1631.5 293.084V290.039H1631.41Z" fill="#91BFFF"/>
<path opacity="0.7" d="M1631.41 328.865C1626.2 329.381 1620.38 329.521 1612.32 327.929C1601.2 325.774 1588.79 320.295 1575.98 314.393C1547.67 301.42 1516.29 284.138 1491.98 268.215C1473.7 256.225 1457.71 238.99 1440.77 220.771C1419.82 198.197 1398.14 174.874 1370.86 160.636C1326.12 137.265 1288.1 165.085 1254.52 189.626L1248.45 194.076C1243.36 197.776 1238.96 201.476 1235 204.941L1231.81 207.705C1217.67 220.022 1212.93 224.19 1197.28 228.64C1188.49 231.169 1176.68 231.871 1163.27 232.48L1156.51 232.761C1134.35 233.651 1111.42 234.588 1092.33 244.329C1078.1 251.588 1066.51 262.829 1055.78 279.783C1046.85 293.88 1040.47 310.459 1035.17 324.884C1023.54 356.685 1009.05 396.307 980.993 414.9C952.458 433.868 918.924 417.055 894.399 404.784C888.623 401.88 883.149 399.164 878.537 397.337C850.736 386.284 837.201 391.202 804.529 403.004C792.159 407.5 776.728 413.074 756.685 419.162C751.513 420.755 746.685 422.3 741.944 423.893C690.522 441.362 640.911 434.945 581.084 403.192C572.119 398.461 563.153 393.122 552.378 386.612C544.274 381.695 536.171 376.543 528.326 371.578C488.715 346.522 451.302 322.824 404.621 316.22C367.467 310.975 341.863 328.163 314.752 346.381C302.64 354.531 290.097 362.914 276.52 369.096C220.788 394.34 145.875 402.395 79.7981 409.561C62.988 411.388 47.083 413.074 31.9108 415.041C5.96292 418.366 -23.4763 422.113 -45.545 435.507C-46.838 436.304 -48.088 437.1 -49.2949 437.896C-65.9326 449.183 -76.9669 464.123 -87.6133 478.548C-92.3116 484.918 -97.1391 491.475 -102.441 497.704C-117.484 515.454 -135.113 528.38 -156.319 537.232C-179.293 546.833 -205.801 551.236 -231.404 555.497C-260.844 560.368 -291.231 565.426 -316.576 578.4C-335.972 588.328 -350.455 604.627 -362.566 624.578V629.59C-350.282 608.42 -335.498 591.138 -315.498 580.929C-290.542 568.143 -260.283 563.131 -231.017 558.261C-205.241 553.999 -178.647 549.549 -155.371 539.855C-133.777 530.862 -115.846 517.702 -100.544 499.624C-95.1994 493.301 -90.3289 486.698 -85.5876 480.328C-74.5963 465.435 -64.2085 451.338 -47.9156 440.285C-46.7519 439.488 -45.545 438.692 -44.295 437.943C-22.6574 424.782 5.23016 421.223 32.2126 417.804C47.3847 415.884 63.2466 414.151 80.0567 412.324C146.306 405.159 221.434 397.056 277.511 371.672C291.304 365.443 303.89 356.966 316.088 348.77C342.812 330.832 368.027 313.878 404.319 318.983C450.526 325.493 487.723 349.051 527.119 373.967C534.964 378.931 543.068 384.083 551.214 389.001C561.99 395.558 571.041 400.897 580.05 405.674C640.48 437.802 690.695 444.219 742.763 426.562C747.504 424.97 752.332 423.424 757.461 421.832C777.59 415.697 793.021 410.123 805.434 405.627C838.451 393.684 850.822 389.235 877.761 399.913C882.287 401.693 887.675 404.409 893.407 407.266C918.45 419.771 952.717 436.913 982.372 417.242C1011.12 398.134 1025.78 358.09 1037.59 325.868C1042.8 311.583 1049.14 295.191 1057.89 281.328C1068.36 264.796 1079.65 253.837 1093.45 246.811C1112.07 237.304 1134.74 236.367 1156.68 235.477L1163.45 235.196C1177.02 234.588 1188.96 233.885 1198.02 231.309C1214.18 226.719 1219.44 222.13 1233.49 209.859L1236.68 207.096C1240.6 203.677 1244.95 200.024 1249.95 196.371L1256.03 191.921C1289.01 167.802 1326.42 140.403 1369.82 163.118C1396.72 177.168 1418.23 200.352 1439.05 222.738C1456.11 241.098 1472.24 258.473 1490.73 270.603C1515.12 286.621 1546.67 303.949 1575.08 316.969C1588.01 322.917 1600.6 328.491 1611.93 330.692C1620.12 332.284 1626.24 332.191 1631.5 331.675V328.865H1631.41Z" fill="#91BFFF"/>
<path opacity="0.7" d="M1631.41 366.941C1626.07 369.611 1620.04 371.812 1611.11 371.25C1598.53 370.501 1584.73 364.318 1574.09 359.026C1550.12 347.13 1522.58 328.537 1492.24 303.902C1476.16 290.835 1462.06 273.787 1447.15 255.709C1426.24 230.372 1404.61 204.191 1376.12 187.94C1328.44 160.823 1282.15 191.968 1251.46 217.773C1247.15 221.38 1242.97 225.501 1238.79 230.372C1233.83 236.132 1230.34 241.003 1227.24 245.312C1221.2 253.742 1216.81 259.831 1206.29 265.498C1197.33 270.368 1184.74 272.476 1172.46 273.975C1168.75 274.443 1164.96 274.865 1161.16 275.286C1140.26 277.581 1118.62 279.97 1101.03 290.46C1087.2 298.703 1076.25 311.161 1066.59 329.661C1059.14 343.945 1054.18 359.635 1048.92 377.151C1037.59 415.087 1023.23 452.461 995.518 468.666C961.596 488.524 923.364 459.954 900.519 442.86C898.493 441.361 896.597 439.909 894.787 438.645C857.546 411.481 842.546 417.007 770.521 443.562C765.608 445.389 760.651 447.356 755.78 449.417C702.505 472.178 651.773 469.79 591.3 441.689C580.739 436.771 570.309 431.151 561.472 426.281C551.343 420.66 541.3 414.759 531.602 408.999C492.551 385.956 455.655 364.178 409.75 358.698C374.751 354.483 349.665 369.377 323.157 385.113C311.605 391.998 299.666 399.07 286.864 404.362C228.977 428.388 153.332 435.975 86.6083 442.673C75.8326 443.75 65.2724 444.827 55.0571 445.904L53.8502 446.045C28.6781 448.761 2.51468 451.571 -18.5626 461.875C-19.8126 462.484 -21.0195 463.139 -22.2263 463.748C-39.1657 472.928 -50.6742 484.589 -62.8292 496.954C-67.3981 501.59 -72.0963 506.368 -77.0963 511.004C-92.3547 525.101 -109.768 535.545 -130.285 542.898C-149.121 549.643 -170.328 553.67 -190.802 557.604C-222.31 563.599 -254.896 569.828 -280.412 585.986C-314.808 607.717 -329.334 650.992 -344.679 696.843C-350.196 713.282 -355.842 730.096 -362.566 746.301V752.857C-354.808 734.92 -348.472 716.139 -342.308 697.78C-327.093 652.444 -312.74 609.591 -279.162 588.375C-253.99 572.498 -221.663 566.316 -190.371 560.321C-169.767 556.387 -148.475 552.312 -129.466 545.521C-108.648 538.074 -90.9754 527.443 -75.4153 513.112C-70.3722 508.428 -65.6309 503.651 -61.062 499.015C-49.0363 486.791 -37.6572 475.269 -21.0626 466.23C-19.8988 465.621 -18.6919 464.966 -17.485 464.404C3.20435 454.288 29.1523 451.477 54.2812 448.761L55.4881 448.621C65.6604 447.543 76.2206 446.466 86.9963 445.389C153.892 438.692 229.71 431.058 287.942 406.891C300.873 401.505 312.898 394.386 324.536 387.502C350.7 371.952 375.397 357.293 409.664 361.415C455.052 366.894 491.732 388.532 530.611 411.434C540.352 417.148 550.395 423.096 560.567 428.716C569.446 433.587 579.92 439.254 590.524 444.218C651.644 472.6 702.936 474.988 756.901 451.946C761.728 449.885 766.642 447.918 771.513 446.138C842.589 419.958 857.373 414.525 893.58 440.893C895.347 442.157 897.244 443.609 899.269 445.108C922.588 462.53 961.639 491.708 996.897 471.054C1025.39 454.381 1040 416.445 1051.51 377.947C1056.72 360.572 1061.59 345.023 1068.97 330.972C1078.36 312.941 1089.01 300.858 1102.41 292.849C1119.53 282.639 1140.9 280.297 1161.55 278.003C1165.39 277.581 1169.18 277.159 1172.89 276.691C1185.39 275.146 1198.23 272.991 1207.58 267.933C1218.62 261.938 1223.14 255.662 1229.39 246.951C1232.45 242.689 1235.95 237.865 1240.82 232.198C1244.91 227.468 1248.96 223.44 1253.19 219.881C1283.32 194.543 1328.7 163.914 1375.08 190.282C1403.18 206.299 1424.65 232.292 1445.43 257.442C1460.43 275.614 1474.61 292.802 1490.86 306.01C1521.33 330.785 1549 349.472 1573.14 361.462C1583.96 366.894 1598.05 373.17 1611.07 373.92C1619.95 374.435 1626.11 372.421 1631.5 369.892V366.941H1631.41Z" fill="#91BFFF"/>
<path opacity="0.7" d="M1631.41 404.128C1625.94 409.279 1619.73 413.963 1609.95 414.619C1599.43 415.321 1587.45 411.902 1572.23 403.706C1542.75 387.923 1514.17 361.134 1492.58 339.59C1478.74 325.774 1466.55 309.147 1453.66 291.491C1432.84 263.062 1411.33 233.697 1381.46 215.244C1336.55 187.518 1286.46 210.608 1254.57 241.518C1250.17 245.78 1246.29 250.464 1242.71 255.85C1237.32 263.999 1234.26 271.352 1231.55 277.815C1227.63 287.135 1224.26 295.144 1215.43 302.45C1206.46 309.803 1193.36 313.222 1181.72 315.564C1176.89 316.547 1171.94 317.39 1166.94 318.28C1146.94 321.746 1126.25 325.352 1109.91 336.592C1096.38 345.866 1086.12 359.494 1077.63 379.493C1071.08 394.901 1066.98 412.136 1063.06 428.809L1062.93 429.418C1055.26 461.687 1041.51 506.461 1010.3 522.478C982.501 536.763 950.088 522.853 911.209 479.999C874.959 440.05 853.667 437.989 784.573 467.963C779.702 470.071 774.745 472.412 769.831 474.941C714.746 503.276 662.936 504.869 601.773 480.234C592.894 476.674 583.067 472.131 570.826 465.996C558.757 459.907 546.904 453.397 535.438 447.075C496.818 425.765 460.353 405.673 415.095 401.177C382.121 397.945 357.553 410.497 331.562 423.845C320.657 429.418 309.364 435.226 297.467 439.675C233.761 463.467 149.969 470.679 82.6429 476.534L74.6688 477.236C51.8243 479.203 28.2471 481.217 8.46286 488.43C7.25598 488.851 6.0491 489.32 4.88531 489.788C-12.83 496.907 -25.6746 506.086 -39.2951 515.781C-43.3468 518.638 -47.3984 521.588 -51.7087 524.492C-67.0964 534.936 -84.2945 542.851 -104.208 548.752C-118.13 552.874 -133.389 556.012 -148.173 559.056C-182.655 566.175 -218.344 573.575 -244.292 593.76C-273.43 616.428 -283.861 655.488 -294.938 696.843C-301.964 723.07 -309.205 750.234 -321.619 774.448C-327.524 785.969 -334.334 796.085 -340.929 805.874L-343.084 809.105C-352.006 822.359 -358.299 833.412 -362.566 843.388V850.226C-362.523 850.179 -362.523 850.085 -362.523 850.039C-358.342 838.845 -351.532 826.34 -341.058 810.745L-338.903 807.513C-332.265 797.678 -325.369 787.468 -319.42 775.806C-306.834 751.312 -299.55 724.007 -292.524 697.592C-281.576 656.706 -271.275 618.068 -242.87 595.962C-217.396 576.151 -182.009 568.798 -147.785 561.726C-132.958 558.681 -117.656 555.497 -103.648 551.375C-83.4755 545.427 -66.062 537.372 -50.4587 526.787C-46.1484 523.883 -42.0536 520.933 -38.002 518.076C-24.5108 508.475 -11.7524 499.389 5.70428 492.364C6.86807 491.895 7.98871 491.427 9.19559 491.006C28.6781 483.887 52.126 481.873 74.7981 479.953L82.7722 479.25C150.228 473.443 234.236 466.183 298.2 442.251C310.226 437.755 321.562 431.947 332.553 426.327C358.242 413.167 382.509 400.755 414.793 403.893C459.577 408.296 495.827 428.294 534.231 449.463C545.697 455.786 557.593 462.343 569.705 468.431C581.989 474.613 591.903 479.156 600.825 482.763C662.678 507.725 715.134 506.039 770.866 477.377C775.737 474.895 780.65 472.553 785.435 470.445C857.33 439.253 875.433 444.499 909.312 481.873C949.053 525.663 982.415 539.76 1011.29 524.914C1043.45 508.428 1057.5 462.858 1065.3 430.074L1065.43 429.465C1069.35 412.932 1073.4 395.791 1079.87 380.617C1088.15 361.134 1098.1 347.879 1111.21 338.887C1127.11 327.975 1147.54 324.415 1167.28 320.95C1172.33 320.06 1177.33 319.217 1182.15 318.233C1194.09 315.845 1207.54 312.332 1216.89 304.604C1226.25 296.923 1229.74 288.587 1233.79 278.939C1236.46 272.57 1239.48 265.357 1244.7 257.442C1248.14 252.197 1251.89 247.654 1256.16 243.532C1287.37 213.277 1336.33 190.562 1380.12 217.586C1409.56 235.758 1430.94 264.936 1451.59 293.177C1464.56 310.88 1476.8 327.647 1490.77 341.604C1512.49 363.288 1541.24 390.218 1571.03 406.141C1586.67 414.572 1599.09 418.084 1610.04 417.335C1619.65 416.679 1625.9 412.511 1631.33 407.687V404.128H1631.41Z" fill="#91BFFF"/>
<path opacity="0.7" d="M1631.41 440.378C1625.64 448.621 1619.65 455.927 1608.83 457.988C1597.84 460.095 1585.29 456.911 1570.42 448.34C1541.16 431.573 1513.66 400.475 1492.92 375.278C1481.33 361.181 1471.03 345.257 1460.17 328.397C1439.56 296.503 1418.23 263.484 1386.85 242.502C1342.32 212.762 1288.19 231.403 1257.76 265.17C1253.45 269.901 1249.74 275.333 1246.76 281.281C1241.81 291.07 1239.7 300.156 1237.71 308.914C1235.08 320.341 1232.8 330.223 1224.74 339.309C1217.84 347.131 1207.76 352.423 1191.16 357.06C1185.47 358.652 1179.7 360.01 1173.62 361.462C1154.31 366.005 1134.31 370.688 1118.92 382.678C1105.69 392.935 1096.12 407.781 1088.75 429.325C1083.53 444.781 1080.52 461.688 1077.59 478.033L1076.94 481.639C1067.67 533.157 1050.22 564.958 1025.09 576.198C980.949 595.915 939.269 539.105 927.545 521.261C895.002 471.617 869.916 456.63 798.624 492.271C793.796 494.706 788.84 497.422 783.926 500.373C726.384 534.937 675.048 540.417 612.247 518.639C602.765 515.36 592.291 511.098 580.179 505.572C566.3 499.249 552.765 492.224 539.705 485.48C501.43 465.669 465.31 446.982 420.483 443.563C389.406 441.221 364.061 452.04 339.493 462.531C329.363 466.84 318.933 471.289 308.114 474.848C240.873 496.907 158.288 504.167 101.996 507.679L93.6339 508.194C73.8928 509.365 53.5052 510.583 35.6606 514.751C34.4968 515.032 33.3331 515.313 32.1693 515.594C11.9109 520.793 -3.73538 527.771 -20.2869 535.124L-26.1489 537.7C-41.321 544.397 -58.2605 549.83 -78.0447 554.326C-85.5446 556.012 -93.2169 557.605 -101.277 559.244C-140.587 567.253 -181.19 575.496 -208 601.301C-232.655 625 -239.594 661.015 -246.965 699.139C-252.482 727.755 -258.171 757.354 -271.835 783.207C-278.473 795.852 -286.662 806.483 -293.904 815.85C-306.188 831.774 -313.86 842.64 -319.55 852.147C-326.576 863.856 -329.851 874.112 -330.843 887.648C-331.748 899.965 -329.895 913.5 -327.783 929.19C-327.308 932.562 -326.834 936.027 -326.403 939.634C-323.602 961.412 -320.757 1002.63 -333.257 1034.43C-337.869 1046.14 -344.463 1056.16 -352.48 1063.56C-355.713 1067.4 -359.118 1071.24 -362.523 1075.03V1079.01C-358.472 1074.52 -354.549 1070.07 -350.756 1065.52C-342.524 1057.98 -335.67 1047.63 -330.929 1035.5C-318.214 1003.09 -321.059 961.271 -323.903 939.212C-324.377 935.606 -324.852 932.14 -325.283 928.768C-327.395 913.219 -329.205 899.824 -328.343 887.835C-327.395 874.815 -324.248 864.886 -317.438 853.599C-311.748 844.185 -304.162 833.413 -291.964 817.536C-284.68 808.076 -276.404 797.304 -269.68 784.471C-255.844 758.244 -250.068 728.457 -244.508 699.607C-237.267 661.952 -230.37 626.358 -206.362 603.268C-180.069 577.978 -139.768 569.782 -100.846 561.867C-92.7428 560.228 -85.1136 558.682 -77.5706 556.949C-57.657 552.453 -40.5452 546.973 -25.2437 540.182L-19.3817 537.607C-2.18369 529.973 12.6437 523.369 32.7296 518.217C33.8503 517.936 35.0141 517.655 36.1779 517.374C53.85 513.253 74.1515 512.035 93.7632 510.864L102.125 510.349C158.547 506.836 241.304 499.577 308.803 477.377C319.708 473.818 330.225 469.322 340.398 464.966C365.785 454.147 389.837 443.891 420.267 446.186C464.62 449.558 500.525 468.151 538.542 487.821C551.645 494.612 565.179 501.638 579.144 508.007C591.299 513.534 601.86 517.842 611.385 521.168C674.919 543.18 726.858 537.653 785.047 502.668C789.917 499.764 794.788 497.048 799.572 494.659C868.235 460.283 892.2 472.132 925.39 522.713C937.372 541.025 980.087 599.147 1025.95 578.634C1051.94 567.019 1069.91 534.515 1079.35 482.061L1080 478.455C1082.89 462.203 1085.9 445.389 1091.03 430.168C1098.19 409.139 1107.5 394.761 1120.3 384.786C1135.3 373.124 1155 368.487 1174.09 363.991C1179.95 362.633 1186.03 361.181 1191.77 359.589C1208.88 354.811 1219.26 349.285 1226.55 341.089C1235.08 331.441 1237.54 320.763 1240.17 309.429C1242.15 300.811 1244.18 291.96 1249.01 282.452C1251.89 276.738 1255.47 271.54 1259.61 266.95C1288.62 234.775 1342.67 215.994 1385.6 244.704C1416.55 265.358 1437.71 298.142 1458.18 329.802C1469.13 346.709 1479.43 362.727 1491.11 376.917C1511.98 402.302 1539.69 433.587 1569.3 450.588C1584.69 459.44 1597.79 462.718 1609.35 460.517C1619.78 458.55 1626.07 451.946 1631.5 444.64V440.378H1631.41Z" fill="#91BFFF"/>
<path opacity="0.7" d="M1608.35 503.979C1619.69 500.56 1625.98 491.146 1631.41 481.077V475.55C1625.47 487.072 1619.6 497.703 1607.66 501.309C1596.2 504.775 1583.35 502.059 1568.53 492.926C1545.98 479.11 1520.64 451.524 1493.18 410.919C1483.87 397.103 1475.47 382.35 1466.59 366.707C1446.2 330.785 1425.17 293.598 1392.11 269.806C1347.8 237.912 1288.4 253.93 1260.77 288.915C1256.59 294.207 1253.14 300.202 1250.6 306.759C1246.29 317.906 1245.17 328.818 1244.09 339.356C1242.76 352.61 1241.46 365.115 1233.83 376.261C1227.28 385.862 1216.94 392.747 1200.3 398.695C1193.96 400.943 1187.11 402.957 1180.52 404.924C1161.72 410.45 1142.28 416.164 1127.63 428.903C1114.61 440.237 1105.69 456.255 1099.61 479.297C1095.6 494.659 1093.53 511.191 1091.59 527.209L1090.73 534C1086.12 570.624 1073.49 617.037 1039.61 630.104C1000.95 645.044 963.751 603.081 943.579 562.663C913.278 501.778 883.364 476.44 812.417 516.765C807.59 519.528 802.676 522.619 797.762 525.991C738.582 566.643 686.126 575.964 622.463 557.277C612.334 554.279 601.472 550.439 589.317 545.381C573.67 538.917 558.628 531.564 544.059 524.492C506.042 505.946 470.137 488.43 425.655 486.182C396.13 484.683 370.742 493.254 346.13 501.497C337.165 504.494 327.898 507.632 318.502 510.255C261.347 526.178 192.684 536.295 125.228 538.73C119.194 538.964 113.073 539.105 106.996 539.245C92.1255 539.62 76.7809 539.995 62.6431 541.353L59.2811 541.681C38.1607 543.929 20.2299 546.786 -0.718079 551.282C-17.0109 554.748 -34.252 557.511 -52.0104 560.227C-97.9149 567.299 -145.026 576.853 -171.923 609.122C-192.655 633.991 -196.534 667.806 -200.629 703.634C-204.077 734.03 -207.698 765.503 -222.267 792.245C-228.301 803.345 -235.672 812.525 -244.853 822.875C-249.939 828.589 -254.68 833.787 -259.12 838.658C-264.594 844.653 -269.766 850.273 -274.378 855.659C-284.895 867.93 -290.929 878.468 -294.507 890.926C-298.99 906.475 -298.602 924.365 -297.74 944.457C-296.36 976.539 -296.404 1009.98 -305.757 1037.05C-309.852 1048.71 -315.498 1058.83 -322.653 1067.21C-334.248 1083.32 -348.084 1098.87 -362.566 1114.09V1117.93C-347.351 1102.06 -332.825 1085.8 -320.714 1068.99C-313.386 1060.42 -307.567 1050.02 -303.386 1038.03C-293.86 1010.49 -293.817 976.726 -295.24 944.364C-296.102 924.553 -296.447 906.896 -292.093 891.768C-288.645 879.685 -282.783 869.475 -272.568 857.533C-267.999 852.193 -262.826 846.573 -257.352 840.578C-252.87 835.708 -248.128 830.462 -243.042 824.748C-234.982 815.662 -226.62 805.593 -220.112 793.603C-205.241 766.393 -201.62 734.639 -198.129 703.962C-194.077 668.602 -190.284 635.209 -170.069 610.949C-143.733 579.382 -97.1391 569.922 -51.6656 562.897C-33.9072 560.18 -16.623 557.417 -0.243927 553.951C20.6179 549.502 38.5055 546.645 59.5397 544.397L62.9017 544.069C76.9533 542.711 92.2548 542.336 107.082 541.962C113.203 541.821 119.323 541.681 125.358 541.447C193.029 539.011 261.864 528.848 319.191 512.878C328.631 510.255 337.941 507.117 346.906 504.073C372.423 495.502 396.432 487.4 425.526 488.851C469.534 491.099 505.223 508.522 543.024 526.928C557.636 534.047 572.722 541.4 588.412 547.91C600.696 552.968 611.601 556.855 621.816 559.852C686.255 578.774 739.272 569.313 799.141 528.239C804.012 524.914 808.883 521.823 813.624 519.153C882.718 479.859 911.812 504.541 941.381 563.927C961.984 605.329 1000.3 648.135 1040.47 632.68C1075.56 619.145 1088.53 571.748 1093.23 534.375L1094.09 527.584C1096.08 511.66 1098.1 495.221 1102.07 480.047C1107.97 457.613 1116.64 442.064 1129.22 431.058C1143.45 418.646 1162.67 413.026 1181.2 407.594C1187.84 405.627 1194.7 403.613 1201.12 401.365C1212.67 397.243 1227.07 390.874 1235.9 377.994C1243.92 366.286 1245.26 353.406 1246.64 339.777C1247.71 329.427 1248.79 318.702 1252.97 307.93C1255.38 301.654 1258.66 295.893 1262.71 290.835C1289.65 256.74 1347.54 241.097 1390.73 272.242C1423.31 295.706 1444.26 332.612 1464.48 368.299C1472.97 383.286 1481.76 398.836 1491.16 412.699C1518.83 453.632 1544.43 481.452 1567.28 495.455C1582.75 504.869 1596.2 507.679 1608.35 503.979Z" fill="#91BFFF"/>
<path opacity="0.7" d="M1565.38 539.995C1580.73 549.97 1594.91 552.453 1607.45 547.301C1619.82 542.243 1626.03 529.597 1631.41 516.484V509.693C1631.29 510.021 1631.16 510.348 1631.03 510.676C1625.08 525.476 1619.43 539.433 1606.59 544.678C1594.6 549.596 1581.54 547.254 1566.72 537.559C1534.56 516.671 1504.82 467.027 1493.53 446.607C1486.46 433.821 1479.69 420.098 1473.14 406.797C1453.14 366.145 1432.45 324.135 1397.5 297.064C1356.46 265.31 1291.55 272.804 1263.92 312.566C1259.87 318.421 1256.72 324.978 1254.65 332.143C1251.03 344.461 1250.9 357.059 1250.77 369.283C1250.6 384.973 1250.43 399.819 1243.14 413.12C1236.89 424.548 1226.59 432.884 1209.65 440.19C1202.8 443.141 1195.39 445.717 1188.19 448.246C1169.7 454.709 1150.6 461.406 1136.51 474.988C1123.62 487.493 1115.39 504.682 1110.65 529.082C1107.71 544.257 1106.55 560.415 1105.43 576.01C1105.17 579.429 1104.96 582.801 1104.7 586.173C1102.8 611.183 1094.14 670.757 1054.31 683.823C1012.89 697.546 977.501 649.306 959.786 603.83C941.941 558.12 922.804 532.923 899.571 524.539C879.227 517.233 855.305 522.619 826.469 541.072C821.814 544.069 816.9 547.535 811.857 551.422C751.298 598.35 697.764 611.558 632.937 595.681C622.161 593.058 610.955 589.546 598.67 584.956C581.386 578.539 564.921 570.905 548.973 563.552C511.128 546.083 475.353 529.551 431.043 528.473C401.82 527.771 375.139 534.281 349.32 540.557C342.639 542.196 335.958 543.788 329.191 545.334C283.933 555.497 216.003 569.079 148.72 569.454C129.151 569.547 108.936 568.657 89.8843 567.674L86.6085 567.533C79.7551 567.206 73.1604 566.784 66.6518 566.363C52.471 565.473 39.066 564.676 24.9283 564.583C9.84232 564.489 -7.8299 564.442 -25.7607 565.801C-62.3981 568.517 -111.191 579.57 -135.587 616.71C-152.785 642.843 -153.905 676.658 -154.983 709.348C-156.061 741.055 -157.138 773.886 -172.397 800.956C-179.25 813.18 -188.388 822.688 -195.543 829.572C-203.474 837.253 -211.405 843.951 -219.034 850.414C-222.439 853.271 -225.758 856.081 -228.948 858.891C-239.637 868.211 -250.542 878.889 -257.826 893.97C-266.145 911.064 -268.042 930.547 -268.818 949.047C-269.033 954.199 -269.206 959.444 -269.378 964.783C-270.197 990.074 -271.016 1016.21 -277.999 1039.44C-281.447 1050.77 -286.317 1061.26 -292.524 1070.63C-310.498 1100.14 -336.144 1126.13 -362.351 1151V1154.65C-335.455 1129.17 -308.946 1102.57 -290.455 1072.17C-284.119 1062.62 -279.119 1051.85 -275.585 1040.28C-268.473 1016.72 -267.654 990.355 -266.835 964.877C-266.662 959.538 -266.49 954.293 -266.275 949.188C-265.499 931.016 -263.645 911.86 -255.542 895.281C-248.43 880.669 -237.784 870.225 -227.31 861.092C-224.12 858.282 -220.801 855.472 -217.396 852.615C-209.724 846.105 -201.793 839.408 -193.776 831.68C-186.491 824.655 -177.224 814.96 -170.155 802.408C-154.509 774.682 -153.431 741.523 -152.354 709.442C-151.233 675.674 -150.155 643.78 -133.432 618.302C-109.596 582.052 -61.5791 571.233 -25.502 568.564C-7.65747 567.252 9.9285 567.252 24.9714 567.346C39.066 567.44 52.4279 568.283 66.6088 569.126C73.1173 569.547 79.7551 569.922 86.6085 570.297L89.8843 570.437C108.936 571.421 129.151 572.311 148.849 572.217C216.305 571.842 284.451 558.213 329.795 548.05C336.562 546.552 343.286 544.912 349.967 543.273C376.82 536.716 402.164 530.534 431.086 531.237C474.922 532.267 510.439 548.706 548.111 566.082C564.102 573.481 580.61 581.115 597.981 587.579C610.351 592.168 621.644 595.728 632.506 598.35C698.109 614.415 752.246 601.02 813.452 553.624C818.452 549.783 823.322 546.364 827.891 543.414C856.08 525.429 879.313 520.09 898.925 527.162C921.424 535.264 940.088 559.946 957.631 604.907C975.777 651.414 1012.2 700.684 1055.22 686.446C1096.51 672.864 1105.43 611.979 1107.37 586.408C1107.63 583.036 1107.89 579.617 1108.1 576.198C1109.22 560.696 1110.39 544.631 1113.28 529.597C1117.93 505.806 1125.86 489.086 1138.32 477.002C1152.02 463.795 1170.86 457.238 1189.09 450.822C1196.33 448.293 1203.79 445.67 1210.73 442.719C1222.5 437.615 1237.11 429.84 1245.47 414.478C1253.1 400.522 1253.27 385.347 1253.45 369.283C1253.58 357.293 1253.7 344.882 1257.2 332.986C1259.18 326.148 1262.2 319.873 1266.07 314.252C1292.93 275.614 1356.16 268.355 1396.16 299.312C1430.64 326.008 1451.2 367.737 1471.03 408.109C1477.58 421.41 1484.35 435.179 1491.46 448.012C1505.47 473.677 1533.92 519.575 1565.38 539.995Z" fill="#91BFFF"/>
<path opacity="0.7" d="M1491.5 483.653C1497.11 496.064 1543.1 594.557 1590.68 594.51C1595.94 594.51 1601.29 593.292 1606.54 590.623C1620.12 583.738 1626.03 567.206 1631.46 550.767V542.617C1630.9 544.257 1630.38 545.943 1629.82 547.582C1624.13 564.957 1618.74 581.396 1605.51 588.094C1564.43 608.982 1515.98 531.471 1493.79 482.388C1488.87 471.523 1484.13 460.236 1479.52 449.276C1460.08 403.098 1439.95 355.326 1402.84 324.462C1375.99 302.122 1334.61 295.331 1302.24 307.93C1279.13 316.922 1263.66 334.579 1258.66 357.668C1255.77 371.063 1256.59 385.254 1257.37 398.976C1258.4 417.242 1259.44 434.477 1252.45 450.119C1242.07 473.302 1219.57 482.388 1195.73 491.989C1177.58 499.296 1158.88 506.883 1145.39 521.214C1120.69 547.488 1119.78 587.532 1118.92 626.264C1118.84 630.385 1118.75 634.46 1118.62 638.534C1118.02 658.72 1112.63 725.6 1068.97 737.73C1025.35 749.86 991.553 695.485 975.906 645.185C958.363 588.796 936.338 557.042 908.623 548.097C885.002 540.463 857.158 550.205 825.779 577.041C752.849 639.424 691.772 652.819 607.851 624.812C589.015 618.536 571.214 610.715 554.016 603.128C516.559 586.689 481.172 571.093 437.465 571.093C437.034 571.093 436.603 571.093 436.172 571.093C392.337 571.421 349.924 578.82 308.933 586.033C246.649 596.945 182.21 608.279 113.677 593.667C102.556 591.278 91.3065 588.422 80.4015 585.612C54.3674 578.914 27.4281 571.983 0.230194 571.702C-34.7262 571.374 -79.51 584.956 -99.5098 624.578C-113.389 652.07 -111.794 684.807 -110.285 716.467C-108.691 749.158 -107.096 782.925 -122.872 809.949C-134.595 830.041 -154.078 842.826 -172.957 855.191C-190.758 866.899 -209.206 878.983 -221.534 897.342C-238.603 922.679 -240.973 954.808 -243.258 985.906C-244.637 1004.69 -246.059 1024.08 -250.671 1042.01C-265.671 1100.42 -312.179 1140.09 -357.092 1178.49C-358.946 1180.03 -360.713 1181.63 -362.566 1183.17V1186.69C-360.239 1184.67 -357.911 1182.66 -355.541 1180.64C-310.283 1141.96 -263.473 1102.01 -248.215 1042.76C-243.559 1024.59 -242.094 1005.06 -240.715 986.14C-238.344 954.012 -236.103 923.71 -219.508 898.981C-207.482 881.09 -189.293 869.147 -171.664 857.579C-152.569 845.028 -132.785 832.055 -120.759 811.447C-104.553 783.675 -106.191 749.439 -107.786 716.327C-109.294 685.041 -110.846 652.678 -97.3115 625.889C-78.1308 587.906 -35.4158 574.465 -1.27838 574.465C-0.80426 574.465 -0.287048 574.465 0.187103 574.465C27.1264 574.793 53.8932 581.677 79.8412 588.328C90.7462 591.138 102.039 594.042 113.203 596.43C182.167 611.136 246.822 599.756 309.364 588.796C350.268 581.631 392.552 574.184 436.215 573.903C436.646 573.903 437.034 573.903 437.465 573.903C480.654 573.903 515.826 589.358 553.067 605.75C570.308 613.337 588.196 621.159 607.118 627.482C690.867 655.442 754.659 641.485 827.374 579.242C858.02 553.015 885.132 543.46 907.89 550.767C934.786 559.431 956.251 590.623 973.492 646.122C989.483 697.499 1024.22 752.998 1069.57 740.446C1114.96 727.848 1120.47 659.376 1121.12 638.675C1121.25 634.647 1121.33 630.526 1121.42 626.404C1122.28 588.234 1123.15 548.753 1147.11 523.228C1160.21 509.271 1178.7 501.825 1196.55 494.612C1220.86 484.777 1243.83 475.504 1254.65 451.337C1261.94 435.085 1260.86 416.633 1259.82 398.836C1259.05 385.3 1258.23 371.344 1261.03 358.324C1265.82 336.171 1280.69 319.217 1302.97 310.553C1334.61 298.235 1375 304.886 1401.2 326.71C1437.84 357.153 1457.8 404.596 1477.11 450.447C1481.8 461.406 1486.59 472.74 1491.5 483.653Z" fill="#91BFFF"/>
<path opacity="0.7" d="M738.581 -6.51623C750.434 1.11779 764.485 4.86455 777.201 3.74052C779.528 3.55318 781.77 3.17851 783.925 2.71016C792.33 0.789949 799.571 -3.23782 805.002 -9.18579C810.002 -14.6654 813.321 -21.3628 816.511 -27.8728C816.726 -28.3411 816.985 -28.8094 817.2 -29.231H814.097C810.864 -22.6273 807.804 -16.3983 803.063 -11.2465C796.683 -4.26818 787.675 -0.099905 776.985 0.836784C764.873 1.91398 751.382 -1.64544 740.003 -8.99846C732.288 -13.9629 724.874 -20.8008 717.762 -29.231H714.012C721.727 -19.7236 729.874 -12.0895 738.581 -6.51623Z" fill="#91BFFF"/>
</g>
</g>
</svg>
