<svg width="33" height="33" viewBox="0 0 33 33" fill="none" xmlns="http://www.w3.org/2000/svg">
<g clip-path="url(#clip0_0_2100)">
<path d="M1.89165 13.5002C3.59235 14.3125 12.9843 18.0947 14.4565 18.8054C15.9288 19.5161 16.9949 19.5161 18.8733 18.5516C20.7516 17.5616 29.5851 13.9571 31.2858 13.0687C32.1489 12.6118 32.5296 12.2564 32.5296 11.9518V8.77889C32.5296 8.44891 32.0981 8.16969 31.2604 7.86509C29.6105 7.25588 20.8278 3.77833 19.1525 3.14374C17.4772 2.53453 16.7918 2.55992 14.8119 3.27066C12.832 3.9814 3.5162 7.63663 1.84088 8.29661C1.02861 8.62659 0.571702 8.90581 0.571702 9.2358H0.520935V12.4595C0.571702 12.7641 1.05399 13.0941 1.89165 13.5002ZM17.2233 13.9571L12.0705 11.8249L19.4571 10.6827L17.2233 13.9571ZM28.4175 8.88043L24.0515 10.6065L23.5692 10.7842L19.2032 9.05811L24.0515 7.15435L28.4175 8.88043ZM15.5734 5.70748L14.8627 4.38754L17.0964 5.25058L19.2032 4.56522L18.6448 5.93593L20.777 6.74821L18.0102 7.02743L17.401 8.52506L16.4111 6.87513L13.2127 6.59591L15.5734 5.70748ZM10.0652 7.56048C12.2481 7.56048 14.025 8.24584 14.025 9.0835C14.025 9.92115 12.2481 10.6065 10.0652 10.6065C7.88217 10.6065 6.10532 9.92115 6.10532 9.0835C6.10532 8.24584 7.88217 7.56048 10.0652 7.56048ZM31.2858 15.3025C29.5851 16.1909 20.777 19.8207 18.8986 20.7853C17.0203 21.7753 15.9795 21.7499 14.5073 21.0392C13.035 20.3284 3.59235 16.5463 1.91703 15.734C1.05399 15.3279 0.571702 14.9979 0.571702 14.6679V17.8916C0.571702 18.2216 1.05399 18.5516 1.89165 18.9577C3.59235 19.77 12.9843 23.5521 14.4565 24.2629C15.9288 24.9736 16.9949 24.9736 18.8733 24.009C20.7516 23.0191 29.5851 19.4146 31.2858 18.5262C32.1489 18.0693 32.5296 17.7139 32.5296 17.4093V14.2364C32.5296 14.5156 32.1235 14.871 31.2858 15.3025ZM31.2858 20.5569C29.5851 21.4453 20.777 25.0751 18.8986 26.0397C17.0203 27.0297 15.9795 27.0043 14.5073 26.2936C13.035 25.5828 3.59235 21.8007 1.91703 20.9884C1.05399 20.6076 0.571702 20.2523 0.571702 19.9223V23.146C0.571702 23.476 1.05399 23.806 1.89165 24.2121C3.59235 25.0244 12.9843 28.8065 14.4565 29.5173C15.9288 30.228 16.9949 30.228 18.8733 29.2634C20.7516 28.2735 29.5851 24.669 31.2858 23.7806C32.1489 23.3237 32.5296 22.9683 32.5296 22.6637V19.4908C32.5296 19.7954 32.1235 20.1254 31.2858 20.5569Z" fill="#D82C20"/>
</g>
<defs>
<clipPath id="clip0_0_2100">
<rect width="32.491" height="32.491" fill="white" transform="translate(0.317871 0.123047)"/>
</clipPath>
</defs>
</svg>
